<svg width="14" height="14" viewBox="0 0 14 14" fill="none" xmlns="http://www.w3.org/2000/svg">
<path d="M12.894 2.55413L11.2138 0.875486C11.0953 0.75644 10.9544 0.661986 10.7993 0.597548C10.6441 0.53311 10.4778 0.49996 10.3098 0.5C9.96745 0.5 9.64562 0.634102 9.40424 0.875486L7.59625 2.6835C7.47721 2.80202 7.38276 2.9429 7.31832 3.09803C7.25388 3.25317 7.22073 3.41951 7.22077 3.5875C7.22077 3.92985 7.35487 4.2517 7.59625 4.49308L8.91832 5.81517C8.60885 6.49729 8.1786 7.11783 7.64831 7.64684C7.11936 8.17842 6.49889 8.61025 5.81667 8.9216L4.4946 7.59951C4.37608 7.48047 4.2352 7.38601 4.08007 7.32158C3.92493 7.25714 3.75859 7.22399 3.59061 7.22403C3.24826 7.22403 2.92642 7.35813 2.68504 7.59951L0.875481 9.40595C0.756291 9.52469 0.661757 9.66583 0.597317 9.82124C0.532877 9.97666 0.499804 10.1433 0.500001 10.3115C0.500001 10.6539 0.634101 10.9757 0.875481 11.2171L2.55252 12.8942C2.93746 13.2807 3.46913 13.5 4.015 13.5C4.13016 13.5 4.2406 13.4905 4.34946 13.4716C6.47612 13.1214 8.58544 11.9902 10.2877 10.2894C11.9884 8.59029 13.118 6.48252 13.473 4.34951C13.5803 3.69794 13.3641 3.02743 12.894 2.55413Z" fill="#1A1A1A"/>
</svg>
