<svg width="16" height="16" viewBox="0 0 16 16" fill="none" xmlns="http://www.w3.org/2000/svg">
<path d="M14.4323 10.9109L12.17 10.6526C11.6267 10.5903 11.0923 10.7773 10.7093 11.1603L9.07041 12.7992C6.54978 11.5166 4.4834 9.45909 3.20082 6.92954L4.84858 5.28177C5.23157 4.89878 5.41862 4.36436 5.35627 3.82104L5.09797 1.57652C4.99109 0.676922 4.23401 0 3.32551 0H1.78464C0.778165 0 -0.0590758 0.837245 0.0032719 1.84372C0.475333 9.45018 6.55869 15.5247 14.1562 15.9967C15.1627 16.0591 15.9999 15.2218 15.9999 14.2154V12.6745C16.0088 11.7749 15.3319 11.0178 14.4323 10.9109Z" fill="#36BA5F"/>
</svg>
