<?xml version="1.0" standalone="no"?>
<!DOCTYPE svg PUBLIC "-//W3C//DTD SVG 1.1//EN" "http://www.w3.org/Graphics/SVG/1.1/DTD/svg11.dtd" >
<svg>
<metadata>
Created by FontForge 20090914 at Wed Nov 17 08:54:27 2021
 By www-data
Copyright (c) 2012 by Jos Buivenga. All rights reserved.
</metadata>
<defs>
<font id="MuseoSansCyrl-900" horiz-adv-x="600" >
  <font-face 
    font-family="Museo Sans Cyrl 900"
    font-weight="700"
    font-stretch="normal"
    units-per-em="1000"
    panose-1="2 0 0 0 0 0 0 0 0 0"
    ascent="750"
    descent="-250"
    x-height="515"
    cap-height="715"
    bbox="-129 -215.001 1230 918"
    underline-thickness="50"
    underline-position="-50"
    unicode-range="U+0020-U+FB04"
  />
<missing-glyph horiz-adv-x="510" 
d="M5 0v700h500v-700h-500zM255 395l170 255h-340zM285 350l170 -255v510zM55 95l170 255l-170 255v-510zM85 50h340l-170 255z" />
    <glyph glyph-name="f_f" unicode="ff" horiz-adv-x="763" 
d="M92 0l0.00195312 380.002h-63v135h63v12c0 32 5.66699 60.167 17 84.5s25.166 43.166 41.499 56.499s36 24 59 32s43.667 13.167 62 15.5s37.166 3.5 56.499 3.5c22.667 0 40 -1 52 -3v-146c-5.33301 1.33301 -14.666 2 -27.999 2c-58 0 -87 -16.667 -87 -50v-7h211v12
c0 32 5.66699 60.167 17 84.5s25.166 43.166 41.499 56.499s36 24 59 32s43.667 13.167 62 15.5s37.166 3.5 56.499 3.5c22.667 0 40 -1 52 -3v-146c-5.33301 1.33301 -14.666 2 -27.999 2c-58 0 -87 -16.667 -87 -50v-7h95v-135h-95v-380h-173v380h-211v-380h-173z" />
    <glyph glyph-name="fi" unicode="fi" horiz-adv-x="675" 
d="M92 0l0.000976562 380.001h-63v135h63v12c0 32 5.66699 60.167 17 84.5s25.166 43.166 41.499 56.499s36 24 59 32s43.667 13.167 62 15.5s37.166 3.5 56.499 3.5c22.667 0 40 -1 52 -3v-146c-5.33301 1.33301 -14.666 2 -27.999 2c-58 0 -87 -16.667 -87 -50v-7h352
v-515h-173v380h-179v-380h-173zM446.001 580.001v135h169v-135h-169z" />
    <glyph glyph-name="fl" unicode="fl" horiz-adv-x="705" 
d="M95 0l0.000976562 371.001h-63v135h63v21c0 32 5.66699 60.167 17 84.5s25.166 43.166 41.499 56.499s36 24 59 32s43.667 13.167 62 15.5s37.166 3.5 56.499 3.5c22.667 0 40 -1 52 -3v-146c-5.33301 1.33301 -14.666 2 -27.999 2c-58 0 -87 -16.667 -87 -50v-16h95
v-135h-95v-371h-173zM440.001 190.001l0.00390625 525h173v-502c0 -25.333 3.16699 -42.666 9.5 -51.999s19.166 -14 38.499 -14c8.66699 0 15.667 0.333008 21 1v-150c-24 -2 -41.333 -3 -52 -3c-26.667 0 -49.834 2.16699 -69.501 6.5s-39.334 12.833 -59.001 25.5
s-34.834 32.667 -45.501 60s-16 61.666 -16 102.999z" />
    <glyph glyph-name="f_f_i" unicode="ffi" horiz-adv-x="1059" 
d="M92 0l0.00195312 380.002h-63v135h63v12c0 32 5.66699 60.167 17 84.5s25.166 43.166 41.499 56.499s36 24 59 32s43.667 13.167 62 15.5s37.166 3.5 56.499 3.5c22.667 0 40 -1 52 -3v-146c-5.33301 1.33301 -14.666 2 -27.999 2c-58 0 -87 -16.667 -87 -50v-7h211v12
c0 32 5.66699 60.167 17 84.5s25.166 43.166 41.499 56.499s36 24 59 32s43.667 13.167 62 15.5s37.166 3.5 56.499 3.5c22.667 0 40 -1 52 -3v-146c-5.33301 1.33301 -14.666 2 -27.999 2c-58 0 -87 -16.667 -87 -50v-7h352v-515h-173v380h-179v-380h-173v380h-211v-380
h-173zM830.002 580.002v135h169v-135h-169z" />
    <glyph glyph-name="f_f_l" unicode="ffl" horiz-adv-x="1086" 
d="M92 0l0.00195312 380.002h-63v135h63v12c0 32 5.66699 60.167 17 84.5s25.166 43.166 41.499 56.499s36 24 59 32s43.667 13.167 62 15.5s37.166 3.5 56.499 3.5c22.667 0 40 -1 52 -3v-146c-5.33301 1.33301 -14.666 2 -27.999 2c-58 0 -87 -16.667 -87 -50v-7h211v12
c0 32 5.66699 60.167 17 84.5s25.166 43.166 41.499 56.499s36 24 59 32s43.667 13.167 62 15.5s37.166 3.5 56.499 3.5c22.667 0 40 -1 52 -3v-146c-5.33301 1.33301 -14.666 2 -27.999 2c-58 0 -87 -16.667 -87 -50v-7h95v-135h-95v-380h-173v380h-211v-380h-173z
M821.002 190.002l0.00390625 525h173v-502c0 -25.333 3.16699 -42.666 9.5 -51.999s19.166 -14 38.499 -14c8.66699 0 15.667 0.333008 21 1v-150c-24 -2 -41.333 -3 -52 -3c-26.667 0 -49.834 2.16699 -69.501 6.5s-39.334 12.833 -59.001 25.5s-34.834 32.667 -45.501 60
s-16 61.666 -16 102.999z" />
    <glyph glyph-name="f_j" unicode="fj" horiz-adv-x="675" 
d="M92 0v380.001h-63v135h63v12c0 32 5.66699 60.167 17 84.5s25.166 43.166 41.499 56.499s36 24 59 32s43.667 13.167 62 15.5s37.166 3.5 56.499 3.5c22.667 0 40 -1 52 -3v-146c-5.33301 1.33301 -14.666 2 -27.999 2c-58 0 -87 -16.667 -87 -50v-7h352v-528
c0 -32.667 -6 -61.5 -18 -86.5s-26.5 -44.167 -43.5 -57.5s-37.333 -24 -61 -32s-44.667 -13.167 -63 -15.5s-37.166 -3.5 -56.499 -3.5c-15.333 0 -30.666 1 -45.999 3v144c5.33301 -0.666992 12.666 -1 21.999 -1c62 0 93 22 93 66v376h-179v-380h-173zM446 580.001v135
h169v-135h-169z" />
    <glyph glyph-name=".notdef" horiz-adv-x="510" 
d="M5 0v700h500v-700h-500zM255 395l170 255h-340zM285 350l170 -255v510zM55 95l170 255l-170 255v-510zM85 50h340l-170 255z" />
    <glyph glyph-name="space" unicode=" " horiz-adv-x="250" 
 />
    <glyph glyph-name="exclam" unicode="!" horiz-adv-x="308" 
d="M80 221l-16 494h180l-16 -494h-148zM75 0v150h158v-150h-158z" />
    <glyph glyph-name="quotedbl" unicode="&#x22;" horiz-adv-x="437" 
d="M253 490v240h122v-240h-122zM62 490v240h122v-240h-122z" />
    <glyph glyph-name="numbersign" unicode="#" horiz-adv-x="706" 
d="M103 0l31 180h-101l20 120h101l17 95h-99l20 120h99l35 200h134l-35 -200h108l35 200h134l-35 -200h105l-20 -120h-105l-17 -95h103l-20 -120h-103l-31 -180h-134l31 180h-108l-31 -180h-134zM288 300h108l17 95h-108z" />
    <glyph glyph-name="dollar" unicode="$" 
d="M42 90l92 133c22.667 -20.667 49.667 -38.167 81 -52.5s61.333 -21.5 90 -21.5c20.667 0 38.334 4.5 53.001 13.5s22 23.5 22 43.5c0 14 -11.167 27.5 -33.5 40.5s-49.333 26 -81 39s-63.5 28.167 -95.5 45.5s-59.167 41.166 -81.5 71.499s-33.5 65.5 -33.5 105.5
c0 54.667 17.667 101.167 53 139.5s81.333 62.833 138 73.5v94h109v-91c72 -7.33301 133 -33.333 183 -78l-74 -143c-21.333 18 -46.333 33 -75 45s-56.334 18 -83.001 18c-20.667 0 -38.5 -4.66699 -53.5 -14s-22.5 -23.333 -22.5 -42c0 -15.333 11.167 -29.333 33.5 -42
s49.333 -25.167 81 -37.5s63.5 -26.666 95.5 -42.999s59.167 -39.833 81.5 -70.5s33.5 -66.334 33.5 -107.001c0 -54.667 -17.833 -102.167 -53.5 -142.5s-84.5 -65.5 -146.5 -75.5v-91h-109v91c-85.333 12.667 -153.333 45.334 -204 98.001z" />
    <glyph glyph-name="percent" unicode="%" horiz-adv-x="857" 
d="M215 382c-50.667 0 -93.5 16.667 -128.5 50s-52.5 74 -52.5 122c0 47.333 17.667 88 53 122s78 51 128 51s92.667 -17 128 -51s53 -74.667 53 -122c0 -48 -17.667 -88.667 -53 -122s-78 -50 -128 -50zM74 0l552 715h152l-552 -715h-152zM215 502
c15.333 0 28.333 5.16699 39 15.5s16 22.833 16 37.5c0 14 -5.5 26.167 -16.5 36.5s-23.833 15.5 -38.5 15.5s-27.5 -5.16699 -38.5 -15.5s-16.5 -22.5 -16.5 -36.5c0 -14.667 5.33301 -27.167 16 -37.5s23.667 -15.5 39 -15.5zM461 160c0 47.333 17.667 88 53 122
s78 51 128 51s92.667 -17 128 -51s53 -74.667 53 -122c0 -48 -17.667 -88.667 -53 -122s-78 -50 -128 -50c-50.667 0 -93.5 16.667 -128.5 50s-52.5 74 -52.5 122zM587 161c0 -14.667 5.33301 -27.167 16 -37.5s23.667 -15.5 39 -15.5s28.333 5.16699 39 15.5
s16 22.833 16 37.5c0 14 -5.5 26.167 -16.5 36.5s-23.833 15.5 -38.5 15.5s-27.5 -5.16699 -38.5 -15.5s-16.5 -22.5 -16.5 -36.5z" />
    <glyph glyph-name="ampersand" unicode="&#x26;" horiz-adv-x="699" 
d="M44 207c0 36.667 10.501 70.8311 31.501 102.498s48.5 54.5 82.5 68.5v2c-26 12.667 -46.5 33 -61.5 61s-22.5 59 -22.5 93c0 64.667 22.833 113 68.5 145s101.5 48 167.5 48c30 0 64.333 -4 103 -12l-40 -137c-10.667 2.66699 -23.667 4 -39 4
c-24 0 -43.833 -6.33301 -59.5 -19s-23.5 -31 -23.5 -55c0 -19.333 6.5 -35.666 19.5 -48.999s30.833 -20 53.5 -20h87v88h172v-88h89v-150h-89v-69c0 -66.667 -24.333 -122 -73 -166s-115.334 -66 -200.001 -66c-80 0 -144.333 20.833 -193 62.5s-73 93.834 -73 156.501z
M223.001 217.997c0 -19.333 8.33203 -36 24.999 -50s37.334 -21 62.001 -21c32 0 56.833 7.66699 74.5 23s26.5 35.333 26.5 60v59h-98c-60 0 -90 -23.667 -90 -71z" />
    <glyph glyph-name="quotesingle" unicode="'" horiz-adv-x="249" 
d="M62 490v240h125v-240h-125z" />
    <glyph glyph-name="parenleft" unicode="(" horiz-adv-x="332" 
d="M164 -95c-82.667 130.667 -124 278 -124 442c0 141.333 41.333 275.666 124 402.999h142c-75.333 -126 -113 -260.333 -113 -403c0 -151.333 37.667 -298.666 113 -441.999h-142z" />
    <glyph glyph-name="parenright" unicode=")" horiz-adv-x="332" 
d="M26 -95c75.333 143.333 113 290.666 113 441.999c0 142.667 -37.667 277 -113 403h142c82.667 -127.333 124 -261.666 124 -402.999c0 -164 -41.333 -311.333 -124 -442h-142z" />
    <glyph glyph-name="asterisk" unicode="*" horiz-adv-x="495" 
d="M191 309l-122 88l75 83v2l-110 23l46 143l102 -45l-11 112h152l-12 -112l103 46l47 -143l-111 -23v-2l76 -83l-122 -89l-56 97h-2z" />
    <glyph glyph-name="plus" unicode="+" 
d="M27 222v130h205v223h136v-223h205v-130h-205v-222h-136v222h-205z" />
    <glyph glyph-name="comma" unicode="," horiz-adv-x="298" 
d="M11 -111l75 277h165l-113 -277h-127z" />
    <glyph glyph-name="hyphen" unicode="-" horiz-adv-x="432" 
d="M59 212v150h314v-150h-314z" />
    <glyph glyph-name="period" unicode="." horiz-adv-x="282" 
d="M59 0v164h164v-164h-164z" />
    <glyph glyph-name="slash" unicode="/" horiz-adv-x="452" 
d="M26 -42l256 792h144l-256 -792h-144z" />
    <glyph glyph-name="zero" unicode="0" horiz-adv-x="636" 
d="M318 -12c-49.333 0 -91.833 9.5 -127.5 28.5s-63.5 45.833 -83.5 80.5s-34.667 73.667 -44 117s-14 91.666 -14 144.999s4.66699 101.5 14 144.5s24 81.667 44 116s47.833 60.833 83.5 79.5s78.167 28 127.5 28s91.833 -9.33301 127.5 -28s63.5 -45.167 83.5 -79.5
s34.667 -73 44 -116s14 -91.167 14 -144.5s-4.66699 -101.666 -14 -144.999s-24 -82.333 -44 -117s-47.833 -61.5 -83.5 -80.5s-78.167 -28.5 -127.5 -28.5zM318 148c59.333 0 89 70.333 89 211c0 138.667 -29.667 208 -89 208s-89 -69.333 -89 -208
c0 -140.667 29.667 -211 89 -211z" />
    <glyph glyph-name="one" unicode="1" horiz-adv-x="552" 
d="M55 0v150h152v298l1 55h-2c-6 -13.333 -15.333 -26 -28 -38l-43 -39l-101 108l193 181h151v-565h153v-150h-476z" />
    <glyph glyph-name="two" unicode="2" horiz-adv-x="599" 
d="M55 0c-5.33301 30 -7.99902 55.6699 -7.99902 77.0029c0 41.333 7.66699 79.666 23 114.999s34.333 64.333 57 87s47.5 44.334 74.5 65.001s51.833 38.167 74.5 52.5s41.667 29.666 57 45.999s23 32.5 23 48.5c0 23.333 -7.66699 41 -23 53s-33.333 18 -54 18
c-22 0 -42.333 -7.33301 -61 -22s-33.667 -32.667 -45 -54l-130 87c23.333 45.333 56.166 82.333 98.499 111s93.5 43 153.5 43c65.333 0 122.333 -18.833 171 -56.5s73 -91.834 73 -162.501c0 -41.333 -10 -79 -30 -113s-44.333 -61.833 -73 -83.5
s-57.334 -41.334 -86.001 -59.001s-53.667 -35 -75 -52s-32.666 -33.833 -33.999 -50.5h309v-150h-495z" />
    <glyph glyph-name="three" unicode="3" horiz-adv-x="582" 
d="M30 82l84.002 135c44 -42.667 93 -64 147 -64c31.333 0 56.166 6.83301 74.499 20.5s27.5 30.5 27.5 50.5c0 52.667 -44.333 79 -133 79h-50l-37 85l94 113l30.5 35c10.333 11.333 18.166 19.333 23.499 24l8 8v2c-15.333 -3.33301 -38 -5 -68 -5h-171v150h451v-109
l-145 -167c52.667 -11.333 94.667 -36 126 -74s47 -82.333 47 -133c0 -66.667 -23.167 -124 -69.5 -172s-111.5 -72 -195.5 -72c-100.667 0 -182 31.333 -244 94z" />
    <glyph glyph-name="four" unicode="4" horiz-adv-x="633" 
d="M24 173v106l276 436h214v-397h85v-145h-85v-173h-173v173h-317zM202 318h139v160l6 80h-2c-10 -29.333 -21.667 -54 -35 -74l-108 -164v-2z" />
    <glyph glyph-name="five" unicode="5" horiz-adv-x="582" 
d="M37 82l83.999 135c45.333 -42.667 93.666 -64 144.999 -64c26 0 49.167 7.83301 69.5 23.5s30.5 37.167 30.5 64.5s-10.667 49 -32 65s-48.666 24 -81.999 24c-32 0 -64 -8 -96 -24l-93 35l29 374h400v-150h-248l-4 -66l-4 -28h2c12.667 4.66699 30 7 52 7
c81.333 0 144.333 -22.167 189 -66.5s67 -100.5 67 -168.5c0 -74 -24.667 -135 -74 -183s-113 -72 -191 -72c-97.333 0 -178.666 31.333 -243.999 94z" />
    <glyph glyph-name="six" unicode="6" horiz-adv-x="615" 
d="M45 330c0 49.333 7.50098 97.333 22.501 144s36.333 89 64 127s63.667 68.5 108 91.5s93.166 34.5 146.499 34.5c62 0 114.667 -10.333 158 -31l-47 -150c-8.66699 4.66699 -23.334 9.33398 -44.001 14.001s-38.667 7 -54 7c-76.667 0 -128 -39.333 -154 -118h2
c8.66699 6 23 11.667 43 17s38.333 8 55 8c70.667 0 127.334 -24.5 170.001 -73.5s64 -106.167 64 -171.5c0 -64.667 -22.167 -121 -66.5 -169s-103.5 -72 -177.5 -72c-78.667 0 -146.667 29.667 -204 89s-86 143.666 -86 252.999zM335.001 148
c21.333 0 38.667 7.83203 52 23.499s20 34.5 20 56.5c0 28.667 -9 53.334 -27 74.001s-45 31 -81 31c-49.333 0 -74 -14.333 -74 -43c0 -40 11.667 -73.667 35 -101s48.333 -41 75 -41z" />
    <glyph glyph-name="seven" unicode="7" horiz-adv-x="563" 
d="M63 0l253 500.999c7.33301 14.667 14.5 27.334 21.5 38.001s12.167 17.667 15.5 21l5 6v2c-4 -2 -18 -3 -42 -3h-283v150h513v-122l-300 -593h-183z" />
    <glyph glyph-name="eight" unicode="8" horiz-adv-x="621" 
d="M43 210c0 26.667 6.66602 53.167 19.999 79.5s26.5 46.166 39.5 59.499s26.167 25 39.5 35c-43.333 38.667 -65 84.334 -65 137.001c0 57.333 20.333 106 61 146s100.334 60 179.001 60c69.333 0 127 -18.5 173 -55.5s69 -87.5 69 -151.5
c0 -52.667 -23.333 -107.334 -70 -164.001c56 -38.667 84 -88.667 84 -150c0 -59.333 -23.333 -110.5 -70 -153.5s-111.667 -64.5 -195 -64.5c-82.667 0 -147.5 21.833 -194.5 65.5s-70.5 95.834 -70.5 156.501zM361.999 419c17.333 28 25.999 57.333 25.999 88
c0 20 -6.66699 36 -20 48s-31.666 18 -54.999 18c-21.333 0 -37.5 -5.16699 -48.5 -15.5s-16.5 -23.833 -16.5 -40.5c0 -21.333 9.5 -39 28.5 -53s47.5 -29 85.5 -45zM221.998 225c0 -23.333 8.33105 -43.001 24.998 -59.001s37 -24 61 -24c26.667 0 47.667 6.33301 63 19
s23 30.667 23 54c0 4.66699 -0.666992 9 -2 13s-3.66602 8 -6.99902 12l-9.5 11c-3 3.33301 -7.66699 7 -14 11l-16 10c-4.33301 2.66699 -10.666 6 -18.999 10s-15 7.33301 -20 10s-12.5 6.16699 -22.5 10.5s-17.667 7.83301 -23 10.5c-26 -27.333 -39 -56.666 -39 -87.999
z" />
    <glyph glyph-name="nine" unicode="9" horiz-adv-x="615" 
d="M71 19l46.999 149.999c32.667 -14 65.334 -21 98.001 -21c76.667 0 128 39.333 154 118h-2c-8 -6.66699 -22 -12.5 -42 -17.5s-38.667 -7.5 -56 -7.5c-70.667 0 -127.334 24.5 -170.001 73.5s-64 106.167 -64 171.5c0 64.667 22.167 121 66.5 169s103.5 72 177.5 72
c78.667 0 146.667 -29.667 204 -89s86 -143.666 86 -252.999c0 -49.333 -7.5 -97.333 -22.5 -144s-36.333 -89 -64 -127s-63.667 -68.5 -108 -91.5s-93.166 -34.5 -146.499 -34.5c-62 0 -114.667 10.333 -158 31zM315.999 381.999c49.333 0 73.999 14.334 73.999 43.001
c0 40 -11.667 73.667 -35 101s-48.333 41 -75 41c-21.333 0 -38.666 -7.83301 -51.999 -23.5s-20 -34.5 -20 -56.5c0 -28.667 9 -53.334 27 -74.001s45 -31 81 -31z" />
    <glyph glyph-name="colon" unicode=":" horiz-adv-x="282" 
d="M59 351v164h164v-164h-164zM59 0v164h164v-164h-164z" />
    <glyph glyph-name="semicolon" unicode=";" horiz-adv-x="306" 
d="M88 351v164h158v-164h-158zM18 -111l65 277h166l-103 -277h-128z" />
    <glyph glyph-name="less" unicode="&#x3c;" 
d="M34 234v107l504 223v-145l-330 -131v-2l330 -130v-145z" />
    <glyph glyph-name="equal" unicode="=" 
d="M47 337v130h506v-130h-506zM47 107v130h506v-130h-506z" />
    <glyph glyph-name="greater" unicode="&#x3e;" 
d="M61 11v145l330 130v2l-330 131v145l504 -223v-107z" />
    <glyph glyph-name="question" unicode="?" horiz-adv-x="509" 
d="M135 221l0.000976562 50.001c0 24.667 5.33301 47.5 16 68.5s23.667 38.333 39 52s30.833 26.667 46.5 39s28.834 25.5 39.501 39.5s16 28.667 16 44c0 16.667 -7 30.667 -21 42s-30.667 17 -50 17c-30.667 0 -62.334 -14.333 -95.001 -43l-96 117
c55.333 55.333 125 83 209 83c61.333 0 115.5 -17.5 162.5 -52.5s70.5 -82.833 70.5 -143.5c0 -30 -5.83301 -57.5 -17.5 -82.5s-26 -45.333 -43 -61s-33.833 -30.334 -50.5 -44.001s-30.834 -28 -42.501 -43s-17.5 -30.5 -17.5 -46.5v-36h-166zM139.001 0.000976562v150
h158v-150h-158z" />
    <glyph glyph-name="at" unicode="@" horiz-adv-x="845" 
d="M46 239c0 106 37.5 195.166 112.5 267.499s168.5 108.5 280.5 108.5c104 0 179.667 -22.167 227 -66.5s71 -102.166 71 -173.499v-198h74v-119h-283c-70.667 0 -126.167 18 -166.5 54s-60.5 78.667 -60.5 128c0 48 19.833 89.333 59.5 124s95.5 52 167.5 52h49
c0 20 -13.833 35.667 -41.5 47s-58.834 17 -93.501 17c-63.333 0 -117 -24.5 -161 -73.5s-66 -104.833 -66 -167.5c0 -67.333 22.333 -124 67 -170s106.334 -69 185.001 -69v-130c-128 0 -230.167 35 -306.5 105s-114.5 158 -114.5 264zM472 243.999
c0 -19.333 5.66797 -35.333 17.001 -48s27.666 -19 48.999 -19h39v134h-37c-22 0 -38.833 -6.33301 -50.5 -19s-17.5 -28.667 -17.5 -48z" />
    <glyph glyph-name="A" unicode="A" horiz-adv-x="664" 
d="M-3 0l243 715h184l243 -715h-180l-44 150h-223l-43 -150h-180zM261 290h141.001l-40 139l-29 123h-2c-10.667 -52 -20.334 -93 -29.001 -123z" />
    <glyph glyph-name="B" unicode="B" horiz-adv-x="647" 
d="M75 0l0.000976562 715h263c73.333 0 132.166 -16.167 176.499 -48.5s66.5 -78.5 66.5 -138.5c0 -30.667 -7.33301 -59.834 -22 -87.501s-35 -49.167 -61 -64.5v-2c38 -11.333 66.167 -32.166 84.5 -62.499s27.5 -63.166 27.5 -98.499
c0 -72.667 -25.667 -126.334 -77 -161.001s-116.333 -52 -195 -52h-263zM250.001 438l89.999 -0.000976562c20.667 0 36.334 6.33301 47.001 19s16 28.334 16 47.001c0 18 -5.5 32.667 -16.5 44s-27.5 17 -49.5 17h-87v-127zM250 149.999l105.001 0.000976562
c24 0 42.667 7.16699 56 21.5s20 32.166 20 53.499s-6.33301 38.833 -19 52.5s-31.334 20.5 -56.001 20.5h-106v-148z" />
    <glyph glyph-name="C" unicode="C" horiz-adv-x="714" 
d="M37 359c0 105.333 35.167 193.001 105.5 263.001s160.166 105 269.499 105c50 0 98.667 -8.5 146 -25.5s88 -42.167 122 -75.5l-81 -132c-24 21.333 -52.167 38.833 -84.5 52.5s-63.833 20.5 -94.5 20.5c-66.667 0 -117 -19.833 -151 -59.5s-51 -87.834 -51 -144.501
c0 -58 17.5 -108.333 52.5 -151s84.833 -64 149.5 -64c68 0 131.333 29.333 190 88l90 -128c-77.333 -80 -173.333 -120 -288 -120c-113.333 0 -204.166 34.833 -272.499 104.5s-102.5 158.5 -102.5 266.5z" />
    <glyph glyph-name="D" unicode="D" horiz-adv-x="737" 
d="M75 0v715h254c113.333 0 203.166 -31.5 269.499 -94.5s99.5 -150.167 99.5 -261.5c0 -112 -33.167 -199.833 -99.5 -263.5s-156.166 -95.5 -269.499 -95.5h-254zM250 150h72.002c61.333 0 109.166 18 143.499 54s51.5 87.667 51.5 155c0 66.667 -17.333 117.667 -52 153
s-82.334 53 -143.001 53h-72v-415z" />
    <glyph glyph-name="E" unicode="E" horiz-adv-x="574" 
d="M75 0v715h448v-150h-273v-130h218v-150h-218v-135h287v-150h-462z" />
    <glyph glyph-name="F" unicode="F" horiz-adv-x="537" 
d="M75 0v715h438v-150h-263v-150h218v-150h-218v-265h-175z" />
    <glyph glyph-name="G" unicode="G" horiz-adv-x="773" 
d="M37 359c0 104.667 35.499 192.166 106.499 262.499s160.5 105.5 268.5 105.5c111.333 0 203 -31.667 275 -95l-84 -131c-20.667 18.667 -47.334 34.334 -80.001 47.001s-64 19 -94 19c-70.667 0 -123.5 -19.167 -158.5 -57.5s-52.5 -86.5 -52.5 -144.5
c0 -66 19.833 -118.667 59.5 -158s88.167 -59 145.5 -59c52 0 100.333 17.333 145 52v55h-101v149h256v-404h-146v20l1 30h-2c-21.333 -18.667 -49.166 -33.667 -83.499 -45s-69.166 -17 -104.499 -17c-96 0 -178.5 33.667 -247.5 101s-103.5 157.333 -103.5 270z" />
    <glyph glyph-name="H" unicode="H" horiz-adv-x="760" 
d="M75 0v715h175v-286h260v286h175v-715h-175v280h-260v-280h-175z" />
    <glyph glyph-name="I" unicode="I" horiz-adv-x="325" 
d="M75 0v715h175v-715h-175z" />
    <glyph glyph-name="J" unicode="J" horiz-adv-x="566" 
d="M18 220l-0.000976562 52h175v-38c0 -57.333 21.667 -86 65 -86c20 0 35.667 6.33301 47 19s17 31.667 17 57v341h-192v150h367v-495c0 -74 -23.667 -131.167 -71 -171.5s-103.333 -60.5 -168 -60.5c-65.333 0 -121.666 20.333 -168.999 61s-71 97.667 -71 171z" />
    <glyph glyph-name="K" unicode="K" horiz-adv-x="675" 
d="M75 0v715h175v-276h72l148 276h188l-193 -342v-2l204 -371h-196l-151 290h-72v-290h-175z" />
    <glyph glyph-name="L" unicode="L" horiz-adv-x="552" 
d="M75 0v715h175v-565h292v-150h-467z" />
    <glyph glyph-name="M" unicode="M" horiz-adv-x="874" 
d="M47 0l59 715h190l104 -302l36 -118h2c13.333 48 25.333 87.333 36 118l104 302h190l58 -715h-175l-22 322c-1.33301 16 -2 34 -2 54s0.333008 36 1 48l1 18h-2c-16 -50 -29.333 -90 -40 -120l-75 -207h-150l-75 207l-40 120h-2c2.66699 -44 2.66699 -84 0 -120l-22 -322
h-176z" />
    <glyph glyph-name="N" unicode="N" horiz-adv-x="754" 
d="M75 0v715h177l198 -334c8 -14 17 -31.167 27 -51.5s18 -37.166 24 -50.499l9 -20h2c-5.33301 51.333 -8 92 -8 122v334h175v-715h-176l-199 333c-8 14 -17 31.167 -27 51.5s-18 37.166 -24 50.499l-9 20h-2c5.33301 -51.333 8 -92 8 -122v-333h-175z" />
    <glyph glyph-name="O" unicode="O" horiz-adv-x="820" 
d="M36 362c0 104 35 190.833 105 260.5s159.667 104.5 269 104.5s199 -34.833 269 -104.5s105 -156.5 105 -260.5c0 -106.667 -35 -195.667 -105 -267s-159.667 -107 -269 -107s-199 35.667 -269 107s-105 160.333 -105 267zM217 362c0 -61.333 18.167 -112.333 54.5 -153
s82.5 -61 138.5 -61s102.167 20.333 138.5 61s54.5 91.667 54.5 153c0 58.667 -18.167 107.5 -54.5 146.5s-82.5 58.5 -138.5 58.5s-102.167 -19.5 -138.5 -58.5s-54.5 -87.833 -54.5 -146.5z" />
    <glyph glyph-name="P" unicode="P" horiz-adv-x="629" 
d="M75 0v715h297c69.333 0 125.5 -23 168.5 -69s64.5 -105 64.5 -177c0 -72.667 -21.5 -132.167 -64.5 -178.5s-99.167 -69.5 -168.5 -69.5h-122v-221h-175zM250 371l86 0.000976562c29.333 0 51.833 9 67.5 27s23.5 41.667 23.5 71s-7.66699 52.666 -23 69.999
s-37 26 -65 26h-89v-194z" />
    <glyph glyph-name="Q" unicode="Q" horiz-adv-x="819" 
d="M36 362c0 104 35 190.833 105 260.5s159.667 104.5 269 104.5s199 -34.833 269 -104.5s105 -156.5 105 -260.5c0 -74 -23.667 -144.667 -71 -212l75 -61l-99 -111l-73 69c-60 -39.333 -128.667 -59 -206 -59c-109.333 0 -199 35.667 -269 107s-105 160.333 -105 267z
M217 362c0 -61.333 18.167 -112.333 54.5 -153s82.5 -61 138.5 -61c30.667 0 56.667 5.33301 78 16l-73 64l98 111l71 -69c12.667 29.333 19 60 19 92c0 58.667 -18.333 107.5 -55 146.5s-82.667 58.5 -138 58.5c-56 0 -102.167 -19.5 -138.5 -58.5
s-54.5 -87.833 -54.5 -146.5z" />
    <glyph glyph-name="R" unicode="R" horiz-adv-x="658" 
d="M75 0l0.00195312 714.999h249c63.333 0 109.666 -5.66699 138.999 -17c41.333 -16 73.666 -41.833 96.999 -77.5s35 -79.167 35 -130.5c0 -40 -9.33301 -78.167 -28 -114.5s-45 -63.166 -79 -80.499v-2c6.66699 -8.66699 15.667 -23 27 -43l139 -250h-195l-127 241h-82
v-241h-175zM250.002 390.999l76 0.000976562c28.667 0 51 7.66699 67 23s24 37 24 65c0 39.333 -14 64.666 -42 75.999c-15.333 6.66699 -37.333 10 -66 10h-59v-174z" />
    <glyph glyph-name="S" unicode="S" horiz-adv-x="575" 
d="M26 90l92.001 133c22.667 -20 49.667 -37.333 81 -52s61.666 -22 90.999 -22c23.333 0 41.5 4.66699 54.5 14s19.5 21.333 19.5 36c0 15.333 -7.83301 29.5 -23.5 42.5s-35.167 23.833 -58.5 32.5s-48.666 19.834 -75.999 33.501s-52.666 28.167 -75.999 43.5
s-42.833 36.5 -58.5 63.5s-23.5 58.167 -23.5 93.5c0 65.333 24.167 118.166 72.5 158.499s110.5 60.5 186.5 60.5c88.667 0 163.334 -27 224.001 -81l-74 -143c-20.667 18 -45.334 33 -74.001 45s-56.667 18 -84 18c-25.333 0 -44.333 -4.66699 -57 -14
s-19 -21.666 -19 -36.999s7.83301 -29.333 23.5 -42s35.167 -23.167 58.5 -31.5s48.666 -19 75.999 -32s52.666 -27 75.999 -42s42.833 -36 58.5 -63s23.5 -58.167 23.5 -93.5c0 -63.333 -22.5 -116.333 -67.5 -159s-107.167 -64 -186.5 -64
c-48 0 -94.833 8.66699 -140.5 26s-85.167 42.666 -118.5 75.999z" />
    <glyph glyph-name="T" unicode="T" horiz-adv-x="633" 
d="M229 0v565h-217v150h609v-150h-217v-565h-175z" />
    <glyph glyph-name="U" unicode="U" horiz-adv-x="732" 
d="M67 263v452h175v-452c0 -36.667 11.167 -65 33.5 -85s52.5 -30 90.5 -30s68.167 10 90.5 30s33.5 48.333 33.5 85v452h175v-452c0 -81.333 -27.333 -147.5 -82 -198.5s-126.667 -76.5 -216 -76.5c-90 0 -162.5 25.5 -217.5 76.5s-82.5 117.167 -82.5 198.5z" />
    <glyph glyph-name="V" unicode="V" horiz-adv-x="675" 
d="M247 0l-253.001 715h190l126 -407c4 -13.333 8.33301 -29.5 13 -48.5s8.33398 -34.833 11.001 -47.5l3 -19h2c8.66699 46.667 17.667 85 27 115l128 407h187l-252 -715h-182z" />
    <glyph glyph-name="W" unicode="W" horiz-adv-x="979" 
d="M187 0l-174.001 714.998h184l90 -447c2.66699 -13.333 4.83398 -26.166 6.50098 -38.499s2.5 -21.5 2.5 -27.5v-9h2c0.666992 20.667 4.66699 45.667 12 75l110 447h141l107 -447c3.33301 -13.333 6 -26.166 8 -38.499s3.33301 -21.5 4 -27.5v-9h2
c0 20.667 3 45.667 9 75l98 447h181l-181 -715h-195l-90 361l-14 84h-2c-2 -25.333 -6.66699 -53.333 -14 -84l-90 -361h-197z" />
    <glyph glyph-name="X" unicode="X" horiz-adv-x="659" 
d="M8 0l217 354.999l-218 360h199l78 -147l44 -92h2c12.667 30.667 27.334 61.334 44.001 92.001l79 147h199l-219 -360l218 -355h-195l-82 150l-44 89h-2c-12.667 -29.333 -27.334 -59 -44.001 -89l-82 -150h-194z" />
    <glyph glyph-name="Y" unicode="Y" horiz-adv-x="627" 
d="M226 0l0.000976562 293l-236 422h199l81 -172l43 -103h2c13.333 36 27.666 70.333 42.999 103l80 172h199l-236 -422v-293h-175z" />
    <glyph glyph-name="Z" unicode="Z" horiz-adv-x="635" 
d="M37 0v109.999l276 391c9.33301 13.333 18.5 25.333 27.5 36s15.833 18.334 20.5 23.001l7 6v2c-15.333 -2 -33.666 -3 -54.999 -3h-263v150h540v-108l-277 -393c-9.33301 -13.333 -18.5 -25.333 -27.5 -36s-15.833 -18 -20.5 -22l-7 -7v-2c15.333 2 33.666 3 54.999 3
h282v-150h-558z" />
    <glyph glyph-name="bracketleft" unicode="[" horiz-adv-x="352" 
d="M70 -95v845h246v-120h-102v-605h102v-120h-246z" />
    <glyph glyph-name="backslash" unicode="\" horiz-adv-x="452" 
d="M282 -42l-256 792h144l256 -792h-144z" />
    <glyph glyph-name="bracketright" unicode="]" horiz-adv-x="352" 
d="M36 25h102v605h-102v120h246v-845h-246v120z" />
    <glyph glyph-name="asciicircum" unicode="^" horiz-adv-x="630" 
d="M58 241l203 474h107l203 -474h-145l-112 300l-111 -300h-145z" />
    <glyph glyph-name="underscore" unicode="_" horiz-adv-x="618" 
d="M11 0h596v-130h-596v130z" />
    <glyph glyph-name="grave" unicode="`" horiz-adv-x="484" 
d="M234 761l-118 150h171l81 -150h-134z" />
    <glyph glyph-name="a" unicode="a" horiz-adv-x="553" 
d="M22 145c0 32.667 8.99902 60.9971 26.999 84.9971s41.833 42.333 71.5 55s60.5 21.834 92.5 27.501s65.333 8.5 100 8.5h15v9c0 38 -24.333 57 -73 57c-45.333 0 -92.666 -16.333 -141.999 -49l-60 122c23.333 18 55.5 33.667 96.5 47s81.5 20 121.5 20
c71.333 0 127.5 -18.667 168.5 -56s61.5 -88.666 61.5 -153.999v-317h-158v31l2 32h-2c-16.667 -23.333 -38.834 -41.666 -66.501 -54.999s-56.5 -20 -86.5 -20c-49.333 0 -89.666 15 -120.999 45s-47 67.333 -47 112zM192.999 160.997c0 -12.667 4.33301 -23.167 13 -31.5
s20.667 -12.5 36 -12.5c24 0 44.667 9.66699 62 29s26 40 26 62v14h-16c-32 0 -60.167 -4.83301 -84.5 -14.5s-36.5 -25.167 -36.5 -46.5z" />
    <glyph glyph-name="b" unicode="b" horiz-adv-x="633" 
d="M58 0l-0.00292969 715.002h173v-199l-2 -44h2c14.667 16.667 34.834 30 60.501 40s51.834 15 78.501 15c70 0 126.167 -24.833 168.5 -74.5s63.5 -114.834 63.5 -195.501s-22.667 -145.667 -68 -195s-102.666 -74 -171.999 -74c-62 0 -110 20.333 -144 61h-2
c0.666992 -8.66699 1 -18.334 1 -29.001v-20h-159zM225.997 254.002c0 -33.333 8.83301 -62.167 26.5 -86.5s42.5 -36.5 74.5 -36.5c28.667 0 52.667 11 72 33s29 52 29 90s-9.33301 68.667 -28 92s-43 35 -73 35c-28.667 0 -52.667 -10.667 -72 -32s-29 -53 -29 -95z" />
    <glyph glyph-name="c" unicode="c" horiz-adv-x="552" 
d="M29 258c0 73.333 25.834 136.498 77.501 189.498s121.5 79.5 209.5 79.5c38.667 0 76.5 -6.5 113.5 -19.5s67.5 -32.5 91.5 -58.5l-73 -116c-34.667 33.333 -75 50 -121 50c-38.667 0 -68.834 -12.167 -90.501 -36.5s-32.5 -53.166 -32.5 -86.499
c0 -34 11.333 -63.833 34 -89.5s54.334 -38.5 95.001 -38.5c46 0 93 20.667 141 62l63 -121c-25.333 -26 -57.833 -46.667 -97.5 -62s-80.834 -23 -123.501 -23c-88 0 -157.833 26.333 -209.5 79s-77.5 116.334 -77.5 191.001z" />
    <glyph glyph-name="d" unicode="d" horiz-adv-x="633" 
d="M31 258c0 80.667 21.834 145.665 65.501 194.998s100.167 74 169.5 74c62.667 0 107.667 -13.667 135 -41h2c-0.666992 6.66699 -1 14.334 -1 23.001v206h173v-715h-162v34l1 29h-2c-32.667 -50 -82.334 -75 -149.001 -75c-70 0 -126.167 24.833 -168.5 74.5
s-63.5 114.834 -63.5 195.501zM205.001 257.998c0 -38 9.33301 -68.666 28 -91.999s43 -35 73 -35c28.667 0 52.667 10.667 72 32s29 53 29 95c0 33.333 -8.83301 62.166 -26.5 86.499s-42.5 36.5 -74.5 36.5c-28.667 0 -52.667 -11 -72 -33s-29 -52 -29 -90z" />
    <glyph glyph-name="e" unicode="e" horiz-adv-x="567" 
d="M29 258c0 77.333 24.334 141.499 73.001 192.499s113.667 76.5 195 76.5c74 0 132.167 -23.167 174.5 -69.5s63.5 -106.166 63.5 -179.499c0 -12 -1.33301 -30 -4 -54h-325c6 -30 20.167 -52.833 42.5 -68.5s48.166 -23.5 77.499 -23.5c42.667 0 90 17.333 142 52
l64 -121c-27.333 -23.333 -60.833 -41.666 -100.5 -54.999s-79.5 -20 -119.5 -20c-87.333 0 -156.333 26.667 -207 80s-76 116.666 -76 189.999zM210.001 322.999h154c0 22 -6.5 40.333 -19.5 55s-30.167 22 -51.5 22c-44 0 -71.667 -25.667 -83 -77z" />
    <glyph glyph-name="f" unicode="f" horiz-adv-x="382" 
d="M95 0l0.000976562 371.001h-63v135h63v21c0 32 5.66699 60.167 17 84.5s25.166 43.166 41.499 56.499s36 24 59 32s43.667 13.167 62 15.5s37.166 3.5 56.499 3.5c22.667 0 40 -1 52 -3v-146c-5.33301 1.33301 -14.666 2 -27.999 2c-58 0 -87 -16.667 -87 -50v-16h95
v-135h-95v-371h-173z" />
    <glyph glyph-name="g" unicode="g" horiz-adv-x="625" 
d="M130 -33c45.333 -22 93.668 -33 145.001 -33c79.333 0 119 33 119 99v17l1 19h-2c-30 -36 -73 -54 -129 -54c-73.333 0 -130.333 25.333 -171 76s-61 111.667 -61 183c0 70.667 20 130.5 60 179.5s97 73.5 171 73.5c60 0 106.667 -16.667 140 -50h3
c-0.666992 4 -1 8 -1 12v26h162v-468c0 -45.333 -8.33301 -85 -25 -119s-39.334 -60.833 -68.001 -80.5s-59.5 -34.167 -92.5 -43.5s-68.167 -14 -105.5 -14c-71.333 0 -136.333 15.333 -195 46zM206.002 280c0 -34.667 8.33105 -63.5 24.998 -86.5
s41.334 -34.5 74.001 -34.5c26.667 0 48.834 8.5 66.501 25.5s26.5 46.167 26.5 87.5c0 74 -33.333 111 -100 111c-29.333 0 -52 -9.5 -68 -28.5s-24 -43.833 -24 -74.5z" />
    <glyph glyph-name="h" unicode="h" horiz-adv-x="626" 
d="M58 0v714.999h173v-226l-2 -44h2c14.667 25.333 36 45.333 64 60s59 22 93 22c123.333 0 185 -64.333 185 -193v-334h-173v302c0 45.333 -19 68 -57 68c-36 0 -63.667 -12.667 -83 -38s-29 -58.666 -29 -99.999v-232h-173z" />
    <glyph glyph-name="i" unicode="i" horiz-adv-x="289" 
d="M60 580v135h169v-135h-169zM58 0v515h173v-515h-173z" />
    <glyph glyph-name="j" unicode="j" horiz-adv-x="289" 
d="M60 580v135h169v-135h-169zM58 4l-0.000976562 511h173v-528c0 -32.667 -6 -61.5 -18 -86.5s-26.5 -44.167 -43.5 -57.5s-37.333 -24 -61 -32s-44.667 -13.167 -63 -15.5s-37.166 -3.5 -56.499 -3.5c-15.333 0 -30.666 1 -45.999 3v144
c5.33301 -0.666992 12.666 -1 21.999 -1c62 0 93 22 93 66z" />
    <glyph glyph-name="k" unicode="k" horiz-adv-x="591" 
d="M58 0v715h173v-370h49l102 170h188l-151 -234v-2l172 -279h-197l-109 200h-54v-200h-173z" />
    <glyph glyph-name="l" unicode="l" horiz-adv-x="323" 
d="M57 190l0.00390625 525h173v-502c0 -25.333 3.16699 -42.666 9.5 -51.999s19.166 -14 38.499 -14c8.66699 0 15.667 0.333008 21 1v-150c-24 -2 -41.333 -3 -52 -3c-26.667 0 -49.834 2.16699 -69.501 6.5s-39.334 12.833 -59.001 25.5s-34.834 32.667 -45.501 60
s-16 61.666 -16 102.999z" />
    <glyph glyph-name="m" unicode="m" horiz-adv-x="909" 
d="M58 0v515h166v-45l-2 -32h2c39.333 59.333 90.333 89 153 89c68.667 0 116.667 -29 144 -87h2c14.667 24 36.834 44.5 66.501 61.5s62.5 25.5 98.5 25.5c50.667 0 91.167 -15.333 121.5 -46s45.5 -79.667 45.5 -147v-334h-173v305c0 43.333 -13.333 65 -40 65
c-34.667 0 -59.834 -14.5 -75.501 -43.5s-23.5 -65.167 -23.5 -108.5v-218h-173v305c0 43.333 -13.333 65 -40 65c-36 0 -61.5 -14.667 -76.5 -44s-22.5 -65.333 -22.5 -108v-218h-173z" />
    <glyph glyph-name="n" unicode="n" horiz-adv-x="626" 
d="M58 0v515h166v-45l-2 -32h2c35.333 59.333 90 89 164 89c123.333 0 185 -64.333 185 -193v-334h-173v302c0 45.333 -19 68 -57 68c-36.667 0 -64.5 -13 -83.5 -39s-28.5 -58.667 -28.5 -98v-233h-173z" />
    <glyph glyph-name="o" unicode="o" horiz-adv-x="642" 
d="M29 256c0 79.333 28 144.333 84 195s125 76 207 76c82.667 0 152.167 -25.167 208.5 -75.5s84.5 -115.5 84.5 -195.5c0 -79.333 -28 -143.833 -84 -193.5s-125.333 -74.5 -208 -74.5s-152 24.833 -208 74.5s-84 114.167 -84 193.5zM204 256
c0 -37.333 11.333 -67.333 34 -90s50.334 -34 83.001 -34s60.334 11.333 83.001 34s34 52.667 34 90c0 38 -11.333 68.667 -34 92s-50.334 35 -83.001 35s-60.334 -11.667 -83.001 -35s-34 -54 -34 -92z" />
    <glyph glyph-name="p" unicode="p" horiz-adv-x="633" 
d="M58 -200l-0.000976562 715.001h156v-26l-2 -33h2c35.333 47.333 87.333 71 156 71c70 0 126.167 -24.833 168.5 -74.5s63.5 -114.834 63.5 -195.501s-22.667 -145.667 -68 -195s-102.666 -74 -171.999 -74c-49.333 0 -93 16.333 -131 49h-2c1.33301 -12 2 -26.667 2 -44
v-193h-173zM225.999 254.001c0 -33.333 8.83301 -62.167 26.5 -86.5s42.5 -36.5 74.5 -36.5c28.667 0 52.667 11 72 33s29 52 29 90s-9.33301 68.667 -28 92s-43 35 -73 35c-28.667 0 -52.667 -10.667 -72 -32s-29 -53 -29 -95z" />
    <glyph glyph-name="q" unicode="q" horiz-adv-x="633" 
d="M31 258c0 80.667 21.832 145.667 65.499 195s100.167 74 169.5 74c65.333 0 114.333 -18.333 147 -55h2c-1.33301 7.33301 -2 16.666 -2 27.999v15h162v-715h-173v202l2 44h-2c-33.333 -38.667 -79.666 -58 -138.999 -58c-70 0 -126.167 24.833 -168.5 74.5
s-63.5 114.834 -63.5 195.501zM204.999 258c0 -38 9.33301 -68.666 28 -91.999s43 -35 73 -35c28.667 0 52.667 10.667 72 32s29 53 29 95c0 33.333 -8.83301 62.166 -26.5 86.499s-42.5 36.5 -74.5 36.5c-28.667 0 -52.667 -11 -72 -33s-29 -52 -29 -90z" />
    <glyph glyph-name="r" unicode="r" horiz-adv-x="426" 
d="M58 0l0.00195312 515h166v-87l-2 -32h2c11.333 36 32.166 66.333 62.499 91s64.166 37 101.499 37c5.33301 0 12 -0.666992 20 -2v-170c-6 2 -17.667 3 -35 3c-46.667 0 -82 -13.667 -106 -41s-36 -65.333 -36 -114v-200h-173z" />
    <glyph glyph-name="s" unicode="s" horiz-adv-x="471" 
d="M19 64l74.001 112.999c41.333 -34.667 88 -52 140 -52c31.333 0 47 9 47 27c0 10 -8.33301 18.833 -25 26.5s-36.667 15.5 -60 23.5s-46.833 17.833 -70.5 29.5s-43.834 28.834 -60.501 51.501s-25 49.667 -25 81c0 51.333 20.167 91.333 60.5 120s91.5 43 153.5 43
c74 0 135.333 -19.667 184 -59l-59 -120c-14.667 12 -34.5 22 -59.5 30s-48.5 12 -70.5 12c-32 0 -48 -8.33301 -48 -25c0 -8 6 -15.5 18 -22.5s26.833 -13 44.5 -18s37 -12 58 -21s40.333 -19 58 -30s32.5 -26.667 44.5 -47s18 -43.5 18 -69.5
c0 -49.333 -19.167 -89.833 -57.5 -121.5s-89.833 -47.5 -154.5 -47.5c-83.333 0 -153.333 25.333 -210 76z" />
    <glyph glyph-name="t" unicode="t" horiz-adv-x="411" 
d="M88 190l0.000976562 180.999h-66v135h71v148h168v-148h108v-135h-108v-158c0 -44 30.667 -66 92 -66c8 0 15.667 0.333008 23 1v-150c-26 -2 -41.667 -3 -47 -3c-16 0 -31.5 0.833008 -46.5 2.5s-32.333 4.83398 -52 9.50098s-37.334 11.667 -53.001 21
s-30.5 20.833 -44.5 34.5s-25 31.5 -33 53.5s-12 46.667 -12 74z" />
    <glyph glyph-name="u" unicode="u" horiz-adv-x="621" 
d="M53 181v334h173v-302c0 -45.333 18.333 -68 55 -68c35.333 0 62.333 13.5 81 40.5s28 60.833 28 101.5v228h173v-515h-166v45l2 32h-2c-14 -27.333 -35.667 -49 -65 -65s-61.333 -24 -96 -24c-56 0 -100.5 15.167 -133.5 45.5s-49.5 79.5 -49.5 147.5z" />
    <glyph glyph-name="v" unicode="v" horiz-adv-x="572" 
d="M181 0l-178 514.999h182l80 -274l19 -89h2c6 36.667 12.333 66.334 19 89.001l79 274h183l-175 -515h-211z" />
    <glyph glyph-name="w" unicode="w" horiz-adv-x="836" 
d="M155 0l-144 515h182l64 -304l6 -54h2c1.33301 17.333 4.33301 35.333 9 54l71 304h148l71 -304l8 -54h2c0.666992 17.333 3 35.333 7 54l64 304h180l-144 -515h-193l-58 238l-10 55h-2c-2 -18 -5.33301 -36.333 -10 -55l-58 -238h-195z" />
    <glyph glyph-name="x" unicode="x" horiz-adv-x="550" 
d="M11 0l162 255l-166 260h195l56 -115l16 -34h2l16 34l56 115h195l-165 -260l162 -255h-190l-62 116l-12 26h-2c-4.66699 -11.333 -8.66699 -20 -12 -26l-61 -116h-190z" />
    <glyph glyph-name="y" unicode="y" horiz-adv-x="561" 
d="M63 -47c18.667 -12.667 36.332 -19.001 52.999 -19.001c41.333 0 69 17.333 83 52l10 24l-219 505h196l76 -237l19 -80h2c6.66699 32.667 12.334 58.334 17.001 77.001l65 240h189l-211 -570c-20 -53.333 -49.5 -92.5 -88.5 -117.5s-81.167 -37.5 -126.5 -37.5
c-20 0 -40 3 -60 9s-35 12 -45 18l-15 9z" />
    <glyph glyph-name="z" unicode="z" horiz-adv-x="544" 
d="M34 0l0.000976562 86l189 237l23 26c7.33301 8 12.666 13.667 15.999 17l6 4v2c-8.66699 -1.33301 -23.667 -2 -45 -2h-181v145h460v-87l-188 -237c-7.33301 -9.33301 -14.833 -17.833 -22.5 -25.5s-13.5 -13.167 -17.5 -16.5l-6 -5v-2c8.66699 2 24 3 46 3h193v-145
h-473z" />
    <glyph glyph-name="braceleft" unicode="{" horiz-adv-x="395" 
d="M117 62v98.002c0 28 -7.16699 50.333 -21.5 67s-35.5 26.334 -63.5 29.001v150c26.667 2.66699 47.5 12.334 62.5 29.001s22.5 40 22.5 70v88c0 33.333 6.83301 61.666 20.5 84.999s31.667 40.166 54 50.499s43.333 17.333 63 21s40.167 5.5 61.5 5.5l43 -2v-124
c-7.33301 1.33301 -15.666 2 -24.999 2c-48.667 0 -73 -18 -73 -54v-117c0 -30.667 -7.83301 -57.5 -23.5 -80.5s-35.834 -38.5 -60.501 -46.5v-2c56 -20 84 -62 84 -126v-127c0 -36 24.333 -54 73 -54l25 2v-124c-12 -1.33301 -26.333 -2 -43 -2
c-21.333 0 -41.833 1.83301 -61.5 5.5s-40.667 10.667 -63 21s-40.333 27.166 -54 50.499s-20.5 51.666 -20.5 84.999z" />
    <glyph glyph-name="bar" unicode="|" horiz-adv-x="280" 
d="M68 -165v967h144v-967h-144z" />
    <glyph glyph-name="braceright" unicode="}" horiz-adv-x="395" 
d="M36 26c7.33301 -1.33301 15.667 -2.00488 25 -2.00488c48.667 0 73 18 73 54v127c0 28.667 7.33301 55 22 79s35.334 39.667 62.001 47v2c-22.667 7.33301 -42.334 22.333 -59.001 45s-25 50 -25 82v117c0 36 -24.333 54 -73 54l-25 -2v124c12 1.33301 26.333 2 43 2
c21.333 0 41.833 -1.83301 61.5 -5.5s40.667 -10.667 63 -21s40.333 -27.166 54 -50.499s20.5 -51.666 20.5 -84.999v-88c0 -27.333 7.16699 -50.166 21.5 -68.499s35.5 -28.5 63.5 -30.5v-150c-26 -0.666992 -46.667 -10.167 -62 -28.5s-23 -40.833 -23 -67.5v-98
c0 -33.333 -6.83301 -61.666 -20.5 -84.999s-31.667 -40.166 -54 -50.499s-43.333 -17.333 -63 -21s-40.167 -5.5 -61.5 -5.5l-43 2v124z" />
    <glyph glyph-name="asciitilde" unicode="~" horiz-adv-x="636" 
d="M53 191c0 135.333 58 203 174 203c20.667 0 40.167 -4.16699 58.5 -12.5s32.666 -17.5 42.999 -27.5s21.833 -19.167 34.5 -27.5s24.667 -12.5 36 -12.5c16.667 0 30 6.5 40 19.5s15 31.833 15 56.5h133c0 -135.333 -57.667 -203 -173 -203
c-20.667 0 -40.167 4.16699 -58.5 12.5s-32.666 17.5 -42.999 27.5s-22 19.167 -35 27.5s-25.167 12.5 -36.5 12.5c-16 0 -29 -6.5 -39 -19.5s-15 -31.833 -15 -56.5h-134z" />
    <glyph glyph-name="uni00A0" unicode="&#xa0;" horiz-adv-x="250" 
 />
    <glyph glyph-name="exclamdown" unicode="&#xa1;" horiz-adv-x="290" 
d="M219 294l16 -494h-180l16 494h148zM224 515v-150h-158v150h158z" />
    <glyph glyph-name="cent" unicode="&#xa2;" 
d="M256 -12l0.00195312 87.002c-60.667 14 -111.334 47.167 -152.001 99.5s-61 113.5 -61 183.5c0 69.333 20.5 130.333 61.5 183s91.5 86 151.5 100v85h110v-85c45.333 -10 85.166 -30.167 119.499 -60.5s58.833 -67.5 73.5 -111.5l-154 -60
c-7.33301 21.333 -18.833 39.166 -34.5 53.499s-34.167 21.5 -55.5 21.5c-24.667 0 -47.167 -12 -67.5 -36s-30.5 -54 -30.5 -90c0 -40 9.5 -71 28.5 -93s42.167 -33 69.5 -33c21.333 0 40 7.16699 56 21.5s27.333 32.166 34 53.499l154 -60c-14 -40 -37.833 -77 -71.5 -111
s-74.167 -54.333 -121.5 -61v-87h-110z" />
    <glyph glyph-name="sterling" unicode="&#xa3;" 
d="M45 0v150.001h55v149h-43v112h43v100c0 63.333 23 115.166 69 155.499s104.333 60.5 175 60.5c75.333 0 140.666 -27.667 195.999 -83l-97 -118c-29.333 29.333 -60.666 44 -93.999 44c-19.333 0 -35.833 -5.83301 -49.5 -17.5s-20.5 -27.167 -20.5 -46.5v-95h165v-112
h-165v-149h290v-150h-524z" />
    <glyph glyph-name="currency" unicode="&#xa4;" horiz-adv-x="645" 
d="M112 0v142h-65v111h65v57h-65v134h65v271h282c76.667 0 134 -18.833 172 -56.5s57 -89.5 57 -155.5c0 -61.333 -22.167 -109 -66.5 -143s-101.833 -51 -172.5 -51h-97v-56h244v-111h-244v-142h-175zM287 444l71 -0.000976562c29.333 0 51 6.83301 65 20.5
s21 30.167 21 49.5c0 18.667 -6.83301 34.334 -20.5 47.001s-34.5 19 -62.5 19h-74v-136z" />
    <glyph glyph-name="yen" unicode="&#xa5;" 
d="M47 167v96h163v28l-24 49h-139v96h92l-137 279h201l53 -143l43 -133h2c12.667 44.667 27 89 43 133l53 143h201l-138 -279h93v-96h-140l-24 -49v-28h164v-96h-164v-167h-179v167h-163z" />
    <glyph glyph-name="section" unicode="&#xa7;" horiz-adv-x="529" 
d="M143 179l-76 273c-6.66699 24.667 -10 49.667 -10 75c0 59.333 19.833 107.5 59.5 144.5s96.834 55.5 171.501 55.5c38 0 75.5 -6.66699 112.5 -20s68.5 -32.333 94.5 -57l-74 -108c-36.667 31.333 -80.334 47 -131.001 47c-65.333 0 -98 -27.667 -98 -83
c0 -20 3.33301 -42.333 10 -67l72 -260h-131zM34 15l69.001 115c39.333 -36.667 85 -55 137 -55c65.333 0 98 31.333 98 94c0 21.333 -4.33301 47 -13 77l-68 240h131l74 -273c6.66699 -24.667 10 -49.667 10 -75c0 -59.333 -19.833 -107.5 -59.5 -144.5
s-96.834 -55.5 -171.501 -55.5c-37.333 0 -74.833 6.66699 -112.5 20s-69.167 32.333 -94.5 57z" />
    <glyph glyph-name="dieresis" unicode="&#xa8;" horiz-adv-x="485" 
d="M284 771v140h126v-140h-126zM75 771v140h126v-140h-126z" />
    <glyph glyph-name="copyright" unicode="&#xa9;" horiz-adv-x="807" 
d="M43 358c0 102 35 188.833 105 260.5s154.667 107.5 254 107.5c100.667 0 186.334 -35.833 257.001 -107.5s106 -158.5 106 -260.5s-35.333 -189.167 -106 -261.5s-156.334 -108.5 -257.001 -108.5c-98.667 0 -183.167 36.167 -253.5 108.5s-105.5 159.5 -105.5 261.5z
M156 358c0 -74.667 23.667 -137.834 71 -189.501s105.666 -77.5 174.999 -77.5c70.667 0 130.167 25.833 178.5 77.5s72.5 114.834 72.5 189.501c0 74 -24.167 136.667 -72.5 188s-107.833 77 -178.5 77c-69.333 0 -127.666 -25.667 -174.999 -77s-71 -114 -71 -188z
M232 355c0 52 16.999 96.167 50.999 132.5s74.333 54.5 121 54.5c38.667 0 72.334 -10.333 101.001 -31s49 -48.667 61 -84l-100 -39c-2.66699 12.667 -9.5 24 -20.5 34s-23.5 15 -37.5 15c-15.333 0 -29 -7.66699 -41 -23s-18 -35 -18 -59c0 -26 5.5 -46.167 16.5 -60.5
s25.167 -21.5 42.5 -21.5c13.333 0 25.333 4.66699 36 14s18 21 22 35l100 -39c-8.66699 -30.667 -27.5 -57.5 -56.5 -80.5s-64.167 -34.5 -105.5 -34.5c-46.667 0 -87 18.167 -121 54.5s-51 80.5 -51 132.5z" />
    <glyph glyph-name="ordfeminine" unicode="&#xaa;" horiz-adv-x="430" 
d="M163 383c-27.333 0 -51.667 9.5 -73 28.5s-32 43.5 -32 73.5c0 72.667 60.333 109 181 109h5v8c0 24 -15.667 36 -47 36c-26 0 -52.667 -9 -80 -27l-38 75c35.333 26 81.333 39 138 39c46.667 0 82.5 -12 107.5 -36s37.5 -57 37.5 -99v-200h-108v39h-2
c-16 -30.667 -45.667 -46 -89 -46zM197.999 472c12 0 22.5 4.66797 31.5 14.001s13.5 19.666 13.5 30.999v5h-10c-38.667 0 -58 -10 -58 -30c0 -13.333 7.66699 -20 23 -20zM60.999 268.001v85h305v-85h-305z" />
    <glyph glyph-name="guillemotleft" unicode="&#xab;" horiz-adv-x="654" 
d="M292 282l164 206h158l-164 -206l164 -205h-158zM196 77l-164 205l164 206h158l-164 -206l164 -205h-158z" />
    <glyph glyph-name="logicalnot" unicode="&#xac;" horiz-adv-x="621" 
d="M47 337v130h506v-335h-135v205h-371z" />
    <glyph glyph-name="uni00AD" unicode="&#xad;" horiz-adv-x="432" 
d="M59 212v150h314v-150h-314z" />
    <glyph glyph-name="registered" unicode="&#xae;" horiz-adv-x="807" 
d="M43 358c0 102 35 188.833 105 260.5s154.667 107.5 254 107.5c100.667 0 186.334 -35.833 257.001 -107.5s106 -158.5 106 -260.5s-35.333 -189.167 -106 -261.5s-156.334 -108.5 -257.001 -108.5c-98.667 0 -183.167 36.167 -253.5 108.5s-105.5 159.5 -105.5 261.5z
M156 358c0 -74.667 23.667 -137.834 71 -189.501s105.666 -77.5 174.999 -77.5c70.667 0 130.167 25.833 178.5 77.5s72.5 114.834 72.5 189.501c0 74 -24.167 136.667 -72.5 188s-107.833 77 -178.5 77c-69.333 0 -127.666 -25.667 -174.999 -77s-71 -114 -71 -188z
M272 187v347.001h163c37.333 0 67 -10.333 89 -31s33 -48.667 33 -84c0 -24.667 -6.5 -44.834 -19.5 -60.501s-25.833 -25.167 -38.5 -28.5v-2c2.66699 -2 7 -8.66699 13 -20l63 -121h-118l-49 118h-28v-118h-108zM380 377.001h27c26.667 0 40 14 40 42
c0 27.333 -12.667 41 -38 41h-29v-83z" />
    <glyph glyph-name="macron" unicode="&#xaf;" horiz-adv-x="485" 
d="M105 782v112h275v-112h-275z" />
    <glyph glyph-name="degree" unicode="&#xb0;" horiz-adv-x="438" 
d="M219 385c-50.667 0 -93.5 16.667 -128.5 50s-52.5 74 -52.5 122c0 47.333 17.667 88 53 122s78 51 128 51s92.667 -17 128 -51s53 -74.667 53 -122c0 -48 -17.667 -88.667 -53 -122s-78 -50 -128 -50zM219 505c15.333 0 28.333 5.16699 39 15.5s16 22.833 16 37.5
c0 14 -5.5 26.167 -16.5 36.5s-23.833 15.5 -38.5 15.5s-27.5 -5.16699 -38.5 -15.5s-16.5 -22.5 -16.5 -36.5c0 -14.667 5.33301 -27.167 16 -37.5s23.667 -15.5 39 -15.5z" />
    <glyph glyph-name="plusminus" unicode="&#xb1;" 
d="M27 222v130h205v223h136v-223h205v-130h-205v-222h-136v222h-205zM37 -70h526v-130h-526v130z" />
    <glyph glyph-name="twosuperior" unicode="&#xb2;" horiz-adv-x="400" 
d="M37 423c-3.33301 18.667 -5.00098 35.001 -5.00098 49.001c0 33.333 6.83301 62.666 20.5 87.999s30.334 45.166 50.001 59.499s39.167 27 58.5 38s35.833 22 49.5 33s20.5 22.5 20.5 34.5c0 10.667 -4.33301 19 -13 25s-19.334 9 -32.001 9c-23.333 0 -47 -15 -71 -45
l-83 71c16 26.667 38.833 48.167 68.5 64.5s61.167 24.5 94.5 24.5c42.667 0 80.5 -12.167 113.5 -36.5s49.5 -59.833 49.5 -106.5c0 -31.333 -9.16699 -59.166 -27.5 -83.499s-38.666 -42 -60.999 -53s-43.5 -22.167 -63.5 -33.5s-31 -21.333 -33 -30h191v-108h-327z" />
    <glyph glyph-name="threesuperior" unicode="&#xb3;" horiz-adv-x="400" 
d="M187 413c-68 0 -121.333 22.667 -160 68l61 90c23.333 -28.667 53.666 -43 90.999 -43c16.667 0 29.834 4 39.501 12s14.5 18 14.5 30s-5.83301 21 -17.5 27s-26.5 9 -44.5 9h-37l-24 57l62 69l24 23v2c-14 -1.33301 -25.333 -2 -34 -2h-110v109h294v-79l-83 -91
c64.667 -16 97 -58 97 -126c0 -41.333 -15.333 -77.5 -46 -108.5s-73 -46.5 -127 -46.5z" />
    <glyph glyph-name="acute" unicode="&#xb4;" horiz-adv-x="484" 
d="M116 761l81 150h171l-118 -150h-134z" />
    <glyph glyph-name="mu" unicode="&#xb5;" horiz-adv-x="632" 
d="M208 -8c5.33301 -32 7.99902 -61.333 7.99902 -88v-104h-147v715h173v-302c0 -45.333 18.333 -68 55 -68c35.333 0 62.333 13.5 81 40.5s28 60.833 28 101.5v228h173v-515h-166v50l2 27h-3c-1.33301 -2.66699 -3.16602 -6 -5.49902 -10s-8 -11 -17 -21s-19 -19 -30 -27
s-26.167 -15.167 -45.5 -21.5s-40 -9.5 -62 -9.5c-15.333 0 -29.333 1.33301 -42 4h-2z" />
    <glyph glyph-name="mu" unicode="&#x3bc;" horiz-adv-x="632" 
d="M208 -8c5.33301 -32 7.99902 -61.333 7.99902 -88v-104h-147v715h173v-302c0 -45.333 18.333 -68 55 -68c35.333 0 62.333 13.5 81 40.5s28 60.833 28 101.5v228h173v-515h-166v50l2 27h-3c-1.33301 -2.66699 -3.16602 -6 -5.49902 -10s-8 -11 -17 -21s-19 -19 -30 -27
s-26.167 -15.167 -45.5 -21.5s-40 -9.5 -62 -9.5c-15.333 0 -29.333 1.33301 -42 4h-2z" />
    <glyph glyph-name="paragraph" unicode="&#xb6;" horiz-adv-x="671" 
d="M265 -50v291c-64.667 0 -119.667 23 -165 69s-68 102.333 -68 169s22.667 122.667 68 168s100.333 68 165 68h357v-150h-237v-615h-120zM447 -50v565h120v-565h-120z" />
    <glyph glyph-name="periodcentered" unicode="&#xb7;" horiz-adv-x="276" 
d="M59 213v164h158v-164h-158z" />
    <glyph glyph-name="cedilla" unicode="&#xb8;" horiz-adv-x="484" 
d="M164 -82l35.002 111l72 -17v-7l-10 -41c50 -5.33301 75 -32 75 -80c0 -33.333 -11.333 -57.333 -34 -72s-50.334 -22 -83.001 -22c-24.667 0 -48.334 3 -71.001 9v87c12 -6.66699 27 -10 45 -10c25.333 0 38 7.66699 38 23c0 14 -13.667 21 -41 21z" />
    <glyph glyph-name="onesuperior" unicode="&#xb9;" horiz-adv-x="400" 
d="M57 423v108h89v143l3 32h-2c-3.33301 -6.66699 -7 -11.667 -11 -15l-24 -22l-72 79l124 116h108v-333h90v-108h-305z" />
    <glyph glyph-name="ordmasculine" unicode="&#xba;" horiz-adv-x="476" 
d="M238 385c-51.333 0 -94.501 15.833 -129.501 47.5s-52.5 72.5 -52.5 122.5s17.5 90.833 52.5 122.5s77.833 47.5 128.5 47.5c52 0 95.667 -15.833 131 -47.5s53 -72.5 53 -122.5s-17.667 -90.833 -53 -122.5s-78.666 -47.5 -129.999 -47.5zM237.999 488
c17.333 0 32.166 6 44.499 18s18.5 28.333 18.5 49c0 20 -6.16699 36.333 -18.5 49s-27.166 19 -44.499 19s-32.166 -6.33301 -44.499 -19s-18.5 -29 -18.5 -49c0 -20.667 6.16699 -37 18.5 -49s27.166 -18 44.499 -18zM68.999 268v85h338v-85h-338z" />
    <glyph glyph-name="guillemotright" unicode="&#xbb;" horiz-adv-x="654" 
d="M300 77l164 205l-164 206h158l164 -206l-164 -205h-158zM40 77l164 205l-164 206h158l164 -206l-164 -205h-158z" />
    <glyph glyph-name="onequarter" unicode="&#xbc;" horiz-adv-x="1013" 
d="M802 0v87h-197v84l171 270h150v-247h53v-107h-53v-87h-124zM724 194h78v90l4 50h-2c-6 -18 -13 -33.333 -21 -46l-59 -92v-2zM394 0h-119l336 715h119zM53 274v108h89v143l3 32h-2c-3.33301 -6.66699 -7 -11.667 -11 -15l-24 -22l-72 79l124 116h108v-333h90v-108h-305z
" />
    <glyph glyph-name="onehalf" unicode="&#xbd;" horiz-adv-x="1004" 
d="M396 0h-119l336 715h119zM51 274v108h89v143l3 32h-2c-3.33301 -6.66699 -7 -11.667 -11 -15l-24 -22l-72 79l124 116h108v-333h90v-108h-305zM640 0c-3.33301 18.667 -5.00098 35.001 -5.00098 49.001c0 33.333 6.83301 62.666 20.5 87.999s30.167 45.166 49.5 59.499
s38.833 27 58.5 38s36.334 22 50.001 33s20.5 22.5 20.5 34.5c0 10.667 -4.33301 19 -13 25s-19.334 9 -32.001 9c-23.333 0 -47 -15 -71 -45l-83 71c16 26.667 38.833 48.167 68.5 64.5s61.167 24.5 94.5 24.5c42.667 0 80.5 -12.167 113.5 -36.5s49.5 -59.833 49.5 -106.5
c0 -31.333 -9.16699 -59.166 -27.5 -83.499s-38.666 -42 -60.999 -53s-43.5 -22.167 -63.5 -33.5s-31 -21.333 -33 -30h191v-108h-327z" />
    <glyph glyph-name="threequarters" unicode="&#xbe;" horiz-adv-x="1020" 
d="M193 264c-68 0 -121.333 22.667 -160 68l61 90c23.333 -28.667 53.666 -43 90.999 -43c16.667 0 29.834 4 39.501 12s14.5 18 14.5 30s-5.83301 21 -17.5 27s-26.5 9 -44.5 9h-37l-24 57l62 69l24 23v2c-14 -1.33301 -25.333 -2 -34 -2h-110v109h294v-79l-83 -91
c64.667 -16 97 -58 97 -126c0 -41.333 -15.333 -77.5 -46 -108.5s-73 -46.5 -127 -46.5zM399 0h-119l336 715h119zM807 0v87h-197v84l171 270h150v-247h53v-107h-53v-87h-124zM729 194h78v90l4 50h-2c-6 -18 -13 -33.333 -21 -46l-59 -92v-2z" />
    <glyph glyph-name="questiondown" unicode="&#xbf;" horiz-adv-x="503" 
d="M371 294l-0.000976562 -50.001c0 -24.667 -5.33301 -47.5 -16 -68.5s-23.834 -38.333 -39.501 -52l-46.5 -39c-15.333 -12.333 -28.333 -25.5 -39 -39.5s-16 -28.667 -16 -44c0 -16.667 7 -30.667 21 -42s30.667 -17 50 -17c30.667 0 62.334 14.333 95.001 43l96 -117
c-55.333 -55.333 -125 -83 -209 -83c-61.333 0 -115.5 17.5 -162.5 52.5s-70.5 82.833 -70.5 143.5c0 30 5.83301 57.5 17.5 82.5s26 45.333 43 61s33.833 30.334 50.5 44.001s30.834 28 42.501 43s17.5 30.5 17.5 46.5v36h166zM366.999 514.999v-150h-158v150h158z" />
    <glyph glyph-name="Agrave" unicode="&#xc0;" horiz-adv-x="664" 
d="M-3 0l243 715h184l243 -715h-180l-44 150h-223l-43 -150h-180zM261 290h141.001l-40 139l-29 123h-2c-10.667 -52 -20.334 -93 -29.001 -123zM270.001 761l-118 150h171l81 -150h-134z" />
    <glyph glyph-name="Aacute" unicode="&#xc1;" horiz-adv-x="664" 
d="M-3 0l243 715h184l243 -715h-180l-44 150h-223l-43 -150h-180zM261 290h141.001l-40 139l-29 123h-2c-10.667 -52 -20.334 -93 -29.001 -123zM260.001 761l81 150h171l-118 -150h-134z" />
    <glyph glyph-name="Acircumflex" unicode="&#xc2;" horiz-adv-x="664" 
d="M-3 0l243 715h184l243 -715h-180l-44 150h-223l-43 -150h-180zM261 290h141.001l-40 139l-29 123h-2c-10.667 -52 -20.334 -93 -29.001 -123zM149.001 761l99 150h168l99 -150h-135l-47 82h-2l-47 -82h-135z" />
    <glyph glyph-name="Atilde" unicode="&#xc3;" horiz-adv-x="664" 
d="M-3 0l243 715h184l243 -715h-180l-44 150h-223l-43 -150h-180zM261 290h141.001l-40 139l-29 123h-2c-10.667 -52 -20.334 -93 -29.001 -123zM131.001 761c0 102 42.667 153 128 153c19.333 0 36.666 -5 51.999 -15s29 -20 41 -30s23 -15 33 -15c24.667 0 37 19 37 57
h112c0 -102 -42.667 -153 -128 -153c-19.333 0 -36.666 5 -51.999 15s-29 20 -41 30s-23 15 -33 15c-24.667 0 -37 -19 -37 -57h-112z" />
    <glyph glyph-name="Adieresis" unicode="&#xc4;" horiz-adv-x="664" 
d="M-3 0l243 715h184l243 -715h-180l-44 150h-223l-43 -150h-180zM261 290h141.001l-40 139l-29 123h-2c-10.667 -52 -20.334 -93 -29.001 -123zM374.001 771v140h126v-140h-126zM165.001 771v140h126v-140h-126z" />
    <glyph glyph-name="Aring" unicode="&#xc5;" horiz-adv-x="664" 
d="M-3 0l243 715h184l243 -715h-180l-44 150h-223l-43 -150h-180zM261 290h141.001l-40 139l-29 123h-2c-10.667 -52 -20.334 -93 -29.001 -123zM332.001 747c-29.333 0 -54.833 7.33301 -76.5 22s-32.5 35.667 -32.5 63s10.833 48.5 32.5 63.5s47.167 22.5 76.5 22.5
s55 -7.5 77 -22.5s33 -36.167 33 -63.5s-11 -48.333 -33 -63s-47.667 -22 -77 -22zM332.001 797c10.667 0 19.167 3.16699 25.5 9.5s9.5 14.833 9.5 25.5s-3.16699 19.334 -9.5 26.001s-14.833 10 -25.5 10c-10 0 -18.167 -3.33301 -24.5 -10s-9.5 -15.334 -9.5 -26.001
s3 -19.167 9 -25.5s14.333 -9.5 25 -9.5z" />
    <glyph glyph-name="AE" unicode="&#xc6;" horiz-adv-x="949" 
d="M-10 0l299 715h610v-150h-273v-130h218v-150h-218v-135h286v-150h-461v288h-168l-111 -288h-182zM337 428h114v137h-61z" />
    <glyph glyph-name="Ccedilla" unicode="&#xc7;" horiz-adv-x="714" 
d="M334 -82l23.0039 73c-98 11.333 -175.833 50.833 -233.5 118.5s-86.5 150.834 -86.5 249.501c0 105.333 35.167 193 105.5 263s160.166 105 269.499 105c50 0 98.667 -8.5 146 -25.5s88 -42.167 122 -75.5l-81 -132c-24 21.333 -52.167 38.833 -84.5 52.5
s-63.833 20.5 -94.5 20.5c-66.667 0 -117 -19.833 -151 -59.5s-51 -87.834 -51 -144.501c0 -58 17.5 -108.333 52.5 -151s84.833 -64 149.5 -64c68 0 131.333 29.333 190 88l90 -128c-70.667 -73.333 -158.334 -113 -263.001 -119l-6 -25c50 -5.33301 75 -32 75 -80
c0 -33.333 -11.333 -57.333 -34 -72s-50.334 -22 -83.001 -22c-24.667 0 -48.334 3 -71.001 9v87c12 -6.66699 27 -10 45 -10c25.333 0 38 7.66699 38 23c0 14 -13.667 21 -41 21z" />
    <glyph glyph-name="Egrave" unicode="&#xc8;" horiz-adv-x="574" 
d="M75 0v715h448v-150h-273v-130h218v-150h-218v-135h287v-150h-462zM245 761l-118 150h171l81 -150h-134z" />
    <glyph glyph-name="Eacute" unicode="&#xc9;" horiz-adv-x="574" 
d="M75 0v715h448v-150h-273v-130h218v-150h-218v-135h287v-150h-462zM235 761l81 150h171l-118 -150h-134z" />
    <glyph glyph-name="Ecircumflex" unicode="&#xca;" horiz-adv-x="574" 
d="M75 0v715h448v-150h-273v-130h218v-150h-218v-135h287v-150h-462zM124 761l99 150h168l99 -150h-135l-47 82h-2l-47 -82h-135z" />
    <glyph glyph-name="Edieresis" unicode="&#xcb;" horiz-adv-x="574" 
d="M75 0v715h448v-150h-273v-130h218v-150h-218v-135h287v-150h-462zM349 771v140h126v-140h-126zM140 771v140h126v-140h-126z" />
    <glyph glyph-name="Igrave" unicode="&#xcc;" horiz-adv-x="325" 
d="M75 0v715h175v-715h-175zM101 761l-118 150h171l81 -150h-134z" />
    <glyph glyph-name="Iacute" unicode="&#xcd;" horiz-adv-x="325" 
d="M75 0v715h175v-715h-175zM91 761l81 150h171l-118 -150h-134z" />
    <glyph glyph-name="Icircumflex" unicode="&#xce;" horiz-adv-x="325" 
d="M75 0v715h175v-715h-175zM-20 761l99 150h168l99 -150h-135l-47 82h-2l-47 -82h-135z" />
    <glyph glyph-name="Idieresis" unicode="&#xcf;" horiz-adv-x="325" 
d="M75 0v715h175v-715h-175zM205 771v140h126v-140h-126zM-4 771v140h126v-140h-126z" />
    <glyph glyph-name="Eth" unicode="&#xd0;" horiz-adv-x="742" 
d="M80 0v284h-57v140h57v291h254c113.333 0 203.166 -31.5 269.499 -94.5s99.5 -150.167 99.5 -261.5c0 -112 -33.167 -199.833 -99.5 -263.5s-156.166 -95.5 -269.499 -95.5h-254zM255 150h72.002c61.333 0 109.166 18 143.499 54s51.5 87.667 51.5 155
c0 66.667 -17.333 117.667 -52 153s-82.334 53 -143.001 53h-72v-141h104v-140h-104v-134z" />
    <glyph glyph-name="Ntilde" unicode="&#xd1;" horiz-adv-x="754" 
d="M75 0v715h177l198 -334c8 -14 17 -31.167 27 -51.5s18 -37.166 24 -50.499l9 -20h2c-5.33301 51.333 -8 92 -8 122v334h175v-715h-176l-199 333c-8 14 -17 31.167 -27 51.5s-18 37.166 -24 50.499l-9 20h-2c5.33301 -51.333 8 -92 8 -122v-333h-175zM176 761
c0 102 42.667 153 128 153c19.333 0 36.666 -5 51.999 -15s29 -20 41 -30s23 -15 33 -15c24.667 0 37 19 37 57h112c0 -102 -42.667 -153 -128 -153c-19.333 0 -36.666 5 -51.999 15s-29 20 -41 30s-23 15 -33 15c-24.667 0 -37 -19 -37 -57h-112z" />
    <glyph glyph-name="Ograve" unicode="&#xd2;" horiz-adv-x="820" 
d="M36 362c0 104 35 190.833 105 260.5s159.667 104.5 269 104.5s199 -34.833 269 -104.5s105 -156.5 105 -260.5c0 -106.667 -35 -195.667 -105 -267s-159.667 -107 -269 -107s-199 35.667 -269 107s-105 160.333 -105 267zM217 362c0 -61.333 18.167 -112.333 54.5 -153
s82.5 -61 138.5 -61s102.167 20.333 138.5 61s54.5 91.667 54.5 153c0 58.667 -18.167 107.5 -54.5 146.5s-82.5 58.5 -138.5 58.5s-102.167 -19.5 -138.5 -58.5s-54.5 -87.833 -54.5 -146.5zM348 761l-118 150h171l81 -150h-134z" />
    <glyph glyph-name="Oacute" unicode="&#xd3;" horiz-adv-x="820" 
d="M36 362c0 104 35 190.833 105 260.5s159.667 104.5 269 104.5s199 -34.833 269 -104.5s105 -156.5 105 -260.5c0 -106.667 -35 -195.667 -105 -267s-159.667 -107 -269 -107s-199 35.667 -269 107s-105 160.333 -105 267zM217 362c0 -61.333 18.167 -112.333 54.5 -153
s82.5 -61 138.5 -61s102.167 20.333 138.5 61s54.5 91.667 54.5 153c0 58.667 -18.167 107.5 -54.5 146.5s-82.5 58.5 -138.5 58.5s-102.167 -19.5 -138.5 -58.5s-54.5 -87.833 -54.5 -146.5zM338 761l81 150h171l-118 -150h-134z" />
    <glyph glyph-name="Ocircumflex" unicode="&#xd4;" horiz-adv-x="820" 
d="M36 362c0 104 35 190.833 105 260.5s159.667 104.5 269 104.5s199 -34.833 269 -104.5s105 -156.5 105 -260.5c0 -106.667 -35 -195.667 -105 -267s-159.667 -107 -269 -107s-199 35.667 -269 107s-105 160.333 -105 267zM217 362c0 -61.333 18.167 -112.333 54.5 -153
s82.5 -61 138.5 -61s102.167 20.333 138.5 61s54.5 91.667 54.5 153c0 58.667 -18.167 107.5 -54.5 146.5s-82.5 58.5 -138.5 58.5s-102.167 -19.5 -138.5 -58.5s-54.5 -87.833 -54.5 -146.5zM227 761l99 150h168l99 -150h-135l-47 82h-2l-47 -82h-135z" />
    <glyph glyph-name="Otilde" unicode="&#xd5;" horiz-adv-x="820" 
d="M36 362c0 104 35 190.833 105 260.5s159.667 104.5 269 104.5s199 -34.833 269 -104.5s105 -156.5 105 -260.5c0 -106.667 -35 -195.667 -105 -267s-159.667 -107 -269 -107s-199 35.667 -269 107s-105 160.333 -105 267zM217 362c0 -61.333 18.167 -112.333 54.5 -153
s82.5 -61 138.5 -61s102.167 20.333 138.5 61s54.5 91.667 54.5 153c0 58.667 -18.167 107.5 -54.5 146.5s-82.5 58.5 -138.5 58.5s-102.167 -19.5 -138.5 -58.5s-54.5 -87.833 -54.5 -146.5zM209 761c0 102 42.667 153 128 153c19.333 0 36.666 -5 51.999 -15
s29 -20 41 -30s23 -15 33 -15c24.667 0 37 19 37 57h112c0 -102 -42.667 -153 -128 -153c-19.333 0 -36.666 5 -51.999 15s-29 20 -41 30s-23 15 -33 15c-24.667 0 -37 -19 -37 -57h-112z" />
    <glyph glyph-name="Odieresis" unicode="&#xd6;" horiz-adv-x="820" 
d="M36 362c0 104 35 190.833 105 260.5s159.667 104.5 269 104.5s199 -34.833 269 -104.5s105 -156.5 105 -260.5c0 -106.667 -35 -195.667 -105 -267s-159.667 -107 -269 -107s-199 35.667 -269 107s-105 160.333 -105 267zM217 362c0 -61.333 18.167 -112.333 54.5 -153
s82.5 -61 138.5 -61s102.167 20.333 138.5 61s54.5 91.667 54.5 153c0 58.667 -18.167 107.5 -54.5 146.5s-82.5 58.5 -138.5 58.5s-102.167 -19.5 -138.5 -58.5s-54.5 -87.833 -54.5 -146.5zM452 771v140h126v-140h-126zM243 771v140h126v-140h-126z" />
    <glyph glyph-name="multiply" unicode="&#xd7;" 
d="M28 92l182 195l-182 196l92 92l179 -192l180 192l92 -92l-183 -196l183 -195l-92 -92l-180 192l-179 -192z" />
    <glyph glyph-name="Oslash" unicode="&#xd8;" horiz-adv-x="819" 
d="M104 20l48 66c-77.333 72 -116 164 -116 276c0 103.333 35.5 190 106.5 260s160.167 105 267.5 105c65.333 0 124 -13.333 176 -40l41 56l70 -47l-40 -55c84.667 -72 127 -165 127 -279c0 -106 -35.5 -194.833 -106.5 -266.5s-160.167 -107.5 -267.5 -107.5
c-70 0 -133.333 16 -190 48l-46 -64zM256 230l232 320c-24.667 11.333 -50.667 17 -78 17c-54 0 -99.667 -19.5 -137 -58.5s-56 -87.833 -56 -146.5c0 -51.333 13 -95.333 39 -132zM318 172c28.667 -16 59.333 -24 92 -24c54 0 99.667 20.333 137 61s56 91.667 56 153
c0 54 -16 99.667 -48 137z" />
    <glyph glyph-name="Ugrave" unicode="&#xd9;" horiz-adv-x="732" 
d="M67 263v452h175v-452c0 -36.667 11.167 -65 33.5 -85s52.5 -30 90.5 -30s68.167 10 90.5 30s33.5 48.333 33.5 85v452h175v-452c0 -81.333 -27.333 -147.5 -82 -198.5s-126.667 -76.5 -216 -76.5c-90 0 -162.5 25.5 -217.5 76.5s-82.5 117.167 -82.5 198.5zM304 761
l-118 150h171l81 -150h-134z" />
    <glyph glyph-name="Uacute" unicode="&#xda;" horiz-adv-x="732" 
d="M67 263v452h175v-452c0 -36.667 11.167 -65 33.5 -85s52.5 -30 90.5 -30s68.167 10 90.5 30s33.5 48.333 33.5 85v452h175v-452c0 -81.333 -27.333 -147.5 -82 -198.5s-126.667 -76.5 -216 -76.5c-90 0 -162.5 25.5 -217.5 76.5s-82.5 117.167 -82.5 198.5zM294 761
l81 150h171l-118 -150h-134z" />
    <glyph glyph-name="Ucircumflex" unicode="&#xdb;" horiz-adv-x="732" 
d="M67 263v452h175v-452c0 -36.667 11.167 -65 33.5 -85s52.5 -30 90.5 -30s68.167 10 90.5 30s33.5 48.333 33.5 85v452h175v-452c0 -81.333 -27.333 -147.5 -82 -198.5s-126.667 -76.5 -216 -76.5c-90 0 -162.5 25.5 -217.5 76.5s-82.5 117.167 -82.5 198.5zM183 761
l99 150h168l99 -150h-135l-47 82h-2l-47 -82h-135z" />
    <glyph glyph-name="Udieresis" unicode="&#xdc;" horiz-adv-x="732" 
d="M67 263v452h175v-452c0 -36.667 11.167 -65 33.5 -85s52.5 -30 90.5 -30s68.167 10 90.5 30s33.5 48.333 33.5 85v452h175v-452c0 -81.333 -27.333 -147.5 -82 -198.5s-126.667 -76.5 -216 -76.5c-90 0 -162.5 25.5 -217.5 76.5s-82.5 117.167 -82.5 198.5zM408 771v140
h126v-140h-126zM199 771v140h126v-140h-126z" />
    <glyph glyph-name="Yacute" unicode="&#xdd;" horiz-adv-x="627" 
d="M226 0l0.000976562 293l-236 422h199l81 -172l43 -103h2c13.333 36 27.666 70.333 42.999 103l80 172h199l-236 -422v-293h-175zM242.001 761l81 150h171l-118 -150h-134z" />
    <glyph glyph-name="Thorn" unicode="&#xde;" horiz-adv-x="629" 
d="M75 0v715h175v-106h122c69.333 0 125.5 -23 168.5 -69s64.5 -105 64.5 -177c0 -72.667 -21.5 -132.167 -64.5 -178.5s-99.167 -69.5 -168.5 -69.5h-122v-115h-175zM250 265l86 0.000976562c29.333 0 51.833 9 67.5 27s23.5 41.667 23.5 71s-7.66699 52.666 -23 69.999
s-37 26 -65 26h-89v-194z" />
    <glyph glyph-name="germandbls" unicode="&#xdf;" horiz-adv-x="624" 
d="M58 0l-0.000976562 527.003c0 62.667 25 111.667 75 147s110 53 180 53c62.667 0 116.834 -18.167 162.501 -54.5s68.5 -82.5 68.5 -138.5c0 -22.667 -6 -43.5 -18 -62.5s-24 -36.333 -36 -52s-18 -30.834 -18 -45.501c0 -10.667 7 -22.5 21 -35.5s29.333 -25.667 46 -38
s32 -30.333 46 -54s21 -49.834 21 -78.501c0 -56 -18.667 -99.167 -56 -129.5s-83.333 -45.5 -138 -45.5c-52 0 -93.333 7 -124 21v142c33.333 -12.667 65 -19 95 -19c33.333 0 50 14 50 42c0 10 -7 21.333 -21 34s-29.5 25 -46.5 37s-32.5 28.667 -46.5 50
s-21 44.666 -21 69.999c0 20.667 6 40.667 18 60s24 37.333 36 54s18 32 18 46c0 16 -5.5 28.833 -16.5 38.5s-26.167 14.5 -45.5 14.5c-51.333 0 -77 -22.667 -77 -68v-515h-173z" />
    <glyph glyph-name="agrave" unicode="&#xe0;" horiz-adv-x="553" 
d="M22 145c0 32.667 8.99902 60.9971 26.999 84.9971s41.833 42.333 71.5 55s60.5 21.834 92.5 27.501s65.333 8.5 100 8.5h15v9c0 38 -24.333 57 -73 57c-45.333 0 -92.666 -16.333 -141.999 -49l-60 122c23.333 18 55.5 33.667 96.5 47s81.5 20 121.5 20
c71.333 0 127.5 -18.667 168.5 -56s61.5 -88.666 61.5 -153.999v-317h-158v31l2 32h-2c-16.667 -23.333 -38.834 -41.666 -66.501 -54.999s-56.5 -20 -86.5 -20c-49.333 0 -89.666 15 -120.999 45s-47 67.333 -47 112zM192.999 160.997c0 -12.667 4.33301 -23.167 13 -31.5
s20.667 -12.5 36 -12.5c24 0 44.667 9.66699 62 29s26 40 26 62v14h-16c-32 0 -60.167 -4.83301 -84.5 -14.5s-36.5 -25.167 -36.5 -46.5zM214.999 564.997l-118 150h171l81 -150h-134z" />
    <glyph glyph-name="aacute" unicode="&#xe1;" horiz-adv-x="553" 
d="M22 145c0 32.667 8.99902 60.9971 26.999 84.9971s41.833 42.333 71.5 55s60.5 21.834 92.5 27.501s65.333 8.5 100 8.5h15v9c0 38 -24.333 57 -73 57c-45.333 0 -92.666 -16.333 -141.999 -49l-60 122c23.333 18 55.5 33.667 96.5 47s81.5 20 121.5 20
c71.333 0 127.5 -18.667 168.5 -56s61.5 -88.666 61.5 -153.999v-317h-158v31l2 32h-2c-16.667 -23.333 -38.834 -41.666 -66.501 -54.999s-56.5 -20 -86.5 -20c-49.333 0 -89.666 15 -120.999 45s-47 67.333 -47 112zM192.999 160.997c0 -12.667 4.33301 -23.167 13 -31.5
s20.667 -12.5 36 -12.5c24 0 44.667 9.66699 62 29s26 40 26 62v14h-16c-32 0 -60.167 -4.83301 -84.5 -14.5s-36.5 -25.167 -36.5 -46.5zM203.999 564.997l81 150h171l-118 -150h-134z" />
    <glyph glyph-name="acircumflex" unicode="&#xe2;" horiz-adv-x="553" 
d="M22 145c0 32.667 8.99902 60.9971 26.999 84.9971s41.833 42.333 71.5 55s60.5 21.834 92.5 27.501s65.333 8.5 100 8.5h15v9c0 38 -24.333 57 -73 57c-45.333 0 -92.666 -16.333 -141.999 -49l-60 122c23.333 18 55.5 33.667 96.5 47s81.5 20 121.5 20
c71.333 0 127.5 -18.667 168.5 -56s61.5 -88.666 61.5 -153.999v-317h-158v31l2 32h-2c-16.667 -23.333 -38.834 -41.666 -66.501 -54.999s-56.5 -20 -86.5 -20c-49.333 0 -89.666 15 -120.999 45s-47 67.333 -47 112zM192.999 160.997c0 -12.667 4.33301 -23.167 13 -31.5
s20.667 -12.5 36 -12.5c24 0 44.667 9.66699 62 29s26 40 26 62v14h-16c-32 0 -60.167 -4.83301 -84.5 -14.5s-36.5 -25.167 -36.5 -46.5zM92.999 564.997l99 150h168l99 -150h-135l-47 82h-2l-47 -82h-135z" />
    <glyph glyph-name="atilde" unicode="&#xe3;" horiz-adv-x="553" 
d="M22 145c0 32.667 8.99902 60.9971 26.999 84.9971s41.833 42.333 71.5 55s60.5 21.834 92.5 27.501s65.333 8.5 100 8.5h15v9c0 38 -24.333 57 -73 57c-45.333 0 -92.666 -16.333 -141.999 -49l-60 122c23.333 18 55.5 33.667 96.5 47s81.5 20 121.5 20
c71.333 0 127.5 -18.667 168.5 -56s61.5 -88.666 61.5 -153.999v-317h-158v31l2 32h-2c-16.667 -23.333 -38.834 -41.666 -66.501 -54.999s-56.5 -20 -86.5 -20c-49.333 0 -89.666 15 -120.999 45s-47 67.333 -47 112zM192.999 160.997c0 -12.667 4.33301 -23.167 13 -31.5
s20.667 -12.5 36 -12.5c24 0 44.667 9.66699 62 29s26 40 26 62v14h-16c-32 0 -60.167 -4.83301 -84.5 -14.5s-36.5 -25.167 -36.5 -46.5zM74.999 564.997c0 102 42.667 153 128 153c19.333 0 36.666 -5 51.999 -15s29 -20 41 -30s23 -15 33 -15c24.667 0 37 19 37 57h112
c0 -102 -42.667 -153 -128 -153c-19.333 0 -36.666 5 -51.999 15s-29 20 -41 30s-23 15 -33 15c-24.667 0 -37 -19 -37 -57h-112z" />
    <glyph glyph-name="adieresis" unicode="&#xe4;" horiz-adv-x="553" 
d="M22 145c0 32.667 8.99902 60.9971 26.999 84.9971s41.833 42.333 71.5 55s60.5 21.834 92.5 27.501s65.333 8.5 100 8.5h15v9c0 38 -24.333 57 -73 57c-45.333 0 -92.666 -16.333 -141.999 -49l-60 122c23.333 18 55.5 33.667 96.5 47s81.5 20 121.5 20
c71.333 0 127.5 -18.667 168.5 -56s61.5 -88.666 61.5 -153.999v-317h-158v31l2 32h-2c-16.667 -23.333 -38.834 -41.666 -66.501 -54.999s-56.5 -20 -86.5 -20c-49.333 0 -89.666 15 -120.999 45s-47 67.333 -47 112zM192.999 160.997c0 -12.667 4.33301 -23.167 13 -31.5
s20.667 -12.5 36 -12.5c24 0 44.667 9.66699 62 29s26 40 26 62v14h-16c-32 0 -60.167 -4.83301 -84.5 -14.5s-36.5 -25.167 -36.5 -46.5zM317.999 574.997v140h126v-140h-126zM108.999 574.997v140h126v-140h-126z" />
    <glyph glyph-name="aring" unicode="&#xe5;" horiz-adv-x="553" 
d="M22 145c0 32.667 8.99902 60.9971 26.999 84.9971s41.833 42.333 71.5 55s60.5 21.834 92.5 27.501s65.333 8.5 100 8.5h15v9c0 38 -24.333 57 -73 57c-45.333 0 -92.666 -16.333 -141.999 -49l-60 122c23.333 18 55.5 33.667 96.5 47s81.5 20 121.5 20
c71.333 0 127.5 -18.667 168.5 -56s61.5 -88.666 61.5 -153.999v-317h-158v31l2 32h-2c-16.667 -23.333 -38.834 -41.666 -66.501 -54.999s-56.5 -20 -86.5 -20c-49.333 0 -89.666 15 -120.999 45s-47 67.333 -47 112zM192.999 160.997c0 -12.667 4.33301 -23.167 13 -31.5
s20.667 -12.5 36 -12.5c24 0 44.667 9.66699 62 29s26 40 26 62v14h-16c-32 0 -60.167 -4.83301 -84.5 -14.5s-36.5 -25.167 -36.5 -46.5zM275.999 550.997c-29.333 0 -54.833 7.33301 -76.5 22s-32.5 35.667 -32.5 63s10.833 48.5 32.5 63.5s47.167 22.5 76.5 22.5
s55 -7.5 77 -22.5s33 -36.167 33 -63.5s-11 -48.333 -33 -63s-47.667 -22 -77 -22zM275.999 600.997c10.667 0 19.167 3.16699 25.5 9.5s9.5 14.833 9.5 25.5s-3.16699 19.334 -9.5 26.001s-14.833 10 -25.5 10c-10 0 -18.167 -3.33301 -24.5 -10s-9.5 -15.334 -9.5 -26.001
s3 -19.167 9 -25.5s14.333 -9.5 25 -9.5z" />
    <glyph glyph-name="ae" unicode="&#xe6;" horiz-adv-x="853" 
d="M22 154c0 29.333 8.00684 54.835 24.0068 76.502s35.167 38.167 57.5 49.5s48.666 20.5 78.999 27.5s56.166 11.333 77.499 13s42.666 2.5 63.999 2.5h4v7c0 38 -25.333 57 -76 57c-43.333 0 -90 -16.333 -140 -49l-60 121c24 19.333 56 35.5 96 48.5s79 19.5 117 19.5
c70.667 0 125 -17 163 -51h2c41.333 34 92.666 51 153.999 51c72 0 129.667 -23.833 173 -71.5s65 -108.5 65 -182.5c0 -8.66699 -1.33301 -25 -4 -49h-325c6 -30.667 20.167 -53.667 42.5 -69s48.166 -23 77.499 -23c48 0 95.333 17 142 51l64 -120
c-25.333 -22.667 -58.333 -40.834 -99 -54.501s-81 -20.5 -121 -20.5c-88.667 0 -157.667 30 -207 90h-2c-10.667 -19.333 -32.334 -39 -65.001 -59s-75.334 -30 -128.001 -30c-49.333 0 -90.833 15.167 -124.5 45.5s-50.5 70.166 -50.5 119.499zM497.007 323.002h151
c0 19.333 -6 36.5 -18 51.5s-27.333 22.5 -46 22.5c-45.333 0 -74.333 -24.667 -87 -74zM196.007 163.002c0 -28.667 16.999 -43 50.999 -43c22.667 0 42.334 9.83301 59.001 29.5s25 40.5 25 62.5v12h-17c-30.667 0 -58 -5.33301 -82 -16s-36 -25.667 -36 -45z" />
    <glyph glyph-name="ccedilla" unicode="&#xe7;" horiz-adv-x="552" 
d="M235 -82l23.001 74.999c-71.333 11.333 -127.333 41.833 -168 91.5s-61 107.5 -61 173.5c0 73.333 25.833 136.5 77.5 189.5s121.5 79.5 209.5 79.5c38.667 0 76.5 -6.5 113.5 -19.5s67.5 -32.5 91.5 -58.5l-73 -116c-34.667 33.333 -75 50 -121 50
c-38.667 0 -68.834 -12.167 -90.501 -36.5s-32.5 -53.166 -32.5 -86.499c0 -34 11.333 -63.833 34 -89.5s54.334 -38.5 95.001 -38.5c46 0 93 20.667 141 62l63 -121c-49.333 -50.667 -115.666 -78.667 -198.999 -84l-6 -25c50 -5.33301 75 -32 75 -80
c0 -33.333 -11.333 -57.333 -34 -72s-50.334 -22 -83.001 -22c-24.667 0 -48.334 3 -71.001 9v87c12 -6.66699 27 -10 45 -10c25.333 0 38 7.66699 38 23c0 14 -13.667 21 -41 21z" />
    <glyph glyph-name="egrave" unicode="&#xe8;" horiz-adv-x="567" 
d="M29 258c0 77.333 24.334 141.499 73.001 192.499s113.667 76.5 195 76.5c74 0 132.167 -23.167 174.5 -69.5s63.5 -106.166 63.5 -179.499c0 -12 -1.33301 -30 -4 -54h-325c6 -30 20.167 -52.833 42.5 -68.5s48.166 -23.5 77.499 -23.5c42.667 0 90 17.333 142 52
l64 -121c-27.333 -23.333 -60.833 -41.666 -100.5 -54.999s-79.5 -20 -119.5 -20c-87.333 0 -156.333 26.667 -207 80s-76 116.666 -76 189.999zM210.001 322.999h154c0 22 -6.5 40.333 -19.5 55s-30.167 22 -51.5 22c-44 0 -71.667 -25.667 -83 -77zM232.001 564.999
l-118 150h171l81 -150h-134z" />
    <glyph glyph-name="eacute" unicode="&#xe9;" horiz-adv-x="567" 
d="M29 258c0 77.333 24.334 141.499 73.001 192.499s113.667 76.5 195 76.5c74 0 132.167 -23.167 174.5 -69.5s63.5 -106.166 63.5 -179.499c0 -12 -1.33301 -30 -4 -54h-325c6 -30 20.167 -52.833 42.5 -68.5s48.166 -23.5 77.499 -23.5c42.667 0 90 17.333 142 52
l64 -121c-27.333 -23.333 -60.833 -41.666 -100.5 -54.999s-79.5 -20 -119.5 -20c-87.333 0 -156.333 26.667 -207 80s-76 116.666 -76 189.999zM210.001 322.999h154c0 22 -6.5 40.333 -19.5 55s-30.167 22 -51.5 22c-44 0 -71.667 -25.667 -83 -77zM221.001 564.999
l81 150h171l-118 -150h-134z" />
    <glyph glyph-name="ecircumflex" unicode="&#xea;" horiz-adv-x="567" 
d="M29 258c0 77.333 24.334 141.499 73.001 192.499s113.667 76.5 195 76.5c74 0 132.167 -23.167 174.5 -69.5s63.5 -106.166 63.5 -179.499c0 -12 -1.33301 -30 -4 -54h-325c6 -30 20.167 -52.833 42.5 -68.5s48.166 -23.5 77.499 -23.5c42.667 0 90 17.333 142 52
l64 -121c-27.333 -23.333 -60.833 -41.666 -100.5 -54.999s-79.5 -20 -119.5 -20c-87.333 0 -156.333 26.667 -207 80s-76 116.666 -76 189.999zM210.001 322.999h154c0 22 -6.5 40.333 -19.5 55s-30.167 22 -51.5 22c-44 0 -71.667 -25.667 -83 -77zM110.001 564.999
l99 150h168l99 -150h-135l-47 82h-2l-47 -82h-135z" />
    <glyph glyph-name="edieresis" unicode="&#xeb;" horiz-adv-x="567" 
d="M29 258c0 77.333 24.334 141.499 73.001 192.499s113.667 76.5 195 76.5c74 0 132.167 -23.167 174.5 -69.5s63.5 -106.166 63.5 -179.499c0 -12 -1.33301 -30 -4 -54h-325c6 -30 20.167 -52.833 42.5 -68.5s48.166 -23.5 77.499 -23.5c42.667 0 90 17.333 142 52
l64 -121c-27.333 -23.333 -60.833 -41.666 -100.5 -54.999s-79.5 -20 -119.5 -20c-87.333 0 -156.333 26.667 -207 80s-76 116.666 -76 189.999zM210.001 322.999h154c0 22 -6.5 40.333 -19.5 55s-30.167 22 -51.5 22c-44 0 -71.667 -25.667 -83 -77zM335.001 574.999v140
h126v-140h-126zM126.001 574.999v140h126v-140h-126z" />
    <glyph glyph-name="igrave" unicode="&#xec;" horiz-adv-x="289" 
d="M58 0v515h173v-515h-173zM82 565l-118 150h171l81 -150h-134z" />
    <glyph glyph-name="iacute" unicode="&#xed;" horiz-adv-x="289" 
d="M58 0v515h173v-515h-173zM72 565l81 150h171l-118 -150h-134z" />
    <glyph glyph-name="icircumflex" unicode="&#xee;" horiz-adv-x="289" 
d="M58 0v515h173v-515h-173zM-39 565l99 150h168l99 -150h-135l-47 82h-2l-47 -82h-135z" />
    <glyph glyph-name="idieresis" unicode="&#xef;" horiz-adv-x="289" 
d="M58 0v515h173v-515h-173zM186 575v140h126v-140h-126zM-23 575v140h126v-140h-126z" />
    <glyph glyph-name="eth" unicode="&#xf0;" horiz-adv-x="587" 
d="M30 241c0 60.667 21.1699 112.999 63.5029 156.999s98.166 66 167.499 66c11.333 0 22.833 -0.666992 34.5 -2s20.5 -2.66602 26.5 -3.99902l8 -3h2c-16.667 25.333 -40 46.333 -70 63l-192 -79v95l92 39c-34.667 14.667 -66.334 24.667 -95.001 30l48 135
c88 -18.667 165.333 -48.334 232 -89.001l161 67v-95l-81 -34c84.667 -81.333 127 -182.666 127 -303.999c0 -28.667 -2.83301 -56.5 -8.5 -83.5s-15.334 -53.5 -29.001 -79.5s-30.5 -48.667 -50.5 -68s-45.667 -34.833 -77 -46.5s-66.333 -17.5 -105 -17.5
c-77.333 0 -139 25 -185 75s-69 109.333 -69 178zM204.003 235.999c0 -29.333 6.66699 -54.001 20 -74.001s34.333 -30 63 -30c32 0 55.5 11.5 70.5 34.5s22.5 50.833 22.5 83.5c0 24.667 -7.33301 44.5 -22 59.5s-35 22.5 -61 22.5c-30 0 -53 -9.16699 -69 -27.5
s-24 -41.166 -24 -68.499z" />
    <glyph glyph-name="ntilde" unicode="&#xf1;" horiz-adv-x="626" 
d="M58 0v515h166v-45l-2 -32h2c35.333 59.333 90 89 164 89c123.333 0 185 -64.333 185 -193v-334h-173v302c0 45.333 -19 68 -57 68c-36.667 0 -64.5 -13 -83.5 -39s-28.5 -58.667 -28.5 -98v-233h-173zM118 565c0 102 42.667 153 128 153c19.333 0 36.666 -5 51.999 -15
s29 -20 41 -30s23 -15 33 -15c24.667 0 37 19 37 57h112c0 -102 -42.667 -153 -128 -153c-19.333 0 -36.666 5 -51.999 15s-29 20 -41 30s-23 15 -33 15c-24.667 0 -37 -19 -37 -57h-112z" />
    <glyph glyph-name="ograve" unicode="&#xf2;" horiz-adv-x="642" 
d="M29 256c0 79.333 28 144.333 84 195s125 76 207 76c82.667 0 152.167 -25.167 208.5 -75.5s84.5 -115.5 84.5 -195.5c0 -79.333 -28 -143.833 -84 -193.5s-125.333 -74.5 -208 -74.5s-152 24.833 -208 74.5s-84 114.167 -84 193.5zM204 256
c0 -37.333 11.333 -67.333 34 -90s50.334 -34 83.001 -34s60.334 11.333 83.001 34s34 52.667 34 90c0 38 -11.333 68.667 -34 92s-50.334 35 -83.001 35s-60.334 -11.667 -83.001 -35s-34 -54 -34 -92zM259 565l-118 150h171l81 -150h-134z" />
    <glyph glyph-name="oacute" unicode="&#xf3;" horiz-adv-x="642" 
d="M29 256c0 79.333 28 144.333 84 195s125 76 207 76c82.667 0 152.167 -25.167 208.5 -75.5s84.5 -115.5 84.5 -195.5c0 -79.333 -28 -143.833 -84 -193.5s-125.333 -74.5 -208 -74.5s-152 24.833 -208 74.5s-84 114.167 -84 193.5zM204 256
c0 -37.333 11.333 -67.333 34 -90s50.334 -34 83.001 -34s60.334 11.333 83.001 34s34 52.667 34 90c0 38 -11.333 68.667 -34 92s-50.334 35 -83.001 35s-60.334 -11.667 -83.001 -35s-34 -54 -34 -92zM249 565l81 150h171l-118 -150h-134z" />
    <glyph glyph-name="ocircumflex" unicode="&#xf4;" horiz-adv-x="642" 
d="M29 256c0 79.333 28 144.333 84 195s125 76 207 76c82.667 0 152.167 -25.167 208.5 -75.5s84.5 -115.5 84.5 -195.5c0 -79.333 -28 -143.833 -84 -193.5s-125.333 -74.5 -208 -74.5s-152 24.833 -208 74.5s-84 114.167 -84 193.5zM204 256
c0 -37.333 11.333 -67.333 34 -90s50.334 -34 83.001 -34s60.334 11.333 83.001 34s34 52.667 34 90c0 38 -11.333 68.667 -34 92s-50.334 35 -83.001 35s-60.334 -11.667 -83.001 -35s-34 -54 -34 -92zM138 565l99 150h168l99 -150h-135l-47 82h-2l-47 -82h-135z" />
    <glyph glyph-name="otilde" unicode="&#xf5;" horiz-adv-x="642" 
d="M29 256c0 79.333 28 144.333 84 195s125 76 207 76c82.667 0 152.167 -25.167 208.5 -75.5s84.5 -115.5 84.5 -195.5c0 -79.333 -28 -143.833 -84 -193.5s-125.333 -74.5 -208 -74.5s-152 24.833 -208 74.5s-84 114.167 -84 193.5zM204 256
c0 -37.333 11.333 -67.333 34 -90s50.334 -34 83.001 -34s60.334 11.333 83.001 34s34 52.667 34 90c0 38 -11.333 68.667 -34 92s-50.334 35 -83.001 35s-60.334 -11.667 -83.001 -35s-34 -54 -34 -92zM120 565c0 102 42.667 153 128 153c19.333 0 36.666 -5 51.999 -15
s29 -20 41 -30s23 -15 33 -15c24.667 0 37 19 37 57h112c0 -102 -42.667 -153 -128 -153c-19.333 0 -36.666 5 -51.999 15s-29 20 -41 30s-23 15 -33 15c-24.667 0 -37 -19 -37 -57h-112z" />
    <glyph glyph-name="odieresis" unicode="&#xf6;" horiz-adv-x="642" 
d="M29 256c0 79.333 28 144.333 84 195s125 76 207 76c82.667 0 152.167 -25.167 208.5 -75.5s84.5 -115.5 84.5 -195.5c0 -79.333 -28 -143.833 -84 -193.5s-125.333 -74.5 -208 -74.5s-152 24.833 -208 74.5s-84 114.167 -84 193.5zM204 256
c0 -37.333 11.333 -67.333 34 -90s50.334 -34 83.001 -34s60.334 11.333 83.001 34s34 52.667 34 90c0 38 -11.333 68.667 -34 92s-50.334 35 -83.001 35s-60.334 -11.667 -83.001 -35s-34 -54 -34 -92zM363 575v140h126v-140h-126zM154 575v140h126v-140h-126z" />
    <glyph glyph-name="divide" unicode="&#xf7;" 
d="M227 440v135h146v-135h-146zM27 222v130h546v-130h-546zM227 0v135h146v-135h-146z" />
    <glyph glyph-name="oslash" unicode="&#xf8;" horiz-adv-x="642" 
d="M87 -4l38.999 55c-64.667 50.667 -97 119 -97 205c0 79.333 28 144.333 84 195s125 76 207 76c46.667 0 90.334 -8.66699 131.001 -26l42 58l66 -45l-40 -55c62.667 -52 94 -119.667 94 -203c0 -79.333 -28 -143.833 -84 -193.5s-125.333 -74.5 -208 -74.5
c-44.667 0 -86 7.66699 -124 23l-44 -61zM222.999 185l138 191c-15.333 4.66699 -28.666 7 -39.999 7c-32.667 0 -60.334 -11.667 -83.001 -35s-34 -54 -34 -92c0 -27.333 6.33301 -51 19 -71zM286.999 136c10 -2.66699 21.332 -4 33.999 -4
c32.667 0 60.334 11.333 83.001 34s34 52.667 34 90c0 24.667 -5.33301 47 -16 67z" />
    <glyph glyph-name="ugrave" unicode="&#xf9;" horiz-adv-x="621" 
d="M53 181v334h173v-302c0 -45.333 18.333 -68 55 -68c35.333 0 62.333 13.5 81 40.5s28 60.833 28 101.5v228h173v-515h-166v45l2 32h-2c-14 -27.333 -35.667 -49 -65 -65s-61.333 -24 -96 -24c-56 0 -100.5 15.167 -133.5 45.5s-49.5 79.5 -49.5 147.5zM246 565l-118 150
h171l81 -150h-134z" />
    <glyph glyph-name="uacute" unicode="&#xfa;" horiz-adv-x="621" 
d="M53 181v334h173v-302c0 -45.333 18.333 -68 55 -68c35.333 0 62.333 13.5 81 40.5s28 60.833 28 101.5v228h173v-515h-166v45l2 32h-2c-14 -27.333 -35.667 -49 -65 -65s-61.333 -24 -96 -24c-56 0 -100.5 15.167 -133.5 45.5s-49.5 79.5 -49.5 147.5zM236 565l81 150
h171l-118 -150h-134z" />
    <glyph glyph-name="ucircumflex" unicode="&#xfb;" horiz-adv-x="621" 
d="M53 181v334h173v-302c0 -45.333 18.333 -68 55 -68c35.333 0 62.333 13.5 81 40.5s28 60.833 28 101.5v228h173v-515h-166v45l2 32h-2c-14 -27.333 -35.667 -49 -65 -65s-61.333 -24 -96 -24c-56 0 -100.5 15.167 -133.5 45.5s-49.5 79.5 -49.5 147.5zM125 565l99 150
h168l99 -150h-135l-47 82h-2l-47 -82h-135z" />
    <glyph glyph-name="udieresis" unicode="&#xfc;" horiz-adv-x="621" 
d="M53 181v334h173v-302c0 -45.333 18.333 -68 55 -68c35.333 0 62.333 13.5 81 40.5s28 60.833 28 101.5v228h173v-515h-166v45l2 32h-2c-14 -27.333 -35.667 -49 -65 -65s-61.333 -24 -96 -24c-56 0 -100.5 15.167 -133.5 45.5s-49.5 79.5 -49.5 147.5zM350 575v140h126
v-140h-126zM141 575v140h126v-140h-126z" />
    <glyph glyph-name="yacute" unicode="&#xfd;" horiz-adv-x="561" 
d="M63 -47c18.667 -12.667 36.332 -19.001 52.999 -19.001c41.333 0 69 17.333 83 52l10 24l-219 505h196l76 -237l19 -80h2c6.66699 32.667 12.334 58.334 17.001 77.001l65 240h189l-211 -570c-20 -53.333 -49.5 -92.5 -88.5 -117.5s-81.167 -37.5 -126.5 -37.5
c-20 0 -40 3 -60 9s-35 12 -45 18l-15 9zM209.998 563.999l81 150h171l-118 -150h-134z" />
    <glyph glyph-name="thorn" unicode="&#xfe;" horiz-adv-x="631" 
d="M58 -200l0.000976562 914.999h173v-197l-2 -44h2c32 35.333 76.667 53 134 53c70 0 126.833 -25.5 170.5 -76.5s65.5 -115.167 65.5 -192.5s-21.833 -141.666 -65.5 -192.999s-100.5 -77 -170.5 -77c-60.667 0 -105.334 16 -134.001 48h-2c1.33301 -12 2 -26.667 2 -44
v-192h-173zM226.001 256.999c0 -83.333 34.667 -124.999 104 -124.999c29.333 0 52.833 12.167 70.5 36.5s26.5 54.166 26.5 89.499s-8.83301 65 -26.5 89s-41.167 36 -70.5 36c-69.333 0 -104 -42 -104 -126z" />
    <glyph glyph-name="ydieresis" unicode="&#xff;" horiz-adv-x="561" 
d="M63 -47c18.667 -12.667 36.332 -19.001 52.999 -19.001c41.333 0 69 17.333 83 52l10 24l-219 505h196l76 -237l19 -80h2c6.66699 32.667 12.334 58.334 17.001 77.001l65 240h189l-211 -570c-20 -53.333 -49.5 -92.5 -88.5 -117.5s-81.167 -37.5 -126.5 -37.5
c-20 0 -40 3 -60 9s-35 12 -45 18l-15 9zM323.998 573.999v140h126v-140h-126zM114.998 573.999v140h126v-140h-126z" />
    <glyph glyph-name="Amacron" unicode="&#x100;" horiz-adv-x="664" 
d="M-3 0l243 715h184l243 -715h-180l-44 150h-223l-43 -150h-180zM261 290h141.001l-40 139l-29 123h-2c-10.667 -52 -20.334 -93 -29.001 -123zM195.001 782v112h275v-112h-275z" />
    <glyph glyph-name="amacron" unicode="&#x101;" horiz-adv-x="553" 
d="M22 145c0 32.667 8.99902 60.9971 26.999 84.9971s41.833 42.333 71.5 55s60.5 21.834 92.5 27.501s65.333 8.5 100 8.5h15v9c0 38 -24.333 57 -73 57c-45.333 0 -92.666 -16.333 -141.999 -49l-60 122c23.333 18 55.5 33.667 96.5 47s81.5 20 121.5 20
c71.333 0 127.5 -18.667 168.5 -56s61.5 -88.666 61.5 -153.999v-317h-158v31l2 32h-2c-16.667 -23.333 -38.834 -41.666 -66.501 -54.999s-56.5 -20 -86.5 -20c-49.333 0 -89.666 15 -120.999 45s-47 67.333 -47 112zM192.999 160.997c0 -12.667 4.33301 -23.167 13 -31.5
s20.667 -12.5 36 -12.5c24 0 44.667 9.66699 62 29s26 40 26 62v14h-16c-32 0 -60.167 -4.83301 -84.5 -14.5s-36.5 -25.167 -36.5 -46.5zM138.999 585.997v112h275v-112h-275z" />
    <glyph glyph-name="Abreve" unicode="&#x102;" horiz-adv-x="664" 
d="M-3 0l243 715h184l243 -715h-180l-44 150h-223l-43 -150h-180zM261 290h141.001l-40 139l-29 123h-2c-10.667 -52 -20.334 -93 -29.001 -123zM332.001 756c-48.667 0 -89.8301 13 -123.497 39s-50.5 61.333 -50.5 106v10h117v-11c0 -18.667 5.66699 -33 17 -43
s24.666 -15 39.999 -15s28.666 5 39.999 15s17 24.333 17 43v11h117v-10c0 -44.667 -16.833 -80 -50.5 -106s-74.834 -39 -123.501 -39z" />
    <glyph glyph-name="abreve" unicode="&#x103;" horiz-adv-x="553" 
d="M22 145c0 32.667 8.99902 60.9971 26.999 84.9971s41.833 42.333 71.5 55s60.5 21.834 92.5 27.501s65.333 8.5 100 8.5h15v9c0 38 -24.333 57 -73 57c-45.333 0 -92.666 -16.333 -141.999 -49l-60 122c23.333 18 55.5 33.667 96.5 47s81.5 20 121.5 20
c71.333 0 127.5 -18.667 168.5 -56s61.5 -88.666 61.5 -153.999v-317h-158v31l2 32h-2c-16.667 -23.333 -38.834 -41.666 -66.501 -54.999s-56.5 -20 -86.5 -20c-49.333 0 -89.666 15 -120.999 45s-47 67.333 -47 112zM192.999 160.997c0 -12.667 4.33301 -23.167 13 -31.5
s20.667 -12.5 36 -12.5c24 0 44.667 9.66699 62 29s26 40 26 62v14h-16c-32 0 -60.167 -4.83301 -84.5 -14.5s-36.5 -25.167 -36.5 -46.5zM275.999 559.997c-48.667 0 -89.8301 13 -123.497 39s-50.5 61.333 -50.5 106v10h117v-11c0 -18.667 5.66699 -33 17 -43
s24.666 -15 39.999 -15s28.666 5 39.999 15s17 24.333 17 43v11h117v-10c0 -44.667 -16.833 -80 -50.5 -106s-74.834 -39 -123.501 -39z" />
    <glyph glyph-name="Aogonek" unicode="&#x104;" horiz-adv-x="664" 
d="M-3 0l243.001 714.996h184l243 -715c-28.667 -26.667 -43 -47 -43 -61c0 -6.66699 3.16699 -12 9.5 -16s12.5 -6.33301 18.5 -7l10 -2l-42 -124c-3.33301 0.666992 -8 1.33398 -14 2.00098s-16.667 3.33398 -32 8.00098s-28.833 10.334 -40.5 17.001
s-22.334 16.334 -32.001 29.001s-14.5 27 -14.5 43c0 37.333 21.333 74.333 64 111h-64l-44 150h-223l-43 -150h-180zM261.001 289.996h141.001l-40 139l-29 123h-2c-10.667 -52 -20.334 -93 -29.001 -123z" />
    <glyph glyph-name="aogonek" unicode="&#x105;" horiz-adv-x="553" 
d="M22 145c0 32.667 9 60.9932 27 84.9932s41.833 42.333 71.5 55s60.5 21.834 92.5 27.501s65.333 8.5 100 8.5h15v9c0 38 -24.333 57 -73 57c-45.333 0 -92.666 -16.333 -141.999 -49l-60 122c23.333 18 55.5 33.667 96.5 47s81.5 20 121.5 20
c71.333 0 127.5 -18.667 168.5 -56s61.5 -88.666 61.5 -153.999v-317c-28.667 -26.667 -43 -47 -43 -61c0 -6.66699 3.16699 -12 9.5 -16s12.5 -6.33301 18.5 -7l10 -2l-42 -124c-3.33301 0.666992 -8 1.33398 -14 2.00098s-16.667 3.33398 -32 8.00098
s-28.833 10.334 -40.5 17.001s-22.334 16.334 -32.001 29.001s-14.5 27 -14.5 43c0 37.333 21.333 74.333 64 111h-42v31l2 32h-2c-16.667 -23.333 -38.834 -41.666 -66.501 -54.999s-56.5 -20 -86.5 -20c-49.333 0 -89.666 15 -120.999 45s-47 67.333 -47 112zM193 160.993
c0 -12.667 4.33301 -23.167 13 -31.5s20.667 -12.5 36 -12.5c24 0 44.667 9.66699 62 29s26 40 26 62v14h-16c-32 0 -60.167 -4.83301 -84.5 -14.5s-36.5 -25.167 -36.5 -46.5z" />
    <glyph glyph-name="Cacute" unicode="&#x106;" horiz-adv-x="714" 
d="M37 359c0 105.333 35.167 193.001 105.5 263.001s160.166 105 269.499 105c50 0 98.667 -8.5 146 -25.5s88 -42.167 122 -75.5l-81 -132c-24 21.333 -52.167 38.833 -84.5 52.5s-63.833 20.5 -94.5 20.5c-66.667 0 -117 -19.833 -151 -59.5s-51 -87.834 -51 -144.501
c0 -58 17.5 -108.333 52.5 -151s84.833 -64 149.5 -64c68 0 131.333 29.333 190 88l90 -128c-77.333 -80 -173.333 -120 -288 -120c-113.333 0 -204.166 34.833 -272.499 104.5s-102.5 158.5 -102.5 266.5zM330 761.001l81 150h171l-118 -150h-134z" />
    <glyph glyph-name="cacute" unicode="&#x107;" horiz-adv-x="552" 
d="M29 258c0 73.333 25.834 136.498 77.501 189.498s121.5 79.5 209.5 79.5c38.667 0 76.5 -6.5 113.5 -19.5s67.5 -32.5 91.5 -58.5l-73 -116c-34.667 33.333 -75 50 -121 50c-38.667 0 -68.834 -12.167 -90.501 -36.5s-32.5 -53.166 -32.5 -86.499
c0 -34 11.333 -63.833 34 -89.5s54.334 -38.5 95.001 -38.5c46 0 93 20.667 141 62l63 -121c-25.333 -26 -57.833 -46.667 -97.5 -62s-80.834 -23 -123.501 -23c-88 0 -157.833 26.333 -209.5 79s-77.5 116.334 -77.5 191.001zM224.001 564.998l81 150h171l-118 -150h-134z
" />
    <glyph glyph-name="Ccircumflex" unicode="&#x108;" horiz-adv-x="714" 
d="M37 359c0 105.333 35.167 193.001 105.5 263.001s160.166 105 269.499 105c50 0 98.667 -8.5 146 -25.5s88 -42.167 122 -75.5l-81 -132c-24 21.333 -52.167 38.833 -84.5 52.5s-63.833 20.5 -94.5 20.5c-66.667 0 -117 -19.833 -151 -59.5s-51 -87.834 -51 -144.501
c0 -58 17.5 -108.333 52.5 -151s84.833 -64 149.5 -64c68 0 131.333 29.333 190 88l90 -128c-77.333 -80 -173.333 -120 -288 -120c-113.333 0 -204.166 34.833 -272.499 104.5s-102.5 158.5 -102.5 266.5zM219 761.001l99 150h168l99 -150h-135l-47 82h-2l-47 -82h-135z
" />
    <glyph glyph-name="ccircumflex" unicode="&#x109;" horiz-adv-x="552" 
d="M29 258c0 73.333 25.834 136.498 77.501 189.498s121.5 79.5 209.5 79.5c38.667 0 76.5 -6.5 113.5 -19.5s67.5 -32.5 91.5 -58.5l-73 -116c-34.667 33.333 -75 50 -121 50c-38.667 0 -68.834 -12.167 -90.501 -36.5s-32.5 -53.166 -32.5 -86.499
c0 -34 11.333 -63.833 34 -89.5s54.334 -38.5 95.001 -38.5c46 0 93 20.667 141 62l63 -121c-25.333 -26 -57.833 -46.667 -97.5 -62s-80.834 -23 -123.501 -23c-88 0 -157.833 26.333 -209.5 79s-77.5 116.334 -77.5 191.001zM113.001 564.998l99 150h168l99 -150h-135
l-47 82h-2l-47 -82h-135z" />
    <glyph glyph-name="Cdotaccent" unicode="&#x10a;" horiz-adv-x="714" 
d="M37 359c0 105.333 35.167 193.001 105.5 263.001s160.166 105 269.499 105c50 0 98.667 -8.5 146 -25.5s88 -42.167 122 -75.5l-81 -132c-24 21.333 -52.167 38.833 -84.5 52.5s-63.833 20.5 -94.5 20.5c-66.667 0 -117 -19.833 -151 -59.5s-51 -87.834 -51 -144.501
c0 -58 17.5 -108.333 52.5 -151s84.833 -64 149.5 -64c68 0 131.333 29.333 190 88l90 -128c-77.333 -80 -173.333 -120 -288 -120c-113.333 0 -204.166 34.833 -272.499 104.5s-102.5 158.5 -102.5 266.5zM331 779.001v132h143v-132h-143z" />
    <glyph glyph-name="cdotaccent" unicode="&#x10b;" horiz-adv-x="552" 
d="M29 258c0 73.333 25.834 136.498 77.501 189.498s121.5 79.5 209.5 79.5c38.667 0 76.5 -6.5 113.5 -19.5s67.5 -32.5 91.5 -58.5l-73 -116c-34.667 33.333 -75 50 -121 50c-38.667 0 -68.834 -12.167 -90.501 -36.5s-32.5 -53.166 -32.5 -86.499
c0 -34 11.333 -63.833 34 -89.5s54.334 -38.5 95.001 -38.5c46 0 93 20.667 141 62l63 -121c-25.333 -26 -57.833 -46.667 -97.5 -62s-80.834 -23 -123.501 -23c-88 0 -157.833 26.333 -209.5 79s-77.5 116.334 -77.5 191.001zM225.001 582.998v132h143v-132h-143z" />
    <glyph glyph-name="Ccaron" unicode="&#x10c;" horiz-adv-x="714" 
d="M37 359c0 105.333 35.167 193.001 105.5 263.001s160.166 105 269.499 105c50 0 98.667 -8.5 146 -25.5s88 -42.167 122 -75.5l-81 -132c-24 21.333 -52.167 38.833 -84.5 52.5s-63.833 20.5 -94.5 20.5c-66.667 0 -117 -19.833 -151 -59.5s-51 -87.834 -51 -144.501
c0 -58 17.5 -108.333 52.5 -151s84.833 -64 149.5 -64c68 0 131.333 29.333 190 88l90 -128c-77.333 -80 -173.333 -120 -288 -120c-113.333 0 -204.166 34.833 -272.499 104.5s-102.5 158.5 -102.5 266.5zM318 761.001l-99 150h135l47 -82h2l47 82h135l-99 -150h-168z" />
    <glyph glyph-name="ccaron" unicode="&#x10d;" horiz-adv-x="552" 
d="M29 258c0 73.333 25.834 136.498 77.501 189.498s121.5 79.5 209.5 79.5c38.667 0 76.5 -6.5 113.5 -19.5s67.5 -32.5 91.5 -58.5l-73 -116c-34.667 33.333 -75 50 -121 50c-38.667 0 -68.834 -12.167 -90.501 -36.5s-32.5 -53.166 -32.5 -86.499
c0 -34 11.333 -63.833 34 -89.5s54.334 -38.5 95.001 -38.5c46 0 93 20.667 141 62l63 -121c-25.333 -26 -57.833 -46.667 -97.5 -62s-80.834 -23 -123.501 -23c-88 0 -157.833 26.333 -209.5 79s-77.5 116.334 -77.5 191.001zM212.001 564.998l-99 150h135l47 -82h2l47 82
h135l-99 -150h-168z" />
    <glyph glyph-name="Dcaron" unicode="&#x10e;" horiz-adv-x="737" 
d="M75 0v715h254c113.333 0 203.166 -31.5 269.499 -94.5s99.5 -150.167 99.5 -261.5c0 -112 -33.167 -199.833 -99.5 -263.5s-156.166 -95.5 -269.499 -95.5h-254zM250 150h72.002c61.333 0 109.166 18 143.499 54s51.5 87.667 51.5 155c0 66.667 -17.333 117.667 -52 153
s-82.334 53 -143.001 53h-72v-415zM259.002 761l-99 150h135l47 -82h2l47 82h135l-99 -150h-168z" />
    <glyph glyph-name="dcaron" unicode="&#x10f;" horiz-adv-x="653" 
d="M31 258c0 80.667 21.834 145.665 65.501 194.998s100.167 74 169.5 74c62.667 0 107.667 -13.667 135 -41h2c-0.666992 6.66699 -1 14.334 -1 23.001v206h173v-715h-162v34l1 29h-2c-32.667 -50 -82.334 -75 -149.001 -75c-70 0 -126.167 24.833 -168.5 74.5
s-63.5 114.834 -63.5 195.501zM205.001 257.998c0 -38 9.33301 -68.666 28 -91.999s43 -35 73 -35c28.667 0 52.667 10.667 72 32s29 53 29 95c0 33.333 -8.83301 62.166 -26.5 86.499s-42.5 36.5 -74.5 36.5c-28.667 0 -52.667 -11 -72 -33s-29 -52 -29 -90z
M621.001 714.999l136 -0.00195312c4.66699 -19.333 7 -38.666 7 -57.999c0 -31.333 -9.33301 -65.666 -28 -102.999h-123c13.333 38.667 20 69.667 20 93c0 22 -4 44.667 -12 68z" />
    <glyph glyph-name="Dcroat" unicode="&#x110;" horiz-adv-x="742" 
d="M80 0v284h-57v140h57v291h254c113.333 0 203.166 -31.5 269.499 -94.5s99.5 -150.167 99.5 -261.5c0 -112 -33.167 -199.833 -99.5 -263.5s-156.166 -95.5 -269.499 -95.5h-254zM255 150h72.002c61.333 0 109.166 18 143.499 54s51.5 87.667 51.5 155
c0 66.667 -17.333 117.667 -52 153s-82.334 53 -143.001 53h-72v-141h104v-140h-104v-134z" />
    <glyph glyph-name="dcroat" unicode="&#x111;" horiz-adv-x="633" 
d="M31 258c0 80.667 21.833 145.665 65.5 194.998s100.167 74 169.5 74c63.333 0 108.333 -13.667 135 -41h2c-0.666992 6.66699 -1 14.334 -1 23.001v45h-126v95h126v66h173v-66h66v-95h-66v-554h-162v34l1 29h-2c-35.333 -50 -85 -75 -149 -75
c-70 0 -126.167 24.833 -168.5 74.5s-63.5 114.834 -63.5 195.501zM205 257.998c0 -38 9.33301 -68.666 28 -91.999s43 -35 73 -35c28.667 0 52.667 10.667 72 32s29 53 29 95c0 33.333 -8.83301 62.166 -26.5 86.499s-42.5 36.5 -74.5 36.5c-28.667 0 -52.667 -11 -72 -33
s-29 -52 -29 -90z" />
    <glyph glyph-name="Emacron" unicode="&#x112;" horiz-adv-x="574" 
d="M75 0v715h448v-150h-273v-130h218v-150h-218v-135h287v-150h-462zM170 782v112h275v-112h-275z" />
    <glyph glyph-name="emacron" unicode="&#x113;" horiz-adv-x="567" 
d="M29 258c0 77.333 24.334 141.499 73.001 192.499s113.667 76.5 195 76.5c74 0 132.167 -23.167 174.5 -69.5s63.5 -106.166 63.5 -179.499c0 -12 -1.33301 -30 -4 -54h-325c6 -30 20.167 -52.833 42.5 -68.5s48.166 -23.5 77.499 -23.5c42.667 0 90 17.333 142 52
l64 -121c-27.333 -23.333 -60.833 -41.666 -100.5 -54.999s-79.5 -20 -119.5 -20c-87.333 0 -156.333 26.667 -207 80s-76 116.666 -76 189.999zM210.001 322.999h154c0 22 -6.5 40.333 -19.5 55s-30.167 22 -51.5 22c-44 0 -71.667 -25.667 -83 -77zM156.001 585.999v112
h275v-112h-275z" />
    <glyph glyph-name="Ebreve" unicode="&#x114;" horiz-adv-x="574" 
d="M75 0v715h448v-150h-273v-130h218v-150h-218v-135h287v-150h-462zM307 756c-48.667 0 -89.8301 13 -123.497 39s-50.5 61.333 -50.5 106v10h117v-11c0 -18.667 5.66699 -33 17 -43s24.666 -15 39.999 -15s28.666 5 39.999 15s17 24.333 17 43v11h117v-10
c0 -44.667 -16.833 -80 -50.5 -106s-74.834 -39 -123.501 -39z" />
    <glyph glyph-name="ebreve" unicode="&#x115;" horiz-adv-x="567" 
d="M29 258c0 77.333 24.334 141.499 73.001 192.499s113.667 76.5 195 76.5c74 0 132.167 -23.167 174.5 -69.5s63.5 -106.166 63.5 -179.499c0 -12 -1.33301 -30 -4 -54h-325c6 -30 20.167 -52.833 42.5 -68.5s48.166 -23.5 77.499 -23.5c42.667 0 90 17.333 142 52
l64 -121c-27.333 -23.333 -60.833 -41.666 -100.5 -54.999s-79.5 -20 -119.5 -20c-87.333 0 -156.333 26.667 -207 80s-76 116.666 -76 189.999zM210.001 322.999h154c0 22 -6.5 40.333 -19.5 55s-30.167 22 -51.5 22c-44 0 -71.667 -25.667 -83 -77zM293.001 559.999
c-48.667 0 -89.8301 13 -123.497 39s-50.5 61.333 -50.5 106v10h117v-11c0 -18.667 5.66699 -33 17 -43s24.666 -15 39.999 -15s28.666 5 39.999 15s17 24.333 17 43v11h117v-10c0 -44.667 -16.833 -80 -50.5 -106s-74.834 -39 -123.501 -39z" />
    <glyph glyph-name="Edotaccent" unicode="&#x116;" horiz-adv-x="574" 
d="M75 0v715h448v-150h-273v-130h218v-150h-218v-135h287v-150h-462zM236 779v132h143v-132h-143z" />
    <glyph glyph-name="edotaccent" unicode="&#x117;" horiz-adv-x="567" 
d="M29 258c0 77.333 24.334 141.499 73.001 192.499s113.667 76.5 195 76.5c74 0 132.167 -23.167 174.5 -69.5s63.5 -106.166 63.5 -179.499c0 -12 -1.33301 -30 -4 -54h-325c6 -30 20.167 -52.833 42.5 -68.5s48.166 -23.5 77.499 -23.5c42.667 0 90 17.333 142 52
l64 -121c-27.333 -23.333 -60.833 -41.666 -100.5 -54.999s-79.5 -20 -119.5 -20c-87.333 0 -156.333 26.667 -207 80s-76 116.666 -76 189.999zM210.001 322.999h154c0 22 -6.5 40.333 -19.5 55s-30.167 22 -51.5 22c-44 0 -71.667 -25.667 -83 -77zM222.001 582.999v132
h143v-132h-143z" />
    <glyph glyph-name="Eogonek" unicode="&#x118;" horiz-adv-x="574" 
d="M75 0l0.000976562 714.996h448v-150h-273v-130h218v-150h-218v-135h287v-150c-28.667 -26.667 -43 -47 -43 -61c0 -6.66699 3.16699 -12 9.5 -16s12.5 -6.33301 18.5 -7l10 -2l-42 -124c-3.33301 0.666992 -8 1.33398 -14 2.00098s-16.667 3.33398 -32 8.00098
s-28.833 10.334 -40.5 17.001s-22.334 16.334 -32.001 29.001s-14.5 27 -14.5 43c0 38 23 75 69 111h-351z" />
    <glyph glyph-name="eogonek" unicode="&#x119;" horiz-adv-x="567" 
d="M29 258c0 77.333 24.3359 141.496 73.0029 192.496s113.667 76.5 195 76.5c74 0 132.167 -23.167 174.5 -69.5s63.5 -106.166 63.5 -179.499l-4 -54h-325c6 -30 20.167 -52.833 42.5 -68.5s48.166 -23.5 77.499 -23.5c45.333 0 92.666 17.333 141.999 52l63 -120
c-5.33301 -5.33301 -18.333 -15.833 -39 -31.5s-37.167 -31 -49.5 -46s-18.5 -30.833 -18.5 -47.5c0 -6.66699 3.16699 -12 9.5 -16s12.5 -6.33301 18.5 -7l10 -2l-42 -124c-3.33301 0.666992 -8 1.33398 -14 2.00098s-16.667 3.33398 -32 8.00098
s-28.833 10.334 -40.5 17.001s-22.334 16.334 -32.001 29.001s-14.5 27 -14.5 43c0 36 22 70.333 66 103c-17.333 -2.66699 -31 -4 -41 -4c-87.333 0 -156.333 26.667 -207 80s-76 116.666 -76 189.999zM210.003 322.996h154c0 20.667 -6.33301 38.667 -19 54s-30 23 -52 23
c-43.333 0 -71 -25.667 -83 -77z" />
    <glyph glyph-name="Ecaron" unicode="&#x11a;" horiz-adv-x="574" 
d="M75 0v715h448v-150h-273v-130h218v-150h-218v-135h287v-150h-462zM223 761l-99 150h135l47 -82h2l47 82h135l-99 -150h-168z" />
    <glyph glyph-name="ecaron" unicode="&#x11b;" horiz-adv-x="567" 
d="M29 258c0 77.333 24.334 141.499 73.001 192.499s113.667 76.5 195 76.5c74 0 132.167 -23.167 174.5 -69.5s63.5 -106.166 63.5 -179.499c0 -12 -1.33301 -30 -4 -54h-325c6 -30 20.167 -52.833 42.5 -68.5s48.166 -23.5 77.499 -23.5c42.667 0 90 17.333 142 52
l64 -121c-27.333 -23.333 -60.833 -41.666 -100.5 -54.999s-79.5 -20 -119.5 -20c-87.333 0 -156.333 26.667 -207 80s-76 116.666 -76 189.999zM210.001 322.999h154c0 22 -6.5 40.333 -19.5 55s-30.167 22 -51.5 22c-44 0 -71.667 -25.667 -83 -77zM209.001 564.999
l-99 150h135l47 -82h2l47 82h135l-99 -150h-168z" />
    <glyph glyph-name="Gcircumflex" unicode="&#x11c;" horiz-adv-x="773" 
d="M37 359c0 104.667 35.499 192.166 106.499 262.499s160.5 105.5 268.5 105.5c111.333 0 203 -31.667 275 -95l-84 -131c-20.667 18.667 -47.334 34.334 -80.001 47.001s-64 19 -94 19c-70.667 0 -123.5 -19.167 -158.5 -57.5s-52.5 -86.5 -52.5 -144.5
c0 -66 19.833 -118.667 59.5 -158s88.167 -59 145.5 -59c52 0 100.333 17.333 145 52v55h-101v149h256v-404h-146v20l1 30h-2c-21.333 -18.667 -49.166 -33.667 -83.499 -45s-69.166 -17 -104.499 -17c-96 0 -178.5 33.667 -247.5 101s-103.5 157.333 -103.5 270z
M218.999 760.999l99 150h168l99 -150h-135l-47 82h-2l-47 -82h-135z" />
    <glyph glyph-name="gcircumflex" unicode="&#x11d;" horiz-adv-x="625" 
d="M130 -33c45.333 -22 93.668 -33 145.001 -33c79.333 0 119 33 119 99v17l1 19h-2c-30 -36 -73 -54 -129 -54c-73.333 0 -130.333 25.333 -171 76s-61 111.667 -61 183c0 70.667 20 130.5 60 179.5s97 73.5 171 73.5c60 0 106.667 -16.667 140 -50h3
c-0.666992 4 -1 8 -1 12v26h162v-468c0 -45.333 -8.33301 -85 -25 -119s-39.334 -60.833 -68.001 -80.5s-59.5 -34.167 -92.5 -43.5s-68.167 -14 -105.5 -14c-71.333 0 -136.333 15.333 -195 46zM206.002 280c0 -34.667 8.33105 -63.5 24.998 -86.5
s41.334 -34.5 74.001 -34.5c26.667 0 48.834 8.5 66.501 25.5s26.5 46.167 26.5 87.5c0 74 -33.333 111 -100 111c-29.333 0 -52 -9.5 -68 -28.5s-24 -43.833 -24 -74.5zM121 565l99 150h168l99 -150h-135l-47 82h-2l-47 -82h-135z" />
    <glyph glyph-name="Gbreve" unicode="&#x11e;" horiz-adv-x="773" 
d="M37 359c0 104.667 35.499 192.166 106.499 262.499s160.5 105.5 268.5 105.5c111.333 0 203 -31.667 275 -95l-84 -131c-20.667 18.667 -47.334 34.334 -80.001 47.001s-64 19 -94 19c-70.667 0 -123.5 -19.167 -158.5 -57.5s-52.5 -86.5 -52.5 -144.5
c0 -66 19.833 -118.667 59.5 -158s88.167 -59 145.5 -59c52 0 100.333 17.333 145 52v55h-101v149h256v-404h-146v20l1 30h-2c-21.333 -18.667 -49.166 -33.667 -83.499 -45s-69.166 -17 -104.499 -17c-96 0 -178.5 33.667 -247.5 101s-103.5 157.333 -103.5 270z
M401.999 755.999c-48.667 0 -89.8301 13 -123.497 39s-50.5 61.333 -50.5 106v10h117v-11c0 -18.667 5.66699 -33 17 -43s24.666 -15 39.999 -15s28.666 5 39.999 15s17 24.333 17 43v11h117v-10c0 -44.667 -16.833 -80 -50.5 -106s-74.834 -39 -123.501 -39z" />
    <glyph glyph-name="gbreve" unicode="&#x11f;" horiz-adv-x="625" 
d="M130 -33c45.333 -22 93.668 -33 145.001 -33c79.333 0 119 33 119 99v17l1 19h-2c-30 -36 -73 -54 -129 -54c-73.333 0 -130.333 25.333 -171 76s-61 111.667 -61 183c0 70.667 20 130.5 60 179.5s97 73.5 171 73.5c60 0 106.667 -16.667 140 -50h3
c-0.666992 4 -1 8 -1 12v26h162v-468c0 -45.333 -8.33301 -85 -25 -119s-39.334 -60.833 -68.001 -80.5s-59.5 -34.167 -92.5 -43.5s-68.167 -14 -105.5 -14c-71.333 0 -136.333 15.333 -195 46zM206.002 280c0 -34.667 8.33105 -63.5 24.998 -86.5
s41.334 -34.5 74.001 -34.5c26.667 0 48.834 8.5 66.501 25.5s26.5 46.167 26.5 87.5c0 74 -33.333 111 -100 111c-29.333 0 -52 -9.5 -68 -28.5s-24 -43.833 -24 -74.5zM304 560c-48.667 0 -89.8301 13 -123.497 39s-50.5 61.333 -50.5 106v10h117v-11
c0 -18.667 5.66699 -33 17 -43s24.666 -15 39.999 -15s28.666 5 39.999 15s17 24.333 17 43v11h117v-10c0 -44.667 -16.833 -80 -50.5 -106s-74.834 -39 -123.501 -39z" />
    <glyph glyph-name="Gdotaccent" unicode="&#x120;" horiz-adv-x="773" 
d="M37 359c0 104.667 35.499 192.166 106.499 262.499s160.5 105.5 268.5 105.5c111.333 0 203 -31.667 275 -95l-84 -131c-20.667 18.667 -47.334 34.334 -80.001 47.001s-64 19 -94 19c-70.667 0 -123.5 -19.167 -158.5 -57.5s-52.5 -86.5 -52.5 -144.5
c0 -66 19.833 -118.667 59.5 -158s88.167 -59 145.5 -59c52 0 100.333 17.333 145 52v55h-101v149h256v-404h-146v20l1 30h-2c-21.333 -18.667 -49.166 -33.667 -83.499 -45s-69.166 -17 -104.499 -17c-96 0 -178.5 33.667 -247.5 101s-103.5 157.333 -103.5 270z
M330.999 778.999v132h143v-132h-143z" />
    <glyph glyph-name="gdotaccent" unicode="&#x121;" horiz-adv-x="625" 
d="M130 -33c45.333 -22 93.668 -33 145.001 -33c79.333 0 119 33 119 99v17l1 19h-2c-30 -36 -73 -54 -129 -54c-73.333 0 -130.333 25.333 -171 76s-61 111.667 -61 183c0 70.667 20 130.5 60 179.5s97 73.5 171 73.5c60 0 106.667 -16.667 140 -50h3
c-0.666992 4 -1 8 -1 12v26h162v-468c0 -45.333 -8.33301 -85 -25 -119s-39.334 -60.833 -68.001 -80.5s-59.5 -34.167 -92.5 -43.5s-68.167 -14 -105.5 -14c-71.333 0 -136.333 15.333 -195 46zM206.002 280c0 -34.667 8.33105 -63.5 24.998 -86.5
s41.334 -34.5 74.001 -34.5c26.667 0 48.834 8.5 66.501 25.5s26.5 46.167 26.5 87.5c0 74 -33.333 111 -100 111c-29.333 0 -52 -9.5 -68 -28.5s-24 -43.833 -24 -74.5zM233 583v132h143v-132h-143z" />
    <glyph glyph-name="Gcommaaccent" unicode="&#x122;" horiz-adv-x="773" 
d="M37 359c0 104.667 35.499 192.166 106.499 262.499s160.5 105.5 268.5 105.5c111.333 0 203 -31.667 275 -95l-84 -131c-20.667 18.667 -47.334 34.334 -80.001 47.001s-64 19 -94 19c-70.667 0 -123.5 -19.167 -158.5 -57.5s-52.5 -86.5 -52.5 -144.5
c0 -66 19.833 -118.667 59.5 -158s88.167 -59 145.5 -59c52 0 100.333 17.333 145 52v55h-101v149h256v-404h-146v20l1 30h-2c-21.333 -18.667 -49.166 -33.667 -83.499 -45s-69.166 -17 -104.499 -17c-96 0 -178.5 33.667 -247.5 101s-103.5 157.333 -103.5 270z
M316.999 -49.001l136 -0.00195312c4.66699 -19.333 7 -38.666 7 -57.999c0 -31.333 -9.33301 -65.666 -28 -102.999h-123c13.333 38.667 20 69.667 20 93c0 22 -4 44.667 -12 68z" />
    <glyph glyph-name="gcommaaccent" unicode="&#x123;" horiz-adv-x="625" 
d="M130 -33c45.333 -22 93.668 -33 145.001 -33c79.333 0 119 33 119 99v17l1 19h-2c-30 -36 -73 -54 -129 -54c-73.333 0 -130.333 25.333 -171 76s-61 111.667 -61 183c0 70.667 20 130.5 60 179.5s97 73.5 171 73.5c60 0 106.667 -16.667 140 -50h3
c-0.666992 4 -1 8 -1 12v26h162v-468c0 -45.333 -8.33301 -85 -25 -119s-39.334 -60.833 -68.001 -80.5s-59.5 -34.167 -92.5 -43.5s-68.167 -14 -105.5 -14c-71.333 0 -136.333 15.333 -195 46zM206.002 280c0 -34.667 8.33105 -63.5 24.998 -86.5
s41.334 -34.5 74.001 -34.5c26.667 0 48.834 8.5 66.501 25.5s26.5 46.167 26.5 87.5c0 74 -33.333 111 -100 111c-29.333 0 -52 -9.5 -68 -28.5s-24 -43.833 -24 -74.5zM375 560l-135 -0.000976562c-4.66699 18.667 -7 37.334 -7 56.001c0 30 9 63 27 99h123
c-13.333 -38 -20 -67.667 -20 -89c0 -22 4 -44 12 -66z" />
    <glyph glyph-name="Hcircumflex" unicode="&#x124;" horiz-adv-x="760" 
d="M75 0v715h175v-286h260v286h175v-715h-175v280h-260v-280h-175zM197 761l99 150h168l99 -150h-135l-47 82h-2l-47 -82h-135z" />
    <glyph glyph-name="hcircumflex" unicode="&#x125;" horiz-adv-x="626" 
d="M58 0v714.999h173v-226l-2 -44h2c14.667 25.333 36 45.333 64 60s59 22 93 22c123.333 0 185 -64.333 185 -193v-334h-173v302c0 45.333 -19 68 -57 68c-36 0 -63.667 -12.667 -83 -38s-29 -58.666 -29 -99.999v-232h-173zM-38 760.999l99 150h168l99 -150h-135l-47 82
h-2l-47 -82h-135z" />
    <glyph glyph-name="Hbar" unicode="&#x126;" horiz-adv-x="764" 
d="M82 0v517h-66v107h66v91h179v-91h242v91h179v-91h65v-107h-65v-517h-179v280h-242v-280h-179zM261 429h242v88h-242v-88z" />
    <glyph glyph-name="hbar" unicode="&#x127;" horiz-adv-x="626" 
d="M58 0v554h-58v95h58v66h173v-66h134v-95h-134v-65l-2 -44h2c14.667 25.333 36 45.333 64 60s59 22 93 22c123.333 0 185 -64.333 185 -193v-334h-173v302c0 45.333 -19 68 -57 68c-36 0 -63.667 -13 -83 -39s-29 -58.667 -29 -98v-233h-173z" />
    <glyph glyph-name="Itilde" unicode="&#x128;" horiz-adv-x="325" 
d="M75 0v715h175v-715h-175zM-38 761c0 102 42.667 153 128 153c19.333 0 36.666 -5 51.999 -15s29 -20 41 -30s23 -15 33 -15c24.667 0 37 19 37 57h112c0 -102 -42.667 -153 -128 -153c-19.333 0 -36.666 5 -51.999 15s-29 20 -41 30s-23 15 -33 15
c-24.667 0 -37 -19 -37 -57h-112z" />
    <glyph glyph-name="itilde" unicode="&#x129;" horiz-adv-x="289" 
d="M58 0v515h173v-515h-173zM-57 565c0 102 42.667 153 128 153c19.333 0 36.666 -5 51.999 -15s29 -20 41 -30s23 -15 33 -15c24.667 0 37 19 37 57h112c0 -102 -42.667 -153 -128 -153c-19.333 0 -36.666 5 -51.999 15s-29 20 -41 30s-23 15 -33 15
c-24.667 0 -37 -19 -37 -57h-112z" />
    <glyph glyph-name="Imacron" unicode="&#x12a;" horiz-adv-x="325" 
d="M75 0v715h175v-715h-175zM26 782v112h275v-112h-275z" />
    <glyph glyph-name="imacron" unicode="&#x12b;" horiz-adv-x="289" 
d="M58 0v515h173v-515h-173zM7 586v112h275v-112h-275z" />
    <glyph glyph-name="Ibreve" unicode="&#x12c;" horiz-adv-x="325" 
d="M75 0v715h175v-715h-175zM163 756c-48.667 0 -89.8301 13 -123.497 39s-50.5 61.333 -50.5 106v10h117v-11c0 -18.667 5.66699 -33 17 -43s24.666 -15 39.999 -15s28.666 5 39.999 15s17 24.333 17 43v11h117v-10c0 -44.667 -16.833 -80 -50.5 -106
s-74.834 -39 -123.501 -39z" />
    <glyph glyph-name="ibreve" unicode="&#x12d;" horiz-adv-x="289" 
d="M58 0v515h173v-515h-173zM144 560c-48.667 0 -89.8301 13 -123.497 39s-50.5 61.333 -50.5 106v10h117v-11c0 -18.667 5.66699 -33 17 -43s24.666 -15 39.999 -15s28.666 5 39.999 15s17 24.333 17 43v11h117v-10c0 -44.667 -16.833 -80 -50.5 -106
s-74.834 -39 -123.501 -39z" />
    <glyph glyph-name="Iogonek" unicode="&#x12e;" horiz-adv-x="325" 
d="M75 0l0.000976562 714.996h175v-715c-28.667 -26.667 -43 -47 -43 -61c0 -6.66699 3.16699 -12 9.5 -16s12.833 -6.33301 19.5 -7l9 -2l-42 -124c-3.33301 0.666992 -8 1.33398 -14 2.00098s-16.667 3.33398 -32 8.00098s-28.833 10.334 -40.5 17.001
s-22.334 16.334 -32.001 29.001s-14.5 27 -14.5 43c0 37.333 21.333 74.333 64 111h-59z" />
    <glyph glyph-name="iogonek" unicode="&#x12f;" horiz-adv-x="289" 
d="M58 0l0.000976562 514.996h173v-515c-28.667 -26.667 -43 -47 -43 -61c0 -6.66699 3.16699 -12 9.5 -16s12.5 -6.33301 18.5 -7l10 -2l-42 -124c-3.33301 0 -8 0.5 -14 1.5s-16.667 3.83301 -32 8.5s-28.833 10.334 -40.5 17.001s-22.334 16.334 -32.001 29.001
s-14.5 27.334 -14.5 44.001c0 36.667 21.333 73.334 64 110.001h-57zM60.001 579.996v135h169v-135h-169z" />
    <glyph glyph-name="Idotaccent" unicode="&#x130;" horiz-adv-x="325" 
d="M75 0v715h175v-715h-175zM92 779v132h143v-132h-143z" />
    <glyph glyph-name="dotlessi" unicode="&#x131;" horiz-adv-x="289" 
d="M58 0v515h173v-515h-173z" />
    <glyph glyph-name="IJ" unicode="&#x132;" horiz-adv-x="681" 
d="M318 -4l-0.000976562 157.997c28 0 54.333 9.16699 79 27.5s37 47.833 37 88.5v445h179v-447c0 -43.333 -6.16699 -81.666 -18.5 -114.999s-28 -59.666 -47 -78.999s-42 -35.166 -69 -47.499s-53.167 -20.5 -78.5 -24.5s-52.666 -6 -81.999 -6zM74.999 -0.00292969v715
h175v-715h-175z" />
    <glyph glyph-name="ij" unicode="&#x133;" horiz-adv-x="578" 
d="M60 580v135h169v-135h-169zM58 0v515h173v-515h-173zM349 580v135h169v-135h-169zM347 4l-0.000976562 511h173v-528c0 -32.667 -6 -61.5 -18 -86.5s-26.5 -44.167 -43.5 -57.5s-37.333 -24 -61 -32s-44.667 -13.167 -63 -15.5s-37.166 -3.5 -56.499 -3.5
c-15.333 0 -30.666 1 -45.999 3v144c5.33301 -0.666992 12.666 -1 21.999 -1c62 0 93 22 93 66z" />
    <glyph glyph-name="Jcircumflex" unicode="&#x134;" horiz-adv-x="566" 
d="M18 220l-0.000976562 52h175v-38c0 -57.333 21.667 -86 65 -86c20 0 35.667 6.33301 47 19s17 31.667 17 57v341h-192v150h367v-495c0 -74 -23.667 -131.167 -71 -171.5s-103.333 -60.5 -168 -60.5c-65.333 0 -121.666 20.333 -168.999 61s-71 97.667 -71 171z
M125.999 761l99 150h168l99 -150h-135l-47 82h-2l-47 -82h-135z" />
    <glyph glyph-name="jcircumflex" unicode="&#x135;" horiz-adv-x="289" 
d="M-30 565l99 150h152l99 -150h-127l-47 82h-2l-47 -82h-127zM58 4l-0.00195312 511h173v-528c0 -32.667 -6 -61.5 -18 -86.5s-26.5 -44.167 -43.5 -57.5s-37.333 -24 -61 -32s-44.667 -13.167 -63 -15.5s-37.166 -3.5 -56.499 -3.5c-15.333 0 -30.666 1 -45.999 3v144
c4 -0.666992 11.333 -1 22 -1c62 0 93 22 93 66z" />
    <glyph glyph-name="Kcommaaccent" unicode="&#x136;" horiz-adv-x="675" 
d="M75 0v715h175v-276h72l148 276h188l-193 -342v-2l204 -371h-196l-151 290h-72v-290h-175zM271 -49l136 -0.00195312c4.66699 -19.333 7 -38.666 7 -57.999c0 -31.333 -9.33301 -65.666 -28 -102.999h-123c13.333 38.667 20 69.667 20 93c0 22 -4 44.667 -12 68z" />
    <glyph glyph-name="kcommaaccent" unicode="&#x137;" horiz-adv-x="591" 
d="M58 0v715h173v-370h49l102 170h188l-151 -234v-2l172 -279h-197l-109 200h-54v-200h-173zM233 -49l136 -0.00195312c4.66699 -19.333 7 -38.666 7 -57.999c0 -31.333 -9.33301 -65.666 -28 -102.999h-123c13.333 38.667 20 69.667 20 93c0 22 -4 44.667 -12 68z" />
    <glyph glyph-name="kgreenlandic" unicode="&#x138;" horiz-adv-x="589" 
d="M58 0v515h173v-180h49l105 180h188l-154 -244v-2l166 -269h-200l-100 190h-54v-190h-173z" />
    <glyph glyph-name="Lacute" unicode="&#x139;" horiz-adv-x="552" 
d="M75 0v715h175v-565h292v-150h-467zM91 761l81 150h171l-118 -150h-134z" />
    <glyph glyph-name="lacute" unicode="&#x13a;" horiz-adv-x="322" 
d="M57 190l0.00390625 525h173v-502c0 -25.333 3.16699 -42.666 9.5 -51.999s19.166 -14 38.499 -14c8.66699 0 15.667 0.333008 21 1v-150c-24 -2 -41.333 -3 -52 -3c-26.667 0 -49.834 2.16699 -69.501 6.5s-39.334 12.833 -59.001 25.5s-34.834 32.667 -45.501 60
s-16 61.666 -16 102.999zM72.0039 761l81 150h171l-118 -150h-134z" />
    <glyph glyph-name="Lcommaaccent" unicode="&#x13b;" horiz-adv-x="552" 
d="M75 0v715h175v-565h292v-150h-467zM242 -49l136 -0.00195312c4.66699 -19.333 7 -38.666 7 -57.999c0 -31.333 -9.33301 -65.666 -28 -102.999h-123c13.333 38.667 20 69.667 20 93c0 22 -4 44.667 -12 68z" />
    <glyph glyph-name="lcommaaccent" unicode="&#x13c;" horiz-adv-x="322" 
d="M57 190l0.00390625 525h173v-502c0 -25.333 3.16699 -42.666 9.5 -51.999s19.166 -14 38.499 -14c8.66699 0 15.667 0.333008 21 1v-150c-24 -2 -41.333 -3 -52 -3c-26.667 0 -49.834 2.16699 -69.501 6.5s-39.334 12.833 -59.001 25.5s-34.834 32.667 -45.501 60
s-16 61.666 -16 102.999zM113.004 -49l136 -0.00195312c4.66699 -19.333 7 -38.666 7 -57.999c0 -31.333 -9.33301 -65.666 -28 -102.999h-123c13.333 38.667 20 69.667 20 93c0 22 -4 44.667 -12 68z" />
    <glyph glyph-name="Lcaron" unicode="&#x13d;" horiz-adv-x="553" 
d="M75 0v715h175v-565h292v-150h-467zM320 715l136 -0.00195312c4.66699 -19.333 7 -38.666 7 -57.999c0 -31.333 -9.33301 -65.666 -28 -102.999h-123c13.333 38.667 20 69.667 20 93c0 22 -4 44.667 -12 68z" />
    <glyph glyph-name="lcaron" unicode="&#x13e;" horiz-adv-x="342" 
d="M57 190l0.00390625 525h173v-502c0 -25.333 3.16699 -42.666 9.5 -51.999s19.166 -14 38.499 -14c8.66699 0 15.667 0.333008 21 1v-150c-24 -2 -41.333 -3 -52 -3c-26.667 0 -49.834 2.16699 -69.501 6.5s-39.334 12.833 -59.001 25.5s-34.834 32.667 -45.501 60
s-16 61.666 -16 102.999zM277.004 715l136 -0.00195312c4.66699 -19.333 7 -38.666 7 -57.999c0 -31.333 -9.33301 -65.666 -28 -102.999h-123c13.333 38.667 20 69.667 20 93c0 22 -4 44.667 -12 68z" />
    <glyph glyph-name="Ldot" unicode="&#x13f;" horiz-adv-x="554" 
d="M75 0v715h175v-565h292v-150h-467zM343 315v164h158v-164h-158z" />
    <glyph glyph-name="ldot" unicode="&#x140;" horiz-adv-x="495" 
d="M57 190l0.00390625 525h173v-502c0 -25.333 3.16699 -42.666 9.5 -51.999s19.166 -14 38.499 -14c8.66699 0 15.667 0.333008 21 1v-150c-24 -2 -41.333 -3 -52 -3c-26.667 0 -49.834 2.16699 -69.501 6.5s-39.334 12.833 -59.001 25.5s-34.834 32.667 -45.501 60
s-16 61.666 -16 102.999zM312.004 315v164h158v-164h-158z" />
    <glyph glyph-name="Lslash" unicode="&#x141;" horiz-adv-x="556" 
d="M79 0v205l-52 -30v166l52 30v344h175v-244l101 58v-166l-101 -58v-155h292v-150h-467z" />
    <glyph glyph-name="lslash" unicode="&#x142;" horiz-adv-x="334" 
d="M18 195l0.00390625 166l50 29v325h173v-226l69 40v-166l-69 -40v-110c0 -25.333 3.16699 -42.666 9.5 -51.999s19.166 -14 38.499 -14l21 1v-150c-16 -2 -33.333 -3 -52 -3c-26.667 0 -49.834 2.16699 -69.501 6.5s-39.334 12.833 -59.001 25.5
s-34.834 32.667 -45.501 60s-16 61.666 -16 102.999v34z" />
    <glyph glyph-name="Nacute" unicode="&#x143;" horiz-adv-x="754" 
d="M75 0v715h177l198 -334c8 -14 17 -31.167 27 -51.5s18 -37.166 24 -50.499l9 -20h2c-5.33301 51.333 -8 92 -8 122v334h175v-715h-176l-199 333c-8 14 -17 31.167 -27 51.5s-18 37.166 -24 50.499l-9 20h-2c5.33301 -51.333 8 -92 8 -122v-333h-175zM305 761l81 150h171
l-118 -150h-134z" />
    <glyph glyph-name="nacute" unicode="&#x144;" horiz-adv-x="626" 
d="M58 0v515h166v-45l-2 -32h2c35.333 59.333 90 89 164 89c123.333 0 185 -64.333 185 -193v-334h-173v302c0 45.333 -19 68 -57 68c-36.667 0 -64.5 -13 -83.5 -39s-28.5 -58.667 -28.5 -98v-233h-173zM247 565l81 150h171l-118 -150h-134z" />
    <glyph glyph-name="Ncommaaccent" unicode="&#x145;" horiz-adv-x="754" 
d="M75 0v715h177l198 -334c8 -14 17 -31.167 27 -51.5s18 -37.166 24 -50.499l9 -20h2c-5.33301 51.333 -8 92 -8 122v334h175v-715h-176l-199 333c-8 14 -17 31.167 -27 51.5s-18 37.166 -24 50.499l-9 20h-2c5.33301 -51.333 8 -92 8 -122v-333h-175zM306 -49
l136 -0.00195312c4.66699 -19.333 7 -38.666 7 -57.999c0 -31.333 -9.33301 -65.666 -28 -102.999h-123c13.333 38.667 20 69.667 20 93c0 22 -4 44.667 -12 68z" />
    <glyph glyph-name="ncommaaccent" unicode="&#x146;" horiz-adv-x="626" 
d="M58 0v515h166v-45l-2 -32h2c35.333 59.333 90 89 164 89c123.333 0 185 -64.333 185 -193v-334h-173v302c0 45.333 -19 68 -57 68c-36.667 0 -64.5 -13 -83.5 -39s-28.5 -58.667 -28.5 -98v-233h-173zM241 -49l136 -0.00195312c4.66699 -19.333 7 -38.666 7 -57.999
c0 -31.333 -9.33301 -65.666 -28 -102.999h-123c13.333 38.667 20 69.667 20 93c0 22 -4 44.667 -12 68z" />
    <glyph glyph-name="Ncaron" unicode="&#x147;" horiz-adv-x="754" 
d="M75 0v715h177l198 -334c8 -14 17 -31.167 27 -51.5s18 -37.166 24 -50.499l9 -20h2c-5.33301 51.333 -8 92 -8 122v334h175v-715h-176l-199 333c-8 14 -17 31.167 -27 51.5s-18 37.166 -24 50.499l-9 20h-2c5.33301 -51.333 8 -92 8 -122v-333h-175zM293 761l-99 150h135
l47 -82h2l47 82h135l-99 -150h-168z" />
    <glyph glyph-name="ncaron" unicode="&#x148;" horiz-adv-x="626" 
d="M58 0v515h166v-45l-2 -32h2c35.333 59.333 90 89 164 89c123.333 0 185 -64.333 185 -193v-334h-173v302c0 45.333 -19 68 -57 68c-36.667 0 -64.5 -13 -83.5 -39s-28.5 -58.667 -28.5 -98v-233h-173zM235 565l-99 150h135l47 -82h2l47 82h135l-99 -150h-168z" />
    <glyph glyph-name="napostrophe" unicode="&#x149;" horiz-adv-x="626" 
d="M58 0v515h166v-45l-2 -32h2c35.333 59.333 90 89 164 89c123.333 0 185 -64.333 185 -193v-334h-173v302c0 45.333 -19 68 -57 68c-36.667 0 -64.5 -13 -83.5 -39s-28.5 -58.667 -28.5 -98v-233h-173zM-36 715l136 -0.00195312c4.66699 -19.333 7 -38.666 7 -57.999
c0 -31.333 -9.33301 -65.666 -28 -102.999h-123c13.333 38.667 20 69.667 20 93c0 22 -4 44.667 -12 68z" />
    <glyph glyph-name="Eng" unicode="&#x14a;" horiz-adv-x="753" 
d="M75 0l-0.000976562 714.996h177l198 -334c8 -14 17 -31.167 27 -51.5s18 -37.166 24 -50.499l9 -20h2c-5.33301 51.333 -8 92 -8 122v334h175v-648c0 -43.333 -6.16699 -81.666 -18.5 -114.999s-28 -59.666 -47 -78.999s-42 -35.166 -69 -47.499
s-53.167 -20.5 -78.5 -24.5s-52.666 -6 -81.999 -6v158c18 0 39.667 5.33301 65 16s41.333 24.334 48 41.001l-193 323c-8 14 -17 31.167 -27 51.5s-18 37.166 -24 50.499l-9 20h-2c5.33301 -51.333 8 -92 8 -122v-333h-175z" />
    <glyph glyph-name="eng" unicode="&#x14b;" horiz-adv-x="626" 
d="M58 0v515h166v-65l-1 -12h2c35.333 59.333 89.666 89 162.999 89c123.333 0 185 -64.333 185 -193v-347c0 -32.667 -6 -61.5 -18 -86.5s-26.5 -44.167 -43.5 -57.5s-37.333 -24 -61 -32s-44.667 -13.167 -63 -15.5s-37.166 -3.5 -56.499 -3.5l-46 3v144
c6 -0.666992 13.333 -1 22 -1c62 0 93 22 93 66v298c0 45.333 -19 68 -57 68c-36.667 0 -64.5 -13 -83.5 -39s-28.5 -58.667 -28.5 -98v-233h-173z" />
    <glyph glyph-name="Omacron" unicode="&#x14c;" horiz-adv-x="820" 
d="M36 362c0 104 35 190.833 105 260.5s159.667 104.5 269 104.5s199 -34.833 269 -104.5s105 -156.5 105 -260.5c0 -106.667 -35 -195.667 -105 -267s-159.667 -107 -269 -107s-199 35.667 -269 107s-105 160.333 -105 267zM217 362c0 -61.333 18.167 -112.333 54.5 -153
s82.5 -61 138.5 -61s102.167 20.333 138.5 61s54.5 91.667 54.5 153c0 58.667 -18.167 107.5 -54.5 146.5s-82.5 58.5 -138.5 58.5s-102.167 -19.5 -138.5 -58.5s-54.5 -87.833 -54.5 -146.5zM273 782v112h275v-112h-275z" />
    <glyph glyph-name="omacron" unicode="&#x14d;" horiz-adv-x="642" 
d="M29 256c0 79.333 28 144.333 84 195s125 76 207 76c82.667 0 152.167 -25.167 208.5 -75.5s84.5 -115.5 84.5 -195.5c0 -79.333 -28 -143.833 -84 -193.5s-125.333 -74.5 -208 -74.5s-152 24.833 -208 74.5s-84 114.167 -84 193.5zM204 256
c0 -37.333 11.333 -67.333 34 -90s50.334 -34 83.001 -34s60.334 11.333 83.001 34s34 52.667 34 90c0 38 -11.333 68.667 -34 92s-50.334 35 -83.001 35s-60.334 -11.667 -83.001 -35s-34 -54 -34 -92zM184 586v112h275v-112h-275z" />
    <glyph glyph-name="Obreve" unicode="&#x14e;" horiz-adv-x="820" 
d="M36 362c0 104 35 190.833 105 260.5s159.667 104.5 269 104.5s199 -34.833 269 -104.5s105 -156.5 105 -260.5c0 -106.667 -35 -195.667 -105 -267s-159.667 -107 -269 -107s-199 35.667 -269 107s-105 160.333 -105 267zM217 362c0 -61.333 18.167 -112.333 54.5 -153
s82.5 -61 138.5 -61s102.167 20.333 138.5 61s54.5 91.667 54.5 153c0 58.667 -18.167 107.5 -54.5 146.5s-82.5 58.5 -138.5 58.5s-102.167 -19.5 -138.5 -58.5s-54.5 -87.833 -54.5 -146.5zM410 756c-48.667 0 -89.8301 13 -123.497 39s-50.5 61.333 -50.5 106v10h117v-11
c0 -18.667 5.66699 -33 17 -43s24.666 -15 39.999 -15s28.666 5 39.999 15s17 24.333 17 43v11h117v-10c0 -44.667 -16.833 -80 -50.5 -106s-74.834 -39 -123.501 -39z" />
    <glyph glyph-name="obreve" unicode="&#x14f;" horiz-adv-x="642" 
d="M29 256c0 79.333 28 144.333 84 195s125 76 207 76c82.667 0 152.167 -25.167 208.5 -75.5s84.5 -115.5 84.5 -195.5c0 -79.333 -28 -143.833 -84 -193.5s-125.333 -74.5 -208 -74.5s-152 24.833 -208 74.5s-84 114.167 -84 193.5zM204 256
c0 -37.333 11.333 -67.333 34 -90s50.334 -34 83.001 -34s60.334 11.333 83.001 34s34 52.667 34 90c0 38 -11.333 68.667 -34 92s-50.334 35 -83.001 35s-60.334 -11.667 -83.001 -35s-34 -54 -34 -92zM321 560c-48.667 0 -89.8301 13 -123.497 39s-50.5 61.333 -50.5 106
v10h117v-11c0 -18.667 5.66699 -33 17 -43s24.666 -15 39.999 -15s28.666 5 39.999 15s17 24.333 17 43v11h117v-10c0 -44.667 -16.833 -80 -50.5 -106s-74.834 -39 -123.501 -39z" />
    <glyph glyph-name="Ohungarumlaut" unicode="&#x150;" horiz-adv-x="820" 
d="M36 362c0 104 35 190.833 105 260.5s159.667 104.5 269 104.5s199 -34.833 269 -104.5s105 -156.5 105 -260.5c0 -106.667 -35 -195.667 -105 -267s-159.667 -107 -269 -107s-199 35.667 -269 107s-105 160.333 -105 267zM217 362c0 -61.333 18.167 -112.333 54.5 -153
s82.5 -61 138.5 -61s102.167 20.333 138.5 61s54.5 91.667 54.5 153c0 58.667 -18.167 107.5 -54.5 146.5s-82.5 58.5 -138.5 58.5s-102.167 -19.5 -138.5 -58.5s-54.5 -87.833 -54.5 -146.5zM436 761l81 150h163l-118 -150h-126zM228 761l76 150h139l-79 -150h-136z" />
    <glyph glyph-name="ohungarumlaut" unicode="&#x151;" horiz-adv-x="642" 
d="M29 256c0 79.333 28 144.333 84 195s125 76 207 76c82.667 0 152.167 -25.167 208.5 -75.5s84.5 -115.5 84.5 -195.5c0 -79.333 -28 -143.833 -84 -193.5s-125.333 -74.5 -208 -74.5s-152 24.833 -208 74.5s-84 114.167 -84 193.5zM204 256
c0 -37.333 11.333 -67.333 34 -90s50.334 -34 83.001 -34s60.334 11.333 83.001 34s34 52.667 34 90c0 38 -11.333 68.667 -34 92s-50.334 35 -83.001 35s-60.334 -11.667 -83.001 -35s-34 -54 -34 -92zM347 565l81 150h163l-118 -150h-126zM139 565l76 150h139l-79 -150
h-136z" />
    <glyph glyph-name="OE" unicode="&#x152;" horiz-adv-x="990" 
d="M35 359c0 102 37.5 188.167 112.5 258.5s165.5 105.5 271.5 105.5c24.667 0 49.667 -1.33301 75 -4s44.333 -4 57 -4h388v-150h-273v-130h218v-150h-218v-135h288v-150h-403c-12.667 0 -31.667 -1.33301 -57 -4s-50.333 -4 -75 -4c-106 0 -196.5 35.667 -271.5 107
s-112.5 158 -112.5 260zM216 359c0 -60 19.667 -111.333 59 -154s87.333 -64 144 -64c13.333 0 26 0.5 38 1.5s20.667 2.16699 26 3.5l8 2v419c-18.667 4.66699 -42.667 7 -72 7c-56.667 0 -104.667 -20.833 -144 -62.5s-59 -92.5 -59 -152.5z" />
    <glyph glyph-name="oe" unicode="&#x153;" horiz-adv-x="975" 
d="M29 256c0 79.333 27.333 144.332 82 194.999s122.334 76 203.001 76c45.333 0 83.166 -6.83301 113.499 -20.5s58.833 -33.5 85.5 -59.5h2c23.333 26 49.333 45.833 78 59.5s66 20.5 112 20.5c74 0 132.167 -23.167 174.5 -69.5s63.5 -106.166 63.5 -179.499l-4 -54h-324
c6 -28.667 20.167 -51.167 42.5 -67.5s47.833 -24.5 76.5 -24.5c46.667 0 94 17.333 142 52l64 -121c-28 -24 -61.667 -42.5 -101 -55.5s-79 -19.5 -119 -19.5c-48.667 0 -88.167 7.33301 -118.5 22s-57.833 35.667 -82.5 63h-2c-26.667 -27.333 -55.5 -48.333 -86.5 -63
s-69.5 -22 -115.5 -22c-81.333 0 -149.333 24.833 -204 74.5s-82 114.167 -82 193.5zM618 322.999h151c-0.666992 19.333 -7 36.5 -19 51.5s-27.667 22.5 -47 22.5c-44.667 0 -73 -24.667 -85 -74zM203 255.999c0 -37.333 11.333 -67.333 34 -90s50.334 -34 83.001 -34
s60.334 11.333 83.001 34s34 52.667 34 90c0 38 -11.333 68.667 -34 92s-50.334 35 -83.001 35s-60.334 -11.667 -83.001 -35s-34 -54 -34 -92z" />
    <glyph glyph-name="Racute" unicode="&#x154;" horiz-adv-x="658" 
d="M75 0l0.00195312 714.999h249c63.333 0 109.666 -5.66699 138.999 -17c41.333 -16 73.666 -41.833 96.999 -77.5s35 -79.167 35 -130.5c0 -40 -9.33301 -78.167 -28 -114.5s-45 -63.166 -79 -80.499v-2c6.66699 -8.66699 15.667 -23 27 -43l139 -250h-195l-127 241h-82
v-241h-175zM250.002 390.999l76 0.000976562c28.667 0 51 7.66699 67 23s24 37 24 65c0 39.333 -14 64.666 -42 75.999c-15.333 6.66699 -37.333 10 -66 10h-59v-174zM245.002 761l81 150h171l-118 -150h-134z" />
    <glyph glyph-name="racute" unicode="&#x155;" horiz-adv-x="426" 
d="M58 0l0.00195312 515h166v-87l-2 -32h2c11.333 36 32.166 66.333 62.499 91s64.166 37 101.499 37c5.33301 0 12 -0.666992 20 -2v-170c-6 2 -17.667 3 -35 3c-46.667 0 -82 -13.667 -106 -41s-36 -65.333 -36 -114v-200h-173zM178.002 564l81 150h171l-118 -150h-134z
" />
    <glyph glyph-name="Rcommaaccent" unicode="&#x156;" horiz-adv-x="658" 
d="M75 0l0.00195312 714.999h249c63.333 0 109.666 -5.66699 138.999 -17c41.333 -16 73.666 -41.833 96.999 -77.5s35 -79.167 35 -130.5c0 -40 -9.33301 -78.167 -28 -114.5s-45 -63.166 -79 -80.499v-2c6.66699 -8.66699 15.667 -23 27 -43l139 -250h-195l-127 241h-82
v-241h-175zM250.002 390.999l76 0.000976562c28.667 0 51 7.66699 67 23s24 37 24 65c0 39.333 -14 64.666 -42 75.999c-15.333 6.66699 -37.333 10 -66 10h-59v-174zM267.002 -49l136 -0.00195312c4.66699 -19.333 7 -38.666 7 -57.999
c0 -31.333 -9.33301 -65.666 -28 -102.999h-123c13.333 38.667 20 69.667 20 93c0 22 -4 44.667 -12 68z" />
    <glyph glyph-name="rcommaaccent" unicode="&#x157;" horiz-adv-x="426" 
d="M58 0l0.00195312 515h166v-87l-2 -32h2c11.333 36 32.166 66.333 62.499 91s64.166 37 101.499 37c5.33301 0 12 -0.666992 20 -2v-170c-6 2 -17.667 3 -35 3c-46.667 0 -82 -13.667 -106 -41s-36 -65.333 -36 -114v-200h-173zM74.002 -49l136 -0.00195312
c4.66699 -19.333 7 -38.666 7 -57.999c0 -31.333 -9.33301 -65.666 -28 -102.999h-123c13.333 38.667 20 69.667 20 93c0 22 -4 44.667 -12 68z" />
    <glyph glyph-name="Rcaron" unicode="&#x158;" horiz-adv-x="658" 
d="M75 0l0.00195312 714.999h249c63.333 0 109.666 -5.66699 138.999 -17c41.333 -16 73.666 -41.833 96.999 -77.5s35 -79.167 35 -130.5c0 -40 -9.33301 -78.167 -28 -114.5s-45 -63.166 -79 -80.499v-2c6.66699 -8.66699 15.667 -23 27 -43l139 -250h-195l-127 241h-82
v-241h-175zM250.002 390.999l76 0.000976562c28.667 0 51 7.66699 67 23s24 37 24 65c0 39.333 -14 64.666 -42 75.999c-15.333 6.66699 -37.333 10 -66 10h-59v-174zM233.002 761l-99 150h135l47 -82h2l47 82h135l-99 -150h-168z" />
    <glyph glyph-name="rcaron" unicode="&#x159;" horiz-adv-x="426" 
d="M58 0l0.00195312 515h166v-87l-2 -32h2c11.333 36 32.166 66.333 62.499 91s64.166 37 101.499 37c5.33301 0 12 -0.666992 20 -2v-170c-6 2 -17.667 3 -35 3c-46.667 0 -82 -13.667 -106 -41s-36 -65.333 -36 -114v-200h-173zM166.002 564l-99 150h135l47 -82h2l47 82
h135l-99 -150h-168z" />
    <glyph glyph-name="Sacute" unicode="&#x15a;" horiz-adv-x="575" 
d="M26 90l92.001 133c22.667 -20 49.667 -37.333 81 -52s61.666 -22 90.999 -22c23.333 0 41.5 4.66699 54.5 14s19.5 21.333 19.5 36c0 15.333 -7.83301 29.5 -23.5 42.5s-35.167 23.833 -58.5 32.5s-48.666 19.834 -75.999 33.501s-52.666 28.167 -75.999 43.5
s-42.833 36.5 -58.5 63.5s-23.5 58.167 -23.5 93.5c0 65.333 24.167 118.166 72.5 158.499s110.5 60.5 186.5 60.5c88.667 0 163.334 -27 224.001 -81l-74 -143c-20.667 18 -45.334 33 -74.001 45s-56.667 18 -84 18c-25.333 0 -44.333 -4.66699 -57 -14
s-19 -21.666 -19 -36.999s7.83301 -29.333 23.5 -42s35.167 -23.167 58.5 -31.5s48.666 -19 75.999 -32s52.666 -27 75.999 -42s42.833 -36 58.5 -63s23.5 -58.167 23.5 -93.5c0 -63.333 -22.5 -116.333 -67.5 -159s-107.167 -64 -186.5 -64
c-48 0 -94.833 8.66699 -140.5 26s-85.167 42.666 -118.5 75.999zM216.001 761l81 150h171l-118 -150h-134z" />
    <glyph glyph-name="sacute" unicode="&#x15b;" horiz-adv-x="471" 
d="M19 64l74.001 112.999c41.333 -34.667 88 -52 140 -52c31.333 0 47 9 47 27c0 10 -8.33301 18.833 -25 26.5s-36.667 15.5 -60 23.5s-46.833 17.833 -70.5 29.5s-43.834 28.834 -60.501 51.501s-25 49.667 -25 81c0 51.333 20.167 91.333 60.5 120s91.5 43 153.5 43
c74 0 135.333 -19.667 184 -59l-59 -120c-14.667 12 -34.5 22 -59.5 30s-48.5 12 -70.5 12c-32 0 -48 -8.33301 -48 -25c0 -8 6 -15.5 18 -22.5s26.833 -13 44.5 -18s37 -12 58 -21s40.333 -19 58 -30s32.5 -26.667 44.5 -47s18 -43.5 18 -69.5
c0 -49.333 -19.167 -89.833 -57.5 -121.5s-89.833 -47.5 -154.5 -47.5c-83.333 0 -153.333 25.333 -210 76zM157.001 564.999l81 150h171l-118 -150h-134z" />
    <glyph glyph-name="Scircumflex" unicode="&#x15c;" horiz-adv-x="575" 
d="M26 90l92.001 133c22.667 -20 49.667 -37.333 81 -52s61.666 -22 90.999 -22c23.333 0 41.5 4.66699 54.5 14s19.5 21.333 19.5 36c0 15.333 -7.83301 29.5 -23.5 42.5s-35.167 23.833 -58.5 32.5s-48.666 19.834 -75.999 33.501s-52.666 28.167 -75.999 43.5
s-42.833 36.5 -58.5 63.5s-23.5 58.167 -23.5 93.5c0 65.333 24.167 118.166 72.5 158.499s110.5 60.5 186.5 60.5c88.667 0 163.334 -27 224.001 -81l-74 -143c-20.667 18 -45.334 33 -74.001 45s-56.667 18 -84 18c-25.333 0 -44.333 -4.66699 -57 -14
s-19 -21.666 -19 -36.999s7.83301 -29.333 23.5 -42s35.167 -23.167 58.5 -31.5s48.666 -19 75.999 -32s52.666 -27 75.999 -42s42.833 -36 58.5 -63s23.5 -58.167 23.5 -93.5c0 -63.333 -22.5 -116.333 -67.5 -159s-107.167 -64 -186.5 -64
c-48 0 -94.833 8.66699 -140.5 26s-85.167 42.666 -118.5 75.999zM105.001 761l99 150h168l99 -150h-135l-47 82h-2l-47 -82h-135z" />
    <glyph glyph-name="scircumflex" unicode="&#x15d;" horiz-adv-x="471" 
d="M19 64l74.001 112.999c41.333 -34.667 88 -52 140 -52c31.333 0 47 9 47 27c0 10 -8.33301 18.833 -25 26.5s-36.667 15.5 -60 23.5s-46.833 17.833 -70.5 29.5s-43.834 28.834 -60.501 51.501s-25 49.667 -25 81c0 51.333 20.167 91.333 60.5 120s91.5 43 153.5 43
c74 0 135.333 -19.667 184 -59l-59 -120c-14.667 12 -34.5 22 -59.5 30s-48.5 12 -70.5 12c-32 0 -48 -8.33301 -48 -25c0 -8 6 -15.5 18 -22.5s26.833 -13 44.5 -18s37 -12 58 -21s40.333 -19 58 -30s32.5 -26.667 44.5 -47s18 -43.5 18 -69.5
c0 -49.333 -19.167 -89.833 -57.5 -121.5s-89.833 -47.5 -154.5 -47.5c-83.333 0 -153.333 25.333 -210 76zM47.001 564.999l99 150h168l99 -150h-135l-47 82h-2l-47 -82h-135z" />
    <glyph glyph-name="Scedilla" unicode="&#x15e;" horiz-adv-x="576" 
d="M225 -82l22.002 71.999c-89.333 8.66699 -163 42 -221 100l92 133c22.667 -20 49.667 -37.333 81 -52s61.666 -22 90.999 -22c23.333 0 41.5 4.66699 54.5 14s19.5 21.333 19.5 36c0 15.333 -7.83301 29.5 -23.5 42.5s-35.167 23.833 -58.5 32.5
s-48.666 19.834 -75.999 33.501s-52.666 28.167 -75.999 43.5s-42.833 36.5 -58.5 63.5s-23.5 58.167 -23.5 93.5c0 65.333 24.167 118.166 72.5 158.499s110.5 60.5 186.5 60.5c88.667 0 163.334 -27 224.001 -81l-74 -143c-20.667 18 -45.334 33 -74.001 45
s-56.667 18 -84 18c-25.333 0 -44.333 -4.66699 -57 -14s-19 -21.666 -19 -36.999s7.83301 -29.333 23.5 -42s35.167 -23.167 58.5 -31.5s48.666 -19 75.999 -32s52.666 -27 75.999 -42s42.833 -36 58.5 -63s23.5 -58.167 23.5 -93.5c0 -56.667 -18.667 -105.5 -56 -146.5
s-89 -65.5 -155 -73.5l-6 -27c50 -5.33301 75 -32 75 -80c0 -33.333 -11.333 -57.333 -34 -72s-50.334 -22 -83.001 -22c-24 0 -47.667 3 -71 9v87c12 -6.66699 27 -10 45 -10c25.333 0 38 7.66699 38 23c0 14 -13.667 21 -41 21z" />
    <glyph glyph-name="scedilla" unicode="&#x15f;" horiz-adv-x="473" 
d="M160 -82l23.002 73.999c-64 8.66699 -118 32.667 -162 72l74 113c41.333 -34.667 88 -52 140 -52c31.333 0 47 9 47 27c0 10 -8.33301 18.833 -25 26.5s-36.667 15.5 -60 23.5s-46.833 17.833 -70.5 29.5s-43.834 28.834 -60.501 51.501s-25 49.667 -25 81
c0 51.333 20.167 91.333 60.5 120s91.5 43 153.5 43c74 0 135.333 -19.667 184 -59l-59 -120c-14.667 12 -34.5 22 -59.5 30s-48.5 12 -70.5 12c-32 0 -48 -8.33301 -48 -25c0 -8 6 -15.5 18 -22.5s26.833 -13 44.5 -18s37 -12 58 -21s40.333 -19 58 -30
s32.5 -26.667 44.5 -47s18 -43.5 18 -69.5c0 -44.667 -16.167 -82.5 -48.5 -113.5s-76.166 -48.833 -131.499 -53.5l-6 -26c50 -5.33301 75 -32 75 -80c0 -33.333 -11.333 -57.333 -34 -72s-50.334 -22 -83.001 -22c-24.667 0 -48.334 3 -71.001 9v87
c12 -6.66699 27 -10 45 -10c25.333 0 38 7.66699 38 23c0 14 -13.667 21 -41 21z" />
    <glyph glyph-name="Scaron" unicode="&#x160;" horiz-adv-x="575" 
d="M26 90l92.001 133c22.667 -20 49.667 -37.333 81 -52s61.666 -22 90.999 -22c23.333 0 41.5 4.66699 54.5 14s19.5 21.333 19.5 36c0 15.333 -7.83301 29.5 -23.5 42.5s-35.167 23.833 -58.5 32.5s-48.666 19.834 -75.999 33.501s-52.666 28.167 -75.999 43.5
s-42.833 36.5 -58.5 63.5s-23.5 58.167 -23.5 93.5c0 65.333 24.167 118.166 72.5 158.499s110.5 60.5 186.5 60.5c88.667 0 163.334 -27 224.001 -81l-74 -143c-20.667 18 -45.334 33 -74.001 45s-56.667 18 -84 18c-25.333 0 -44.333 -4.66699 -57 -14
s-19 -21.666 -19 -36.999s7.83301 -29.333 23.5 -42s35.167 -23.167 58.5 -31.5s48.666 -19 75.999 -32s52.666 -27 75.999 -42s42.833 -36 58.5 -63s23.5 -58.167 23.5 -93.5c0 -63.333 -22.5 -116.333 -67.5 -159s-107.167 -64 -186.5 -64
c-48 0 -94.833 8.66699 -140.5 26s-85.167 42.666 -118.5 75.999zM204.001 761l-99 150h135l47 -82h2l47 82h135l-99 -150h-168z" />
    <glyph glyph-name="scaron" unicode="&#x161;" horiz-adv-x="471" 
d="M19 64l74.001 112.999c41.333 -34.667 88 -52 140 -52c31.333 0 47 9 47 27c0 10 -8.33301 18.833 -25 26.5s-36.667 15.5 -60 23.5s-46.833 17.833 -70.5 29.5s-43.834 28.834 -60.501 51.501s-25 49.667 -25 81c0 51.333 20.167 91.333 60.5 120s91.5 43 153.5 43
c74 0 135.333 -19.667 184 -59l-59 -120c-14.667 12 -34.5 22 -59.5 30s-48.5 12 -70.5 12c-32 0 -48 -8.33301 -48 -25c0 -8 6 -15.5 18 -22.5s26.833 -13 44.5 -18s37 -12 58 -21s40.333 -19 58 -30s32.5 -26.667 44.5 -47s18 -43.5 18 -69.5
c0 -49.333 -19.167 -89.833 -57.5 -121.5s-89.833 -47.5 -154.5 -47.5c-83.333 0 -153.333 25.333 -210 76zM146.001 564.999l-99 150h135l47 -82h2l47 82h135l-99 -150h-168z" />
    <glyph glyph-name="Tcommaaccent" unicode="&#x162;" horiz-adv-x="633" 
d="M229 0l0.00195312 565h-217v150h609v-150h-217v-565h-50l-9 -36c50 -5.33301 75 -32 75 -80c0 -33.333 -11.333 -57.333 -34 -72s-50.334 -22 -83.001 -22c-24.667 0 -48.334 3 -71.001 9v87c12 -6.66699 27 -10 45 -10c25.333 0 38 7.66699 38 23
c0 14 -13.667 21 -41 21l-26 -2l26 82h-45z" />
    <glyph glyph-name="tcommaaccent" unicode="&#x163;" horiz-adv-x="411" 
d="M156 -82l33.002 104c-67.333 32 -101 88 -101 168v181h-66v135h71v148h168v-148h108v-135h-108v-158c0 -44 30.667 -66 92 -66c8 0 15.667 0.333008 23 1v-150c-26 -2 -41.667 -3 -47 -3c-24.667 0 -47 1.66699 -67 5l-9 -36c50 -5.33301 75 -32 75 -80
c0 -33.333 -11.333 -57.333 -34 -72s-50.334 -22 -83.001 -22c-24.667 0 -48.334 3 -71.001 9v87c12 -6.66699 27 -10 45 -10c25.333 0 38 7.66699 38 23c0 14 -13.667 21 -41 21z" />
    <glyph glyph-name="Tcaron" unicode="&#x164;" horiz-adv-x="633" 
d="M229 0v565h-217v150h609v-150h-217v-565h-175zM232 761l-99 150h135l47 -82h2l47 82h135l-99 -150h-168z" />
    <glyph glyph-name="tcaron" unicode="&#x165;" horiz-adv-x="411" 
d="M88 190l0.000976562 180.999h-66v135h71v148h168v-148h108v-135h-108v-158c0 -44 30.667 -66 92 -66c8 0 15.667 0.333008 23 1v-150c-26 -2 -41.667 -3 -47 -3c-16 0 -31.5 0.833008 -46.5 2.5s-32.333 4.83398 -52 9.50098s-37.334 11.667 -53.001 21
s-30.5 20.833 -44.5 34.5s-25 31.5 -33 53.5s-12 46.667 -12 74zM303.001 714.999h136c4.66699 -18.667 7 -36.667 7 -54c0 -29.333 -9.33301 -61.666 -28 -96.999h-123c13.333 36.667 20 65.667 20 87s-4 42.666 -12 63.999z" />
    <glyph glyph-name="Tbar" unicode="&#x166;" horiz-adv-x="644" 
d="M234 0v272h-142v127h142v166h-217v150h609v-150h-217v-166h148v-127h-148v-272h-175z" />
    <glyph glyph-name="tbar" unicode="&#x167;" horiz-adv-x="414" 
d="M14 209l0.00195312 106.998h77v55h-66v135h71v148h168v-148h108v-135h-108v-55h97v-107h-97v-5c0 -21.333 9.66699 -36.166 29 -44.499s40.333 -12.5 63 -12.5l23 1v-150c-12.667 -2 -28.334 -3 -47.001 -3c-16 0 -31.5 0.833008 -46.5 2.5s-32.333 4.83398 -52 9.50098
s-37.334 11.667 -53.001 21s-30.5 20.833 -44.5 34.5s-25 31.5 -33 53.5s-12 46.667 -12 74v19h-77z" />
    <glyph glyph-name="Utilde" unicode="&#x168;" horiz-adv-x="732" 
d="M67 263v452h175v-452c0 -36.667 11.167 -65 33.5 -85s52.5 -30 90.5 -30s68.167 10 90.5 30s33.5 48.333 33.5 85v452h175v-452c0 -81.333 -27.333 -147.5 -82 -198.5s-126.667 -76.5 -216 -76.5c-90 0 -162.5 25.5 -217.5 76.5s-82.5 117.167 -82.5 198.5zM165 761
c0 102 42.667 153 128 153c19.333 0 36.666 -5 51.999 -15s29 -20 41 -30s23 -15 33 -15c24.667 0 37 19 37 57h112c0 -102 -42.667 -153 -128 -153c-19.333 0 -36.666 5 -51.999 15s-29 20 -41 30s-23 15 -33 15c-24.667 0 -37 -19 -37 -57h-112z" />
    <glyph glyph-name="utilde" unicode="&#x169;" horiz-adv-x="621" 
d="M53 181v334h173v-302c0 -45.333 18.333 -68 55 -68c35.333 0 62.333 13.5 81 40.5s28 60.833 28 101.5v228h173v-515h-166v45l2 32h-2c-14 -27.333 -35.667 -49 -65 -65s-61.333 -24 -96 -24c-56 0 -100.5 15.167 -133.5 45.5s-49.5 79.5 -49.5 147.5zM107 565
c0 102 42.667 153 128 153c19.333 0 36.666 -5 51.999 -15s29 -20 41 -30s23 -15 33 -15c24.667 0 37 19 37 57h112c0 -102 -42.667 -153 -128 -153c-19.333 0 -36.666 5 -51.999 15s-29 20 -41 30s-23 15 -33 15c-24.667 0 -37 -19 -37 -57h-112z" />
    <glyph glyph-name="Umacron" unicode="&#x16a;" horiz-adv-x="732" 
d="M67 263v452h175v-452c0 -36.667 11.167 -65 33.5 -85s52.5 -30 90.5 -30s68.167 10 90.5 30s33.5 48.333 33.5 85v452h175v-452c0 -81.333 -27.333 -147.5 -82 -198.5s-126.667 -76.5 -216 -76.5c-90 0 -162.5 25.5 -217.5 76.5s-82.5 117.167 -82.5 198.5zM229 782v112
h275v-112h-275z" />
    <glyph glyph-name="umacron" unicode="&#x16b;" horiz-adv-x="621" 
d="M53 181v334h173v-302c0 -45.333 18.333 -68 55 -68c35.333 0 62.333 13.5 81 40.5s28 60.833 28 101.5v228h173v-515h-166v45l2 32h-2c-14 -27.333 -35.667 -49 -65 -65s-61.333 -24 -96 -24c-56 0 -100.5 15.167 -133.5 45.5s-49.5 79.5 -49.5 147.5zM171 586v112h275
v-112h-275z" />
    <glyph glyph-name="Ubreve" unicode="&#x16c;" horiz-adv-x="732" 
d="M67 263v452h175v-452c0 -36.667 11.167 -65 33.5 -85s52.5 -30 90.5 -30s68.167 10 90.5 30s33.5 48.333 33.5 85v452h175v-452c0 -81.333 -27.333 -147.5 -82 -198.5s-126.667 -76.5 -216 -76.5c-90 0 -162.5 25.5 -217.5 76.5s-82.5 117.167 -82.5 198.5zM366 756
c-48.667 0 -89.8301 13 -123.497 39s-50.5 61.333 -50.5 106v10h117v-11c0 -18.667 5.66699 -33 17 -43s24.666 -15 39.999 -15s28.666 5 39.999 15s17 24.333 17 43v11h117v-10c0 -44.667 -16.833 -80 -50.5 -106s-74.834 -39 -123.501 -39z" />
    <glyph glyph-name="ubreve" unicode="&#x16d;" horiz-adv-x="621" 
d="M53 181v334h173v-302c0 -45.333 18.333 -68 55 -68c35.333 0 62.333 13.5 81 40.5s28 60.833 28 101.5v228h173v-515h-166v45l2 32h-2c-14 -27.333 -35.667 -49 -65 -65s-61.333 -24 -96 -24c-56 0 -100.5 15.167 -133.5 45.5s-49.5 79.5 -49.5 147.5zM308 560
c-48.667 0 -89.8301 13 -123.497 39s-50.5 61.333 -50.5 106v10h117v-11c0 -18.667 5.66699 -33 17 -43s24.666 -15 39.999 -15s28.666 5 39.999 15s17 24.333 17 43v11h117v-10c0 -44.667 -16.833 -80 -50.5 -106s-74.834 -39 -123.501 -39z" />
    <glyph glyph-name="Uring" unicode="&#x16e;" horiz-adv-x="732" 
d="M67 263v452h175v-452c0 -36.667 11.167 -65 33.5 -85s52.5 -30 90.5 -30s68.167 10 90.5 30s33.5 48.333 33.5 85v452h175v-452c0 -81.333 -27.333 -147.5 -82 -198.5s-126.667 -76.5 -216 -76.5c-90 0 -162.5 25.5 -217.5 76.5s-82.5 117.167 -82.5 198.5zM366 747
c-29.333 0 -54.833 7.33301 -76.5 22s-32.5 35.667 -32.5 63s10.833 48.5 32.5 63.5s47.167 22.5 76.5 22.5s55 -7.5 77 -22.5s33 -36.167 33 -63.5s-11 -48.333 -33 -63s-47.667 -22 -77 -22zM366 797c10.667 0 19.167 3.16699 25.5 9.5s9.5 14.833 9.5 25.5
s-3.16699 19.334 -9.5 26.001s-14.833 10 -25.5 10c-10 0 -18.167 -3.33301 -24.5 -10s-9.5 -15.334 -9.5 -26.001s3 -19.167 9 -25.5s14.333 -9.5 25 -9.5z" />
    <glyph glyph-name="uring" unicode="&#x16f;" horiz-adv-x="621" 
d="M53 181v334h173v-302c0 -45.333 18.333 -68 55 -68c35.333 0 62.333 13.5 81 40.5s28 60.833 28 101.5v228h173v-515h-166v45l2 32h-2c-14 -27.333 -35.667 -49 -65 -65s-61.333 -24 -96 -24c-56 0 -100.5 15.167 -133.5 45.5s-49.5 79.5 -49.5 147.5zM308 551
c-29.333 0 -54.833 7.33301 -76.5 22s-32.5 35.667 -32.5 63s10.833 48.5 32.5 63.5s47.167 22.5 76.5 22.5s55 -7.5 77 -22.5s33 -36.167 33 -63.5s-11 -48.333 -33 -63s-47.667 -22 -77 -22zM308 601c10.667 0 19.167 3.16699 25.5 9.5s9.5 14.833 9.5 25.5
s-3.16699 19.334 -9.5 26.001s-14.833 10 -25.5 10c-10 0 -18.167 -3.33301 -24.5 -10s-9.5 -15.334 -9.5 -26.001s3 -19.167 9 -25.5s14.333 -9.5 25 -9.5z" />
    <glyph glyph-name="Uhungarumlaut" unicode="&#x170;" horiz-adv-x="732" 
d="M67 263v452h175v-452c0 -36.667 11.167 -65 33.5 -85s52.5 -30 90.5 -30s68.167 10 90.5 30s33.5 48.333 33.5 85v452h175v-452c0 -81.333 -27.333 -147.5 -82 -198.5s-126.667 -76.5 -216 -76.5c-90 0 -162.5 25.5 -217.5 76.5s-82.5 117.167 -82.5 198.5zM392 761
l81 150h163l-118 -150h-126zM184 761l76 150h139l-79 -150h-136z" />
    <glyph glyph-name="uhungarumlaut" unicode="&#x171;" horiz-adv-x="621" 
d="M53 181v334h173v-302c0 -45.333 18.333 -68 55 -68c35.333 0 62.333 13.5 81 40.5s28 60.833 28 101.5v228h173v-515h-166v45l2 32h-2c-14 -27.333 -35.667 -49 -65 -65s-61.333 -24 -96 -24c-56 0 -100.5 15.167 -133.5 45.5s-49.5 79.5 -49.5 147.5zM334 565l81 150
h163l-118 -150h-126zM126 565l76 150h139l-79 -150h-136z" />
    <glyph glyph-name="Uogonek" unicode="&#x172;" horiz-adv-x="734" 
d="M68 263l0.00195312 451.997h175v-452c0 -36.667 11.167 -65 33.5 -85s52.5 -30 90.5 -30s68.167 10 90.5 30s33.5 48.333 33.5 85v452h175v-452c0 -31.333 -3.66699 -59.666 -11 -84.999s-18.666 -47.833 -33.999 -67.5s-28.833 -34.834 -40.5 -45.501
s-27.5 -23.667 -47.5 -39c-3.33301 -2.66699 -9.5 -7.33398 -18.5 -14.001s-15.167 -11.334 -18.5 -14.001l-15 -12c-6.66699 -5.33301 -11.334 -9.5 -14.001 -12.5l-9.5 -11c-3.66699 -4.33301 -6.16699 -8.33301 -7.5 -12s-2 -7.5 -2 -11.5
c0 -6.66699 3.16699 -12 9.5 -16s12.5 -6.33301 18.5 -7l10 -2l-42 -124c-3.33301 0.666992 -8 1.33398 -14 2.00098s-16.667 3.33398 -32 8.00098s-28.833 10.334 -40.5 17.001s-22.334 16.334 -32.001 29.001s-14.5 27 -14.5 43c0 19.333 5.66699 38.333 17 57
s25.333 33 42 43c-5.33301 -0.666992 -10.333 -1 -15 -1c-26.667 0 -53.334 3.33301 -80.001 10s-52.5 17.334 -77.5 32.001s-47 32.5 -66 53.5s-34.333 47 -46 78s-17.5 64.833 -17.5 101.5z" />
    <glyph glyph-name="uogonek" unicode="&#x173;" horiz-adv-x="621" 
d="M53 181l0.000976562 333.996h173v-302c0 -45.333 18.333 -68 55 -68c35.333 0 62.333 13.5 81 40.5s28 60.833 28 101.5v228h173v-515c-28.667 -26.667 -43 -47 -43 -61c0 -6.66699 3.16699 -12 9.5 -16s12.5 -6.33301 18.5 -7l10 -2l-42 -124
c-3.33301 0.666992 -8 1.33398 -14 2.00098s-16.667 3.33398 -32 8.00098s-28.833 10.334 -40.5 17.001s-22.334 16.334 -32.001 29.001s-14.5 27 -14.5 43c0 37.333 21.333 74.333 64 111h-50v45l2 32h-2c-14 -27.333 -35.667 -49 -65 -65s-61.333 -24 -96 -24
c-56 0 -100.5 15.167 -133.5 45.5s-49.5 79.5 -49.5 147.5z" />
    <glyph glyph-name="Wcircumflex" unicode="&#x174;" horiz-adv-x="979" 
d="M187 0l-174.001 714.998h184l90 -447c2.66699 -13.333 4.83398 -26.166 6.50098 -38.499s2.5 -21.5 2.5 -27.5v-9h2c0.666992 20.667 4.66699 45.667 12 75l110 447h141l107 -447c3.33301 -13.333 6 -26.166 8 -38.499s3.33301 -21.5 4 -27.5v-9h2
c0 20.667 3 45.667 9 75l98 447h181l-181 -715h-195l-90 361l-14 84h-2c-2 -25.333 -6.66699 -53.333 -14 -84l-90 -361h-197zM304.999 760.998l99 150h168l99 -150h-135l-47 82h-2l-47 -82h-135z" />
    <glyph glyph-name="wcircumflex" unicode="&#x175;" horiz-adv-x="836" 
d="M155 0l-144 515h182l64 -304l6 -54h2c1.33301 17.333 4.33301 35.333 9 54l71 304h148l71 -304l8 -54h2c0.666992 17.333 3 35.333 7 54l64 304h180l-144 -515h-193l-58 238l-10 55h-2c-2 -18 -5.33301 -36.333 -10 -55l-58 -238h-195zM236 565l99 150h168l99 -150h-135
l-47 82h-2l-47 -82h-135z" />
    <glyph glyph-name="Ycircumflex" unicode="&#x176;" horiz-adv-x="627" 
d="M226 0l0.000976562 293l-236 422h199l81 -172l43 -103h2c13.333 36 27.666 70.333 42.999 103l80 172h199l-236 -422v-293h-175zM131.001 761l99 150h168l99 -150h-135l-47 82h-2l-47 -82h-135z" />
    <glyph glyph-name="ycircumflex" unicode="&#x177;" horiz-adv-x="561" 
d="M63 -47c18.667 -12.667 36.332 -19.001 52.999 -19.001c41.333 0 69 17.333 83 52l10 24l-219 505h196l76 -237l19 -80h2c6.66699 32.667 12.334 58.334 17.001 77.001l65 240h189l-211 -570c-20 -53.333 -49.5 -92.5 -88.5 -117.5s-81.167 -37.5 -126.5 -37.5
c-20 0 -40 3 -60 9s-35 12 -45 18l-15 9zM98.998 563.999l99 150h168l99 -150h-135l-47 82h-2l-47 -82h-135z" />
    <glyph glyph-name="Ydieresis" unicode="&#x178;" horiz-adv-x="627" 
d="M226 0l0.000976562 293l-236 422h199l81 -172l43 -103h2c13.333 36 27.666 70.333 42.999 103l80 172h199l-236 -422v-293h-175zM356.001 771v140h126v-140h-126zM147.001 771v140h126v-140h-126z" />
    <glyph glyph-name="Zacute" unicode="&#x179;" horiz-adv-x="635" 
d="M37 0v109.999l276 391c9.33301 13.333 18.5 25.333 27.5 36s15.833 18.334 20.5 23.001l7 6v2c-15.333 -2 -33.666 -3 -54.999 -3h-263v150h540v-108l-277 -393c-9.33301 -13.333 -18.5 -25.333 -27.5 -36s-15.833 -18 -20.5 -22l-7 -7v-2c15.333 2 33.666 3 54.999 3
h282v-150h-558zM256 760.999l81 150h171l-118 -150h-134z" />
    <glyph glyph-name="zacute" unicode="&#x17a;" horiz-adv-x="544" 
d="M34 0l0.000976562 86l189 237l23 26c7.33301 8 12.666 13.667 15.999 17l6 4v2c-8.66699 -1.33301 -23.667 -2 -45 -2h-181v145h460v-87l-188 -237c-7.33301 -9.33301 -14.833 -17.833 -22.5 -25.5s-13.5 -13.167 -17.5 -16.5l-6 -5v-2c8.66699 2 24 3 46 3h193v-145
h-473zM194.001 565l81 150h171l-118 -150h-134z" />
    <glyph glyph-name="Zdotaccent" unicode="&#x17b;" horiz-adv-x="635" 
d="M37 0v109.999l276 391c9.33301 13.333 18.5 25.333 27.5 36s15.833 18.334 20.5 23.001l7 6v2c-15.333 -2 -33.666 -3 -54.999 -3h-263v150h540v-108l-277 -393c-9.33301 -13.333 -18.5 -25.333 -27.5 -36s-15.833 -18 -20.5 -22l-7 -7v-2c15.333 2 33.666 3 54.999 3
h282v-150h-558zM257 778.999v132h143v-132h-143z" />
    <glyph glyph-name="zdotaccent" unicode="&#x17c;" horiz-adv-x="544" 
d="M34 0l0.000976562 86l189 237l23 26c7.33301 8 12.666 13.667 15.999 17l6 4v2c-8.66699 -1.33301 -23.667 -2 -45 -2h-181v145h460v-87l-188 -237c-7.33301 -9.33301 -14.833 -17.833 -22.5 -25.5s-13.5 -13.167 -17.5 -16.5l-6 -5v-2c8.66699 2 24 3 46 3h193v-145
h-473zM195.001 583v132h143v-132h-143z" />
    <glyph glyph-name="Zcaron" unicode="&#x17d;" horiz-adv-x="635" 
d="M37 0v109.999l276 391c9.33301 13.333 18.5 25.333 27.5 36s15.833 18.334 20.5 23.001l7 6v2c-15.333 -2 -33.666 -3 -54.999 -3h-263v150h540v-108l-277 -393c-9.33301 -13.333 -18.5 -25.333 -27.5 -36s-15.833 -18 -20.5 -22l-7 -7v-2c15.333 2 33.666 3 54.999 3
h282v-150h-558zM244 760.999l-99 150h135l47 -82h2l47 82h135l-99 -150h-168z" />
    <glyph glyph-name="zcaron" unicode="&#x17e;" horiz-adv-x="544" 
d="M34 0l0.000976562 86l189 237l23 26c7.33301 8 12.666 13.667 15.999 17l6 4v2c-8.66699 -1.33301 -23.667 -2 -45 -2h-181v145h460v-87l-188 -237c-7.33301 -9.33301 -14.833 -17.833 -22.5 -25.5s-13.5 -13.167 -17.5 -16.5l-6 -5v-2c8.66699 2 24 3 46 3h193v-145
h-473zM182.001 565l-99 150h135l47 -82h2l47 82h135l-99 -150h-168z" />
    <glyph glyph-name="longs" unicode="&#x17f;" horiz-adv-x="346" 
d="M95 0l0.00292969 371.001h-63v135h63v21c0 32 5.66699 60.167 17 84.5s25.166 43.166 41.499 56.499s36 24 59 32s43.667 13.167 62 15.5s37.166 3.5 56.499 3.5l52 -3v-146c-8 1.33301 -17.333 2 -28 2c-22.667 0 -42.834 -4 -60.501 -12s-26.5 -21.667 -26.5 -41v-519
h-173z" />
    <glyph glyph-name="florin" unicode="&#x192;" 
d="M29 28c36 -4.66699 59.335 -7 70.002 -7c57.333 0 88 21.333 92 64l19 225h-62v135h74l9 90c3.33301 32 11.666 60.167 24.999 84.5s28.666 43.166 45.999 56.499s37.5 24 60.5 32s43.833 13.167 62.5 15.5s38 3.5 58 3.5l88 -8v-146c-40 4.66699 -65.333 7 -76 7
c-58 0 -89 -21.333 -93 -64l-7 -71h95v-135h-107l-21 -244c-2.66699 -32 -10.667 -60.167 -24 -84.5s-28.833 -43.166 -46.5 -56.499s-38 -24 -61 -32s-43.833 -13.167 -62.5 -15.5s-37.667 -3.5 -57 -3.5l-82 8v146z" />
    <glyph glyph-name="Scommaaccent" unicode="&#x218;" horiz-adv-x="575" 
d="M26 90l92.001 133c22.667 -20 49.667 -37.333 81 -52s61.666 -22 90.999 -22c23.333 0 41.5 4.66699 54.5 14s19.5 21.333 19.5 36c0 15.333 -7.83301 29.5 -23.5 42.5s-35.167 23.833 -58.5 32.5s-48.666 19.834 -75.999 33.501s-52.666 28.167 -75.999 43.5
s-42.833 36.5 -58.5 63.5s-23.5 58.167 -23.5 93.5c0 65.333 24.167 118.166 72.5 158.499s110.5 60.5 186.5 60.5c88.667 0 163.334 -27 224.001 -81l-74 -143c-20.667 18 -45.334 33 -74.001 45s-56.667 18 -84 18c-25.333 0 -44.333 -4.66699 -57 -14
s-19 -21.666 -19 -36.999s7.83301 -29.333 23.5 -42s35.167 -23.167 58.5 -31.5s48.666 -19 75.999 -32s52.666 -27 75.999 -42s42.833 -36 58.5 -63s23.5 -58.167 23.5 -93.5c0 -63.333 -22.5 -116.333 -67.5 -159s-107.167 -64 -186.5 -64
c-48 0 -94.833 8.66699 -140.5 26s-85.167 42.666 -118.5 75.999zM208.001 -49l136 -0.00195312c4.66699 -19.333 7 -38.666 7 -57.999c0 -31.333 -9.33301 -65.666 -28 -102.999h-123c13.333 38.667 20 69.667 20 93c0 22 -4 44.667 -12 68z" />
    <glyph glyph-name="scommaaccent" unicode="&#x219;" horiz-adv-x="471" 
d="M19 64l74.001 112.999c41.333 -34.667 88 -52 140 -52c31.333 0 47 9 47 27c0 10 -8.33301 18.833 -25 26.5s-36.667 15.5 -60 23.5s-46.833 17.833 -70.5 29.5s-43.834 28.834 -60.501 51.501s-25 49.667 -25 81c0 51.333 20.167 91.333 60.5 120s91.5 43 153.5 43
c74 0 135.333 -19.667 184 -59l-59 -120c-14.667 12 -34.5 22 -59.5 30s-48.5 12 -70.5 12c-32 0 -48 -8.33301 -48 -25c0 -8 6 -15.5 18 -22.5s26.833 -13 44.5 -18s37 -12 58 -21s40.333 -19 58 -30s32.5 -26.667 44.5 -47s18 -43.5 18 -69.5
c0 -49.333 -19.167 -89.833 -57.5 -121.5s-89.833 -47.5 -154.5 -47.5c-83.333 0 -153.333 25.333 -210 76zM154.001 -49.001l136 -0.00195312c4.66699 -19.333 7 -38.666 7 -57.999c0 -31.333 -9.33301 -65.666 -28 -102.999h-123c13.333 38.667 20 69.667 20 93
c0 22 -4 44.667 -12 68z" />
    <glyph glyph-name="uni021A" unicode="&#x21a;" horiz-adv-x="633" 
d="M229 0v565h-217v150h609v-150h-217v-565h-175zM239 -49l136 -0.00195312c4.66699 -19.333 7 -38.666 7 -57.999c0 -31.333 -9.33301 -65.666 -28 -102.999h-123c13.333 38.667 20 69.667 20 93c0 22 -4 44.667 -12 68z" />
    <glyph glyph-name="uni021B" unicode="&#x21b;" horiz-adv-x="411" 
d="M88 190l0.000976562 180.999h-66v135h71v148h168v-148h108v-135h-108v-158c0 -44 30.667 -66 92 -66c8 0 15.667 0.333008 23 1v-150c-26 -2 -41.667 -3 -47 -3c-16 0 -31.5 0.833008 -46.5 2.5s-32.333 4.83398 -52 9.50098s-37.334 11.667 -53.001 21
s-30.5 20.833 -44.5 34.5s-25 31.5 -33 53.5s-12 46.667 -12 74zM160.001 -49.001l136 -0.00195312c4.66699 -19.333 7 -38.666 7 -57.999c0 -31.333 -9.33301 -65.666 -28 -102.999h-123c13.333 38.667 20 69.667 20 93c0 22 -4 44.667 -12 68z" />
    <glyph glyph-name="circumflex" unicode="&#x2c6;" horiz-adv-x="486" 
d="M60 761l99 150h168l99 -150h-135l-47 82h-2l-47 -82h-135z" />
    <glyph glyph-name="caron" unicode="&#x2c7;" horiz-adv-x="486" 
d="M159 761l-99 150h135l47 -82h2l47 82h135l-99 -150h-168z" />
    <glyph glyph-name="breve" unicode="&#x2d8;" horiz-adv-x="484" 
d="M242 756c-48.667 0 -89.8301 13 -123.497 39s-50.5 61.333 -50.5 106v10h117v-11c0 -18.667 5.66699 -33 17 -43s24.666 -15 39.999 -15s28.666 5 39.999 15s17 24.333 17 43v11h117v-10c0 -44.667 -16.833 -80 -50.5 -106s-74.834 -39 -123.501 -39z" />
    <glyph glyph-name="dotaccent" unicode="&#x2d9;" horiz-adv-x="485" 
d="M171 779v132h143v-132h-143z" />
    <glyph glyph-name="ring" unicode="&#x2da;" horiz-adv-x="485" 
d="M242 747c-29.333 0 -54.833 7.33301 -76.5 22s-32.5 35.667 -32.5 63s10.833 48.5 32.5 63.5s47.167 22.5 76.5 22.5s55 -7.5 77 -22.5s33 -36.167 33 -63.5s-11 -48.333 -33 -63s-47.667 -22 -77 -22zM242 797c10.667 0 19.167 3.16699 25.5 9.5s9.5 14.833 9.5 25.5
s-3.16699 19.334 -9.5 26.001s-14.833 10 -25.5 10c-10 0 -18.167 -3.33301 -24.5 -10s-9.5 -15.334 -9.5 -26.001s3 -19.167 9 -25.5s14.333 -9.5 25 -9.5z" />
    <glyph glyph-name="ogonek" unicode="&#x2db;" horiz-adv-x="486" 
d="M146 -111c0 24 8.66895 47.4961 26.002 70.4961s34.666 40.167 51.999 51.5l26 17l90 -14c-38 -32.667 -57 -57.667 -57 -75c0 -6.66699 3.16699 -12 9.5 -16s12.833 -6.33301 19.5 -7l9 -2l-42 -124c-3.33301 0.666992 -8 1.33398 -14 2.00098
s-16.667 3.33398 -32 8.00098s-28.833 10.334 -40.5 17.001s-22.334 16.334 -32.001 29.001s-14.5 27 -14.5 43z" />
    <glyph glyph-name="tilde" unicode="&#x2dc;" horiz-adv-x="485" 
d="M41 761c0 102 42.667 153 128 153c19.333 0 36.666 -5 51.999 -15s29 -20 41 -30s23 -15 33 -15c24.667 0 37 19 37 57h112c0 -102 -42.667 -153 -128 -153c-19.333 0 -36.666 5 -51.999 15s-29 20 -41 30s-23 15 -33 15c-24.667 0 -37 -19 -37 -57h-112z" />
    <glyph glyph-name="hungarumlaut" unicode="&#x2dd;" horiz-adv-x="485" 
d="M225 761l81 150h163l-118 -150h-126zM17 761l76 150h139l-79 -150h-136z" />
    <glyph glyph-name="uni0400" unicode="&#x400;" horiz-adv-x="576" 
d="M75 0v715h448v-150h-273v-130h218v-150h-218v-135h287v-150h-462zM264 761l-118 150h171l81 -150h-134z" />
    <glyph glyph-name="uni0401" unicode="&#x401;" horiz-adv-x="576" 
d="M75 0v715h448v-150h-273v-130h218v-150h-218v-135h287v-150h-462zM346 771v140h126v-140h-126zM137 771v140h126v-140h-126z" />
    <glyph glyph-name="uni0402" unicode="&#x402;" horiz-adv-x="761" 
d="M188 0v565.003h-176v150h567v-150h-216v-111l-2 -32h2c48 22.667 102.667 34 164 34c64 0 116 -20.833 156 -62.5s60 -94.834 60 -159.501c0 -68.667 -20 -126.834 -60 -174.501s-96 -71.5 -168 -71.5c-15.333 0 -31.333 1 -48 3v145c9.33301 -1.33301 17 -2 23 -2
c18 0 35.333 6.66699 52 20s25 34.666 25 63.999c0 26 -8 46.5 -24 61.5s-36.667 22.5 -62 22.5c-21.333 0 -41.833 -2.16699 -61.5 -6.5s-34.167 -8.83301 -43.5 -13.5l-13 -6v-276h-175z" />
    <glyph glyph-name="uni0403" unicode="&#x403;" horiz-adv-x="523" 
d="M75 0v715h438v-150h-263v-565h-175zM197 761l81 150h171l-118 -150h-134z" />
    <glyph glyph-name="uni0404" unicode="&#x404;" horiz-adv-x="716" 
d="M37 359c0 104.667 33.835 192.168 101.502 262.501s158.834 105.5 273.501 105.5c33.333 0 65.166 -3.5 95.499 -10.5s55.5 -15.5 75.5 -25.5s37.667 -19.833 53 -29.5s26.666 -18.167 33.999 -25.5l10 -10l-81 -132c-6 5.33301 -14.333 12.166 -25 20.499
s-31.667 19.5 -63 33.5s-61.666 21 -90.999 21c-52.667 0 -95.5 -13.167 -128.5 -39.5s-55.5 -60.166 -67.5 -101.499h295v-140h-295c23.333 -94.667 88.666 -142 195.999 -142c32 0 64.333 6.66699 97 20s57.334 26.666 74.001 39.999l25 21l85 -124
c-2.66699 -3.33301 -6.66699 -7.5 -12 -12.5s-17.333 -14.167 -36 -27.5s-38.334 -25 -59.001 -35s-47.5 -19.167 -80.5 -27.5s-66.833 -12.5 -101.5 -12.5c-110.667 0 -200.834 35 -270.501 105s-104.5 158.667 -104.5 266z" />
    <glyph glyph-name="uni0405" unicode="&#x405;" horiz-adv-x="575" 
d="M26 90l92.001 133c22.667 -20 49.667 -37.333 81 -52s61.666 -22 90.999 -22c23.333 0 41.5 4.66699 54.5 14s19.5 21.333 19.5 36c0 15.333 -7.83301 29.5 -23.5 42.5s-35.167 23.833 -58.5 32.5s-48.666 19.834 -75.999 33.501s-52.666 28.167 -75.999 43.5
s-42.833 36.5 -58.5 63.5s-23.5 58.167 -23.5 93.5c0 65.333 24.167 118.166 72.5 158.499s110.5 60.5 186.5 60.5c88.667 0 163.334 -27 224.001 -81l-74 -143c-20.667 18 -45.334 33 -74.001 45s-56.667 18 -84 18c-25.333 0 -44.333 -4.66699 -57 -14
s-19 -21.666 -19 -36.999s7.83301 -29.333 23.5 -42s35.167 -23.167 58.5 -31.5s48.666 -19 75.999 -32s52.666 -27 75.999 -42s42.833 -36 58.5 -63s23.5 -58.167 23.5 -93.5c0 -63.333 -22.5 -116.333 -67.5 -159s-107.167 -64 -186.5 -64
c-48 0 -94.833 8.66699 -140.5 26s-85.167 42.666 -118.5 75.999z" />
    <glyph glyph-name="uni0406" unicode="&#x406;" horiz-adv-x="325" 
d="M75 0v715h175v-715h-175z" />
    <glyph glyph-name="uni0407" unicode="&#x407;" horiz-adv-x="325" 
d="M75 0v715h175v-715h-175zM205 771v140h126v-140h-126zM-4 771v140h126v-140h-126z" />
    <glyph glyph-name="uni0408" unicode="&#x408;" horiz-adv-x="566" 
d="M18 220l-0.000976562 52h175v-38c0 -57.333 21.667 -86 65 -86c20 0 35.667 6.33301 47 19s17 31.667 17 57v341h-192v150h367v-495c0 -74 -23.667 -131.167 -71 -171.5s-103.333 -60.5 -168 -60.5c-65.333 0 -121.666 20.333 -168.999 61s-71 97.667 -71 171z" />
    <glyph glyph-name="uni0409" unicode="&#x409;" horiz-adv-x="995" 
d="M18 -5v159.001c31.333 1.33301 56.166 9.33301 74.499 24s33 42.834 44 84.501s16.5 99.5 16.5 173.5v279h471v-261h122c69.333 0 125.5 -21.333 168.5 -64s64.5 -97.334 64.5 -164.001s-21.5 -121 -64.5 -163s-99.167 -63 -168.5 -63h-297v565h-118v-129
c0 -58 -2.83301 -108.833 -8.5 -152.5s-15.5 -84 -29.5 -121s-32.833 -67.167 -56.5 -90.5s-53.667 -41.833 -90 -55.5s-79.166 -20.834 -128.499 -21.501zM624 150.001l89 0.000976562c28 0 49.667 6.83301 65 20.5s23 32.167 23 55.5s-7.83301 42.166 -23.5 56.499
s-38.167 21.5 -67.5 21.5h-86v-154z" />
    <glyph glyph-name="uni040A" unicode="&#x40a;" horiz-adv-x="1036" 
d="M75 0v714.999h175v-266h240v266h175v-266h122c68.667 0 124.667 -21.167 168 -63.5s65 -96.166 65 -161.499c0 -66 -21.5 -119.833 -64.5 -161.5s-99.167 -62.5 -168.5 -62.5h-297v299h-240v-299h-175zM665 149.999l89 -0.000976562c28 0 49.667 6.66699 65 20
s23 31.333 23 54s-7.83301 40.834 -23.5 54.501s-38.167 20.5 -67.5 20.5h-86v-149z" />
    <glyph glyph-name="uni040B" unicode="&#x40b;" horiz-adv-x="767" 
d="M188 0v565h-176v150h567v-150h-216v-111l-2 -32h2c55.333 22.667 109 34 161 34c70.667 0 123.167 -21.167 157.5 -63.5s51.5 -98.833 51.5 -169.5v-223h-179v197c0 70 -31 105 -93 105c-35.333 0 -68 -8.66699 -98 -26v-276h-175z" />
    <glyph glyph-name="uni040C" unicode="&#x40c;" horiz-adv-x="675" 
d="M75 0v715h175v-276h72l148 276h188l-193 -342v-2l204 -371h-196l-151 290h-72v-290h-175zM281 761l81 150h171l-118 -150h-134z" />
    <glyph glyph-name="uni040D" unicode="&#x40d;" horiz-adv-x="754" 
d="M75 0v715h175v-334l-8 -122h2c21.333 50 41.333 90.667 60 122l198 334h177v-715h-175v333l8 122h-2c-21.333 -50 -41.333 -90.667 -60 -122l-199 -333h-176zM325 761l-118 150h171l81 -150h-134z" />
    <glyph glyph-name="uni040E" unicode="&#x40e;" horiz-adv-x="631" 
d="M54 42l76 131c28.667 -24 55 -36 79 -36c28 0 47 12.333 57 37l-276 541h192l119 -257l39 -96h2c7.33301 30 16.666 61.667 27.999 95l88 258h184l-211 -536c-10 -25.333 -20.167 -47.5 -30.5 -66.5s-24 -38.833 -41 -59.5s-37.5 -36.667 -61.5 -48s-51 -17 -81 -17
c-57.333 0 -111.666 18 -162.999 54zM325 747c-53.333 0 -98.332 13.667 -134.999 41s-55 64.666 -55 111.999v11h128v-12c0 -19.333 6.16699 -34 18.5 -44s26.833 -15 43.5 -15c16 0 30.333 5 43 15s19 24.667 19 44v12h127v-11c0 -47.333 -18.333 -84.666 -55 -111.999
s-81.334 -41 -134.001 -41z" />
    <glyph glyph-name="uni040F" unicode="&#x40f;" horiz-adv-x="748" 
d="M75 0v715h175v-566h248v566h175v-715h-221v-140h-155v140h-222z" />
    <glyph glyph-name="uni0410" unicode="&#x410;" horiz-adv-x="664" 
d="M-3 0l243 715h184l243 -715h-180l-44 150h-223l-43 -150h-180zM261 290h141.001l-40 139l-29 123h-2c-10.667 -52 -20.334 -93 -29.001 -123z" />
    <glyph glyph-name="uni0411" unicode="&#x411;" horiz-adv-x="633" 
d="M75 0v715.001h465v-150h-290v-111h122c69.333 0 125.5 -21.333 168.5 -64s64.5 -97.334 64.5 -164.001s-21.5 -121 -64.5 -163s-99.167 -63 -168.5 -63h-297zM250 150.001l89 0.000976562c28 0 49.667 6.83301 65 20.5s23 32.167 23 55.5s-7.83301 42.166 -23.5 56.499
s-38.167 21.5 -67.5 21.5h-86v-154z" />
    <glyph glyph-name="uni0412" unicode="&#x412;" horiz-adv-x="647" 
d="M75 0l0.000976562 715h263c73.333 0 132.166 -16.167 176.499 -48.5s66.5 -78.5 66.5 -138.5c0 -30.667 -7.33301 -59.834 -22 -87.501s-35 -49.167 -61 -64.5v-2c38 -11.333 66.167 -32.166 84.5 -62.499s27.5 -63.166 27.5 -98.499
c0 -72.667 -25.667 -126.334 -77 -161.001s-116.333 -52 -195 -52h-263zM250.001 438l89.999 -0.000976562c20.667 0 36.334 6.33301 47.001 19s16 28.334 16 47.001c0 18 -5.5 32.667 -16.5 44s-27.5 17 -49.5 17h-87v-127zM250 149.999l105.001 0.000976562
c24 0 42.667 7.16699 56 21.5s20 32.166 20 53.499s-6.33301 38.833 -19 52.5s-31.334 20.5 -56.001 20.5h-106v-148z" />
    <glyph glyph-name="uni0413" unicode="&#x413;" horiz-adv-x="523" 
d="M75 0v715h438v-150h-263v-565h-175z" />
    <glyph glyph-name="uni0414" unicode="&#x414;" horiz-adv-x="772" 
d="M261 149h220.999v416h-143v-33c0 -66 -6.16699 -133.667 -18.5 -203s-32.166 -129.333 -59.499 -180zM7.99902 149l74 0.000976562c60.667 105.333 91 237.666 91 396.999v169h484v-566h80v-289h-155v140h-413v-140h-161v289z" />
    <glyph glyph-name="uni0415" unicode="&#x415;" horiz-adv-x="576" 
d="M75 0v715h448v-150h-273v-130h218v-150h-218v-135h287v-150h-462z" />
    <glyph glyph-name="uni0416" unicode="&#x416;" horiz-adv-x="993" 
d="M6 0l192 371v2l-177 342h188l132 -276h68v276h175v-276h68l132 276h188l-177 -342v-2l192 -371h-196l-139 290h-68v-290h-175v290h-68l-139 -290h-196z" />
    <glyph glyph-name="uni0417" unicode="&#x417;" horiz-adv-x="569" 
d="M15 97l90.9971 115.001c48.667 -47.333 99.334 -71 152.001 -71c62.667 0 94 26.667 94 80c0 46.667 -28 70 -84 70h-86v139h70c25.333 0 45.5 7 60.5 21s22.5 31 22.5 51c0 22.667 -7.5 40.834 -22.5 54.501s-35.5 20.5 -61.5 20.5
c-49.333 0 -98.666 -19.667 -147.999 -59l-67 125c67.333 56 150 84 248 84c37.333 0 72.833 -6.83301 106.5 -20.5s62.5 -36.334 86.5 -68.001s36 -69.5 36 -113.5c0 -67.333 -31 -119.333 -93 -156v-2c34.667 -12 62 -31.833 82 -59.5s30 -60.834 30 -99.501
c0 -67.333 -24.667 -120.833 -74 -160.5s-109.666 -59.5 -180.999 -59.5c-104 0 -191.333 36.333 -262 109z" />
    <glyph glyph-name="uni0418" unicode="&#x418;" horiz-adv-x="754" 
d="M75 0v715h175v-334l-8 -122h2c21.333 50 41.333 90.667 60 122l198 334h177v-715h-175v333l8 122h-2c-21.333 -50 -41.333 -90.667 -60 -122l-199 -333h-176z" />
    <glyph glyph-name="uni0419" unicode="&#x419;" horiz-adv-x="754" 
d="M387 747c-53.333 0 -98.332 13.667 -134.999 41s-55 64.666 -55 111.999v11h128v-12c0 -19.333 6.16699 -34 18.5 -44s26.833 -15 43.5 -15c16 0 30.333 5 43 15s19 24.667 19 44v12h127v-11c0 -47.333 -18.333 -84.666 -55 -111.999s-81.334 -41 -134.001 -41zM75.001 0
v715h175v-334l-8 -122h2c21.333 50 41.333 90.667 60 122l198 334h177v-715h-175v333l8 122h-2c-21.333 -50 -41.333 -90.667 -60 -122l-199 -333h-176z" />
    <glyph glyph-name="uni041A" unicode="&#x41a;" horiz-adv-x="675" 
d="M75 0v715h175v-276h72l148 276h188l-193 -342v-2l204 -371h-196l-151 290h-72v-290h-175z" />
    <glyph glyph-name="uni041B" unicode="&#x41b;" horiz-adv-x="714" 
d="M16 151c30.667 4 55.8311 14.999 75.498 32.999s35.834 51.333 48.501 100s19 114 19 196v235h480v-715h-175v565h-139v-87c0 -171.333 -25.667 -295.166 -77 -371.499s-128.666 -114.5 -231.999 -114.5v159z" />
    <glyph glyph-name="uni041C" unicode="&#x41c;" horiz-adv-x="874" 
d="M47 0l59 715h190l104 -302l36 -118h2c13.333 48 25.333 87.333 36 118l104 302h190l58 -715h-175l-22 322c-1.33301 16 -2 34 -2 54s0.333008 36 1 48l1 18h-2c-16 -50 -29.333 -90 -40 -120l-75 -207h-150l-75 207l-40 120h-2c2.66699 -44 2.66699 -84 0 -120l-22 -322
h-176z" />
    <glyph glyph-name="uni041D" unicode="&#x41d;" horiz-adv-x="760" 
d="M75 0v715h175v-286h260v286h175v-715h-175v280h-260v-280h-175z" />
    <glyph glyph-name="uni041E" unicode="&#x41e;" horiz-adv-x="820" 
d="M36 362c0 103.333 35.5 190 106.5 260s160.167 105 267.5 105s196.5 -35 267.5 -105s106.5 -156.667 106.5 -260c0 -106 -35.5 -194.833 -106.5 -266.5s-160.167 -107.5 -267.5 -107.5s-196.5 35.833 -267.5 107.5s-106.5 160.5 -106.5 266.5zM217 362
c0 -60.667 18.667 -111.5 56 -152.5s83 -61.5 137 -61.5s99.667 20.5 137 61.5s56 91.833 56 152.5c0 58 -18.667 106.667 -56 146s-83 59 -137 59s-99.667 -19.667 -137 -59s-56 -88 -56 -146z" />
    <glyph glyph-name="uni041F" unicode="&#x41f;" horiz-adv-x="754" 
d="M75 0v715h604v-715h-175v566h-254v-566h-175z" />
    <glyph glyph-name="uni0420" unicode="&#x420;" horiz-adv-x="625" 
d="M75 0v715h297c69.333 0 125.5 -23 168.5 -69s64.5 -105 64.5 -177c0 -72.667 -21.5 -132.167 -64.5 -178.5s-99.167 -69.5 -168.5 -69.5h-122v-221h-175zM250 371l86 0.000976562c29.333 0 51.833 9 67.5 27s23.5 41.667 23.5 71s-7.66699 52.666 -23 69.999
s-37 26 -65 26h-89v-194z" />
    <glyph glyph-name="uni0421" unicode="&#x421;" horiz-adv-x="714" 
d="M37 359c0 105.333 35.167 193.001 105.5 263.001s160.166 105 269.499 105c50 0 98.667 -8.5 146 -25.5s88 -42.167 122 -75.5l-81 -132c-24 21.333 -52.167 38.833 -84.5 52.5s-63.833 20.5 -94.5 20.5c-66.667 0 -117 -19.833 -151 -59.5s-51 -87.834 -51 -144.501
c0 -58 17.5 -108.333 52.5 -151s84.833 -64 149.5 -64c68 0 131.333 29.333 190 88l90 -128c-77.333 -80 -173.333 -120 -288 -120c-113.333 0 -204.166 34.833 -272.499 104.5s-102.5 158.5 -102.5 266.5z" />
    <glyph glyph-name="uni0422" unicode="&#x422;" horiz-adv-x="635" 
d="M230 0v565h-217v150h609v-150h-217v-565h-175z" />
    <glyph glyph-name="uni0423" unicode="&#x423;" horiz-adv-x="631" 
d="M54 42l76 131c28.667 -24 55 -36 79 -36c28 0 47 12.333 57 37l-276 541h192l119 -257l39 -96h2c7.33301 30 16.666 61.667 27.999 95l88 258h184l-211 -536c-10 -25.333 -20.167 -47.5 -30.5 -66.5s-24 -38.833 -41 -59.5s-37.5 -36.667 -61.5 -48s-51 -17 -81 -17
c-57.333 0 -111.666 18 -162.999 54z" />
    <glyph glyph-name="uni0424" unicode="&#x424;" horiz-adv-x="865" 
d="M25 382c0 84.667 29.667 155 89 211s136.333 84 231 84v73h175v-73c94.667 0 171.667 -28 231 -84s89 -126.333 89 -211c0 -87.333 -29.667 -159.833 -89 -217.5s-136.333 -86.5 -231 -86.5v-90h-175v90c-94.667 0 -171.667 28.833 -231 86.5s-89 130.167 -89 217.5z
M520 224c40 0 73.667 15.333 101 46s41 68 41 112c0 41.333 -13.667 76.5 -41 105.5s-61 43.5 -101 43.5v-307zM203 382c0 -44 13.667 -81.333 41 -112s61 -46 101 -46v307c-40 0 -73.667 -14.5 -101 -43.5s-41 -64.167 -41 -105.5z" />
    <glyph glyph-name="uni0425" unicode="&#x425;" horiz-adv-x="659" 
d="M8 0l217 354.999l-218 360h199l78 -147l44 -92h2c12.667 30.667 27.334 61.334 44.001 92.001l79 147h199l-219 -360l218 -355h-195l-82 150l-44 89h-2c-12.667 -29.333 -27.334 -59 -44.001 -89l-82 -150h-194z" />
    <glyph glyph-name="uni0426" unicode="&#x426;" horiz-adv-x="793" 
d="M75 0v715h175v-566h248v566h175v-566h88v-289h-155v140h-531z" />
    <glyph glyph-name="uni0427" unicode="&#x427;" horiz-adv-x="692" 
d="M262 253c-74 0 -129.833 19.667 -167.5 59s-56.5 94.333 -56.5 165v238h179v-197c0 -70.667 31.667 -106 95 -106c47.333 0 89.333 11 126 33v270h179v-715h-179v259l2 32h-2c-59.333 -25.333 -118 -38 -176 -38z" />
    <glyph glyph-name="uni0428" unicode="&#x428;" horiz-adv-x="1035" 
d="M75 0v715h175v-566h180v566h175v-566h180v566h175v-715h-885z" />
    <glyph glyph-name="uni0429" unicode="&#x429;" horiz-adv-x="1080" 
d="M75 0v715h175v-566h180v566h175v-566h180v566h175v-566h88v-289h-155v140h-818z" />
    <glyph glyph-name="uni042A" unicode="&#x42a;" horiz-adv-x="735" 
d="M185 0v565h-180v150h355v-221h122c69.333 0 125.5 -23.167 168.5 -69.5s64.5 -105.833 64.5 -178.5c0 -72 -21.5 -131 -64.5 -177s-99.167 -69 -168.5 -69h-297zM360 150l89 0.000976562c28 0 49.667 8.66699 65 26s23 40.666 23 69.999s-7.83301 53 -23.5 71
s-38.167 27 -67.5 27h-86v-194z" />
    <glyph glyph-name="uni042B" unicode="&#x42b;" horiz-adv-x="925" 
d="M675 0v715h175v-715h-175zM75 0v715h175v-221h112c69.333 0 125.5 -23.167 168.5 -69.5s64.5 -105.833 64.5 -178.5c0 -72 -21.5 -131 -64.5 -177s-99.167 -69 -168.5 -69h-287zM250 150l79 0.000976562c28 0 49.667 8.66699 65 26s23 40.666 23 69.999
s-7.83301 53 -23.5 71s-38.167 27 -67.5 27h-76v-194z" />
    <glyph glyph-name="uni042C" unicode="&#x42c;" horiz-adv-x="625" 
d="M75 0v715h175v-221h122c69.333 0 125.5 -23.167 168.5 -69.5s64.5 -105.833 64.5 -178.5c0 -72 -21.5 -131 -64.5 -177s-99.167 -69 -168.5 -69h-297zM250 150l89 0.000976562c28 0 49.667 8.66699 65 26s23 40.666 23 69.999s-7.83301 53 -23.5 71s-38.167 27 -67.5 27
h-86v-194z" />
    <glyph glyph-name="uni042D" unicode="&#x42d;" horiz-adv-x="716" 
d="M20 98l86.001 125c58 -51.333 123.667 -77 197 -77c51.333 0 93.333 13.167 126 39.5s54 60.5 64 102.5h-295v140h296c-10 42 -31.667 76 -65 102s-75.333 39 -126 39c-66 0 -129.667 -26.667 -191 -80l-81 132c68 70.667 161 106 279 106
c113.333 0 203.333 -35 270 -105s100 -157 100 -261c0 -108 -35.333 -197.167 -106 -267.5s-161.334 -105.5 -272.001 -105.5c-104 0 -198 36.667 -282 110z" />
    <glyph glyph-name="uni042E" unicode="&#x42e;" horiz-adv-x="1109" 
d="M75 0l-0.000976562 715h175v-286h95c14.667 87.333 54.834 158.833 120.501 214.5s145.5 83.5 239.5 83.5c106 0 193.833 -35 263.5 -105s104.5 -156.667 104.5 -260c0 -106 -34.833 -194.833 -104.5 -266.5s-157.5 -107.5 -263.5 -107.5
c-91.333 0 -169.333 27.167 -234 81.5s-105.667 124.5 -123 210.5h-98v-280h-175zM517.999 362c0 -60.667 18 -111.5 54 -152.5s80.333 -61.5 133 -61.5s97 20.5 133 61.5s54 91.833 54 152.5c0 58 -18 106.667 -54 146s-80.333 59 -133 59s-97 -19.667 -133 -59
s-54 -88 -54 -146z" />
    <glyph glyph-name="uni042F" unicode="&#x42f;" horiz-adv-x="652" 
d="M8 0l137.001 230l27 43v2c-76.667 42.667 -115 113.334 -115 212.001c0 52.667 12 97.167 36 133.5s56 62.166 96 77.499c29.333 11.333 75.666 17 138.999 17h249v-715h-175v241h-64l-135 -241h-195zM326.001 386l76 -0.000976562v179h-59
c-39.333 0 -67.333 -6.66699 -84 -20c-16 -13.333 -24 -35.666 -24 -66.999c0 -61.333 30.333 -92 91 -92z" />
    <glyph glyph-name="uni0430" unicode="&#x430;" horiz-adv-x="552" 
d="M21 145c0 32.667 8.99902 60.9971 26.999 84.9971s41.833 42.333 71.5 55s60.5 21.834 92.5 27.501s65.333 8.5 100 8.5h15v9c0 38 -24.333 57 -73 57c-45.333 0 -92.666 -16.333 -141.999 -49l-60 122c23.333 18 55.5 33.667 96.5 47s81.5 20 121.5 20
c71.333 0 127.5 -18.667 168.5 -56s61.5 -88.666 61.5 -153.999v-317h-158v31l2 32h-2c-16.667 -23.333 -38.834 -41.666 -66.501 -54.999s-56.5 -20 -86.5 -20c-49.333 0 -89.666 15 -120.999 45s-47 67.333 -47 112zM191.999 160.997c0 -12.667 4.33301 -23.167 13 -31.5
s20.667 -12.5 36 -12.5c24 0 44.667 9.66699 62 29s26 40 26 62v14h-16c-32 0 -60.167 -4.83301 -84.5 -14.5s-36.5 -25.167 -36.5 -46.5z" />
    <glyph glyph-name="uni0431" unicode="&#x431;" horiz-adv-x="612" 
d="M35 308c0 104 22.501 185.667 67.501 245s118.167 106.333 219.5 141l167 56l49 -139l-194 -62c-27.333 -9.33301 -49.5 -18 -66.5 -26s-33.167 -20.5 -48.5 -37.5s-23.333 -37.167 -24 -60.5h2c38.667 32.667 89 49 151 49c68 0 122 -21.833 162 -65.5
s60 -100.5 60 -170.5c0 -72.667 -24.333 -132.5 -73 -179.5s-113 -70.5 -193 -70.5c-90.667 0 -159.834 29 -207.501 87s-71.5 135.667 -71.5 233zM207.001 235c0 -32 9.66699 -57.667 29 -77s43 -29 71 -29s51.667 9.66699 71 29s29 45 29 77c0 32.667 -9.66699 59 -29 79
s-43 30 -71 30s-51.667 -10 -71 -30s-29 -46.333 -29 -79z" />
    <glyph glyph-name="uni0432" unicode="&#x432;" horiz-adv-x="566" 
d="M58 0l0.00195312 514.999h281c53.333 0 95.833 -11.667 127.5 -35s47.5 -56.666 47.5 -99.999c0 -22.667 -5.33301 -44.167 -16 -64.5s-25.334 -36.166 -44.001 -47.499v-1c27.333 -8.66699 47.666 -23.5 60.999 -44.5s20 -44.167 20 -69.5
c0 -52.667 -18.5 -91.334 -55.5 -116.001s-83.833 -37 -140.5 -37h-281zM231.002 311.999h65c15.333 0 26.833 4.83301 34.5 14.5s11.5 21.834 11.5 36.501c0 13.333 -4 24.166 -12 32.499s-20 12.5 -36 12.5h-63v-96zM231.002 107.999h75.999c17.333 0 30.833 5 40.5 15
s14.5 22 14.5 36c0 14.667 -4.66699 27 -14 37s-22.666 15 -39.999 15h-77v-103z" />
    <glyph glyph-name="uni0433" unicode="&#x433;" horiz-adv-x="436" 
d="M58 0v515h363v-145h-190v-370h-173z" />
    <glyph glyph-name="uni0434" unicode="&#x434;" horiz-adv-x="651" 
d="M248 137h135v241h-89v-19c0 -89.333 -15.333 -163.333 -46 -222zM14 137h64c35.333 60 53 144.667 53 254v124h425v-378h74v-257h-154v120h-302v-120h-160v257z" />
    <glyph glyph-name="uni0435" unicode="&#x435;" horiz-adv-x="567" 
d="M29 258c0 77.333 24.334 141.499 73.001 192.499s113.667 76.5 195 76.5c74 0 132.167 -23.167 174.5 -69.5s63.5 -106.166 63.5 -179.499c0 -12 -1.33301 -30 -4 -54h-325c6 -30 20.167 -52.833 42.5 -68.5s48.166 -23.5 77.499 -23.5c42.667 0 90 17.333 142 52
l64 -121c-27.333 -23.333 -60.833 -41.666 -100.5 -54.999s-79.5 -20 -119.5 -20c-87.333 0 -156.333 26.667 -207 80s-76 116.666 -76 189.999zM210.001 322.999h154c0 22 -6.5 40.333 -19.5 55s-30.167 22 -51.5 22c-44 0 -71.667 -25.667 -83 -77z" />
    <glyph glyph-name="uni0436" unicode="&#x436;" horiz-adv-x="836" 
d="M7 0l145 266v2l-134 247h178l95 -183h46v183h161v-183h47l95 183h178l-134 -247v-2l145 -266h-187l-92 187h-52v-187h-161v187h-51l-92 -187h-187z" />
    <glyph glyph-name="uni0437" unicode="&#x437;" horiz-adv-x="473" 
d="M15 64l68.9971 107.999c16.667 -15.333 36.5 -28.166 59.5 -38.499s44.5 -15.5 64.5 -15.5c41.333 0 62 15 62 45c0 14 -3.83301 24.667 -11.5 32s-22.5 11 -44.5 11h-63v114h52c34.667 0 52 13.333 52 40c0 27.333 -18 41 -54 41c-37.333 0 -78 -13 -122 -39l-50 107
c56 38.667 125.333 58 208 58c54.667 0 100 -13 136 -39s54 -60.667 54 -104c0 -54 -21.333 -92.667 -64 -116v-2c53.333 -24.667 80 -62.667 80 -114c0 -52.667 -19.667 -93.167 -59 -121.5s-90.666 -42.5 -153.999 -42.5c-39.333 0 -78.166 6.5 -116.499 19.5
s-71.166 31.833 -98.499 56.5z" />
    <glyph glyph-name="uni0438" unicode="&#x438;" horiz-adv-x="618" 
d="M58 0v515.001h163v-227c0 -16.667 -0.666992 -33.667 -2 -51h2c4.66699 10 14 27 28 51l143 227h168v-515h-163v225c0 21.333 0.666992 38.666 2 51.999h-2c-2 -5.33301 -11.333 -22.333 -28 -51l-143 -226h-168z" />
    <glyph glyph-name="uni0439" unicode="&#x439;" horiz-adv-x="618" 
d="M310 551c-53.333 0 -98.332 13.667 -134.999 41s-55 64.666 -55 111.999v11h128v-12c0 -19.333 6.16699 -34 18.5 -44s26.833 -15 43.5 -15c16 0 30.333 5 43 15s19 24.667 19 44v12h127v-11c0 -47.333 -18.333 -84.666 -55 -111.999s-81.334 -41 -134.001 -41zM58.001 0
v515.001h163v-227c0 -16.667 -0.666992 -33.667 -2 -51h2c4.66699 10 14 27 28 51l143 227h168v-515h-163v225c0 21.333 0.666992 38.666 2 51.999h-2c-2 -5.33301 -11.333 -22.333 -28 -51l-143 -226h-168z" />
    <glyph glyph-name="uni043A" unicode="&#x43a;" horiz-adv-x="591" 
d="M58 0v515h173v-181h49l102 181h188l-151 -245v-2l172 -268h-197l-109 189h-54v-189h-173z" />
    <glyph glyph-name="uni043B" unicode="&#x43b;" horiz-adv-x="597" 
d="M20 -5v150.999c10.667 1.33301 20 3.5 28 6.5s16.667 8.66699 26 17s16.833 19.5 22.5 33.5s10.5 33.5 14.5 58.5s6 54.5 6 88.5v165h422v-515h-173v378h-86v-29c0 -113.333 -19.667 -200.666 -59 -261.999s-106.333 -92 -201 -92z" />
    <glyph glyph-name="uni043C" unicode="&#x43c;" horiz-adv-x="763" 
d="M36 0l49 514.999h200l76 -226l20 -60h1l21 60l76 226h199l49 -515h-166l-12 237l1 88h-2c-10 -29.333 -19.333 -54.666 -28 -75.999l-68 -180h-140l-68 180l-30 76h-2l1 -88l-12 -237h-165z" />
    <glyph glyph-name="uni043D" unicode="&#x43d;" horiz-adv-x="621" 
d="M58 0v515h173v-182h159v182h173v-515h-173v188h-159v-188h-173z" />
    <glyph glyph-name="uni043E" unicode="&#x43e;" horiz-adv-x="642" 
d="M29 256c0 79.333 28 144.333 84 195s125 76 207 76c82.667 0 152.167 -25.167 208.5 -75.5s84.5 -115.5 84.5 -195.5c0 -79.333 -28 -143.833 -84 -193.5s-125.333 -74.5 -208 -74.5s-152 24.833 -208 74.5s-84 114.167 -84 193.5zM204 256
c0 -37.333 11.333 -67.333 34 -90s50.334 -34 83.001 -34s60.334 11.333 83.001 34s34 52.667 34 90c0 38 -11.333 68.667 -34 92s-50.334 35 -83.001 35s-60.334 -11.667 -83.001 -35s-34 -54 -34 -92z" />
    <glyph glyph-name="uni043F" unicode="&#x43f;" horiz-adv-x="615" 
d="M58 0v515h499v-515h-173v370h-153v-370h-173z" />
    <glyph glyph-name="uni0440" unicode="&#x440;" horiz-adv-x="633" 
d="M58 -200l-0.000976562 715.001h156v-26l-2 -33h2c35.333 47.333 87.333 71 156 71c70 0 126.167 -24.833 168.5 -74.5s63.5 -114.834 63.5 -195.501s-22.667 -145.667 -68 -195s-102.666 -74 -171.999 -74c-49.333 0 -93 16.333 -131 49h-2c1.33301 -12 2 -26.667 2 -44
v-193h-173zM225.999 254.001c0 -33.333 8.83301 -62.167 26.5 -86.5s42.5 -36.5 74.5 -36.5c28.667 0 52.667 11 72 33s29 52 29 90s-9.33301 68.667 -28 92s-43 35 -73 35c-28.667 0 -52.667 -10.667 -72 -32s-29 -53 -29 -95z" />
    <glyph glyph-name="uni0441" unicode="&#x441;" horiz-adv-x="552" 
d="M29 258c0 73.333 25.834 136.498 77.501 189.498s121.5 79.5 209.5 79.5c38.667 0 76.5 -6.5 113.5 -19.5s67.5 -32.5 91.5 -58.5l-73 -116c-34.667 33.333 -75 50 -121 50c-38.667 0 -68.834 -12.167 -90.501 -36.5s-32.5 -53.166 -32.5 -86.499
c0 -34 11.333 -63.833 34 -89.5s54.334 -38.5 95.001 -38.5c46 0 93 20.667 141 62l63 -121c-25.333 -26 -57.833 -46.667 -97.5 -62s-80.834 -23 -123.501 -23c-88 0 -157.833 26.333 -209.5 79s-77.5 116.334 -77.5 191.001z" />
    <glyph glyph-name="uni0442" unicode="&#x442;" horiz-adv-x="516" 
d="M171 0v370h-156v145h486v-145h-157v-370h-173z" />
    <glyph glyph-name="uni0443" unicode="&#x443;" horiz-adv-x="561" 
d="M63 -47c18.667 -12.667 36.332 -19.001 52.999 -19.001c41.333 0 69 17.333 83 52l10 24l-219 505h196l76 -237l19 -80h2c6.66699 32.667 12.334 58.334 17.001 77.001l65 240h189l-211 -570c-20 -53.333 -49.5 -92.5 -88.5 -117.5s-81.167 -37.5 -126.5 -37.5
c-20 0 -40 3 -60 9s-35 12 -45 18l-15 9z" />
    <glyph glyph-name="uni0444" unicode="&#x444;" horiz-adv-x="785" 
d="M30 256c0 78 26.833 142.167 80.5 192.5s120.5 76.5 200.5 78.5v173h163v-173c80 -2 146.833 -28.167 200.5 -78.5s80.5 -114.5 80.5 -192.5c0 -77.333 -26.833 -140.666 -80.5 -189.999s-120.5 -75.333 -200.5 -78v-188h-163v188c-80 2.66699 -146.833 28.667 -200.5 78
s-80.5 112.666 -80.5 189.999zM474 124c32.667 2.66699 59.834 15.833 81.501 39.5s32.5 54.5 32.5 92.5c0 38.667 -10.833 70.167 -32.5 94.5s-48.834 37.833 -81.501 40.5v-267zM197 255.999c0 -38 10.833 -68.832 32.5 -92.499s48.834 -36.834 81.501 -39.501v267
c-32.667 -2.66699 -59.834 -16.167 -81.501 -40.5s-32.5 -55.833 -32.5 -94.5z" />
    <glyph glyph-name="uni0445" unicode="&#x445;" horiz-adv-x="550" 
d="M11 0l162 255l-166 260h195l56 -115l16 -34h2l16 34l56 115h195l-165 -260l162 -255h-190l-62 116l-12 26h-2c-4.66699 -11.333 -8.66699 -20 -12 -26l-61 -116h-190z" />
    <glyph glyph-name="uni0446" unicode="&#x446;" horiz-adv-x="646" 
d="M58 0v515h173v-370h146v370h173v-370h74v-265h-154v120h-412z" />
    <glyph glyph-name="uni0447" unicode="&#x447;" horiz-adv-x="576" 
d="M206 158c-48 0 -89.167 14 -123.5 42s-51.5 73 -51.5 135v180h170v-147c0 -46 22 -69 66 -69c28.667 0 54.667 8.33301 78 25v191h173v-515h-173v161l1 24h-2c-40 -18 -86 -27 -138 -27z" />
    <glyph glyph-name="uni0448" unicode="&#x448;" horiz-adv-x="837" 
d="M58 0v515h163v-370h116v370h163v-370h116v370h163v-515h-721z" />
    <glyph glyph-name="uni0449" unicode="&#x449;" horiz-adv-x="875" 
d="M58 0v515h163v-370h116v370h163v-370h116v370h163v-370h74v-265h-154v120h-641z" />
    <glyph glyph-name="uni044A" unicode="&#x44a;" horiz-adv-x="615" 
d="M137 0v370h-130v145h303v-161h84c69.333 0 120.666 -16 153.999 -48s50 -75.333 50 -130s-16.667 -97.667 -50 -129s-84.666 -47 -153.999 -47h-257zM310 113h51.999c20 0 35.5 6 46.5 18s16.5 27.333 16.5 46s-5.66699 34.167 -17 46.5s-27.666 18.5 -48.999 18.5h-49
v-129z" />
    <glyph glyph-name="uni044B" unicode="&#x44b;" horiz-adv-x="803" 
d="M572 0v515h173v-515h-173zM58 0v515h173v-161h78c69.333 0 120.666 -16 153.999 -48s50 -75.333 50 -130s-16.667 -97.667 -50 -129s-84.666 -47 -153.999 -47h-251zM231 113h45.999c20 0 35.5 6 46.5 18s16.5 27.333 16.5 46s-5.66699 34.167 -17 46.5
s-27.666 18.5 -48.999 18.5h-43v-129z" />
    <glyph glyph-name="uni044C" unicode="&#x44c;" horiz-adv-x="537" 
d="M58 0v515h173v-161h84c69.333 0 120.666 -16 153.999 -48s50 -75.333 50 -130s-16.667 -97.667 -50 -129s-84.666 -47 -153.999 -47h-257zM231 113h51.999c20 0 35.5 6 46.5 18s16.5 27.333 16.5 46s-5.66699 34.167 -17 46.5s-27.666 18.5 -48.999 18.5h-49v-129z" />
    <glyph glyph-name="uni044D" unicode="&#x44d;" horiz-adv-x="550" 
d="M16 62l60 116.001c45.333 -37.333 94 -56 146 -56c34 0 62.5 7.33301 85.5 22s38.833 34 47.5 58h-194v114h195c-9.33301 24 -25 42.833 -47 56.5s-48.667 20.5 -80 20.5c-51.333 0 -96 -16.333 -134 -49l-70 112c24.667 23.333 56.167 41 94.5 53s77.833 18 118.5 18
c88 0 157.167 -26.333 207.5 -79s75.5 -116 75.5 -190c0 -74.667 -25.833 -138.334 -77.5 -191.001s-121.5 -79 -209.5 -79c-86 0 -158.667 24.667 -218 74z" />
    <glyph glyph-name="uni044E" unicode="&#x44e;" horiz-adv-x="887" 
d="M58 0l0.000976562 514.999h173v-186h72c14.667 60.667 46.5 108.834 95.5 144.501s107.167 53.5 174.5 53.5c81.333 0 149.166 -25.167 203.499 -75.5s81.5 -115.5 81.5 -195.5c0 -79.333 -27 -143.833 -81 -193.5s-121.667 -74.5 -203 -74.5
c-69.333 0 -128.833 18.5 -178.5 55.5s-81.167 86.5 -94.5 148.5h-70v-192h-173zM465.001 255.999c0 -37.333 10.333 -67.333 31 -90s46.667 -34 78 -34s57.333 11.333 78 34s31 52.667 31 90c0 38 -10.333 68.667 -31 92s-46.667 35 -78 35s-57.333 -11.667 -78 -35
s-31 -54 -31 -92z" />
    <glyph glyph-name="uni044F" unicode="&#x44f;" horiz-adv-x="558" 
d="M9 0l104.001 155.999l24 31v1c-28 14 -50.5 34.833 -67.5 62.5s-25.5 57.834 -25.5 90.501c0 54 16.667 96.5 50 127.5s78.666 46.5 135.999 46.5h270v-515h-173v157h-36l-99 -157h-183zM286.001 271.999h41v136h-42c-46 0 -69 -22 -69 -66c0 -46.667 23.333 -70 70 -70z
" />
    <glyph glyph-name="uni0450" unicode="&#x450;" horiz-adv-x="567" 
d="M29 258c0 77.333 24.334 141.499 73.001 192.499s113.667 76.5 195 76.5c74 0 132.167 -23.167 174.5 -69.5s63.5 -106.166 63.5 -179.499c0 -12 -1.33301 -30 -4 -54h-325c6 -30 20.167 -52.833 42.5 -68.5s48.166 -23.5 77.499 -23.5c42.667 0 90 17.333 142 52
l64 -121c-27.333 -23.333 -60.833 -41.666 -100.5 -54.999s-79.5 -20 -119.5 -20c-87.333 0 -156.333 26.667 -207 80s-76 116.666 -76 189.999zM210.001 322.999h154c0 22 -6.5 40.333 -19.5 55s-30.167 22 -51.5 22c-44 0 -71.667 -25.667 -83 -77zM244.001 564.999
l-118 150h171l81 -150h-134z" />
    <glyph glyph-name="uni0451" unicode="&#x451;" horiz-adv-x="567" 
d="M29 258c0 77.333 24.334 141.499 73.001 192.499s113.667 76.5 195 76.5c74 0 132.167 -23.167 174.5 -69.5s63.5 -106.166 63.5 -179.499c0 -12 -1.33301 -30 -4 -54h-325c6 -30 20.167 -52.833 42.5 -68.5s48.166 -23.5 77.499 -23.5c42.667 0 90 17.333 142 52
l64 -121c-27.333 -23.333 -60.833 -41.666 -100.5 -54.999s-79.5 -20 -119.5 -20c-87.333 0 -156.333 26.667 -207 80s-76 116.666 -76 189.999zM210.001 322.999h154c0 22 -6.5 40.333 -19.5 55s-30.167 22 -51.5 22c-44 0 -71.667 -25.667 -83 -77zM336.001 574.999v140
h126v-140h-126zM127.001 574.999v140h126v-140h-126z" />
    <glyph glyph-name="uni0452" unicode="&#x452;" horiz-adv-x="627" 
d="M58 0v522h-59v115h59v78h173v-78h163v-115h-163v-100l-2 -44h2c14.667 25.333 36 45.333 64 60s59 22 93 22c123.333 0 185 -64.333 185 -193v-240c0 -45.333 -7.83301 -84.5 -23.5 -117.5s-36 -57.333 -61 -73s-49.167 -27 -72.5 -34s-46.666 -10.5 -69.999 -10.5l-61 3
v145c11.333 -1.33301 23.666 -2 36.999 -2c52 0 78 30.333 78 91v206c0 45.333 -19 68 -57 68c-52 0 -86.333 -25.333 -103 -76c-6 -17.333 -9 -39.333 -9 -66v-161h-173z" />
    <glyph glyph-name="uni0453" unicode="&#x453;" horiz-adv-x="436" 
d="M58 0v515h363v-145h-190v-370h-173zM148 565l81 150h171l-118 -150h-134z" />
    <glyph glyph-name="uni0454" unicode="&#x454;" horiz-adv-x="554" 
d="M29 258c0 73.333 25.833 136.498 77.5 189.498s121.5 79.5 209.5 79.5c26.667 0 52.167 -2.5 76.5 -7.5s44.166 -10.833 59.499 -17.5s28.833 -13.5 40.5 -20.5s20.167 -12.833 25.5 -17.5l7 -8l-72 -115l-16.5 13.5c-7 5.66699 -21.833 13 -44.5 22
s-45.334 13.5 -68.001 13.5c-67.333 0 -110.666 -24.667 -129.999 -74h195v-114h-194c20 -53.333 65.333 -80 136 -80c24.667 0 49.334 5.33301 74.001 16s43 21.334 55 32.001l19 16l61 -119c-2 -2 -5.16699 -4.83301 -9.5 -8.5s-13.666 -10 -27.999 -19
s-29.5 -17 -45.5 -24s-36.833 -13.333 -62.5 -19s-51.834 -8.5 -78.501 -8.5c-88 0 -157.833 26.333 -209.5 79s-77.5 116.334 -77.5 191.001z" />
    <glyph glyph-name="uni0455" unicode="&#x455;" horiz-adv-x="471" 
d="M19 64l74.001 112.999c41.333 -34.667 88 -52 140 -52c31.333 0 47 9 47 27c0 10 -8.33301 18.833 -25 26.5s-36.667 15.5 -60 23.5s-46.833 17.833 -70.5 29.5s-43.834 28.834 -60.501 51.501s-25 49.667 -25 81c0 51.333 20.167 91.333 60.5 120s91.5 43 153.5 43
c74 0 135.333 -19.667 184 -59l-59 -120c-14.667 12 -34.5 22 -59.5 30s-48.5 12 -70.5 12c-32 0 -48 -8.33301 -48 -25c0 -8 6 -15.5 18 -22.5s26.833 -13 44.5 -18s37 -12 58 -21s40.333 -19 58 -30s32.5 -26.667 44.5 -47s18 -43.5 18 -69.5
c0 -49.333 -19.167 -89.833 -57.5 -121.5s-89.833 -47.5 -154.5 -47.5c-83.333 0 -153.333 25.333 -210 76z" />
    <glyph glyph-name="uni0456" unicode="&#x456;" horiz-adv-x="289" 
d="M60 580v135h169v-135h-169zM58 0v515h173v-515h-173z" />
    <glyph glyph-name="uni0457" unicode="&#x457;" horiz-adv-x="289" 
d="M58 0v515h173v-515h-173zM187 575v140h126v-140h-126zM-22 575v140h126v-140h-126z" />
    <glyph glyph-name="uni0458" unicode="&#x458;" horiz-adv-x="289" 
d="M60 580v135h169v-135h-169zM58 4l-0.000976562 511h173v-528c0 -32.667 -6 -61.5 -18 -86.5s-26.5 -44.167 -43.5 -57.5s-37.333 -24 -61 -32s-44.667 -13.167 -63 -15.5s-37.166 -3.5 -56.499 -3.5c-15.333 0 -30.666 1 -45.999 3v144
c5.33301 -0.666992 12.666 -1 21.999 -1c62 0 93 22 93 66z" />
    <glyph glyph-name="uni0459" unicode="&#x459;" horiz-adv-x="820" 
d="M20 -5v151c14.667 2 27 5.33301 37 10s20.333 13.167 31 25.5s18.667 31.833 24 58.5s8 60 8 100v175h400v-177h80c69.333 0 120.666 -15.333 153.999 -46s50 -72.667 50 -126c0 -52 -16.667 -92.667 -50 -122s-84.666 -44 -153.999 -44h-253v378h-65v-31
c0 -120 -19.333 -208.667 -58 -266s-106.667 -86 -204 -86zM520 113h55.999c20 0 35.5 4.83301 46.5 14.5s16.5 22.5 16.5 38.5c0 17.333 -5.66699 31.333 -17 42s-27.666 16 -48.999 16h-53v-111z" />
    <glyph glyph-name="uni045A" unicode="&#x45a;" horiz-adv-x="869" 
d="M58 0v515h173v-175h165v175h173v-177h80c69.333 0 120.666 -15.333 153.999 -46s50 -72.667 50 -126c0 -52 -16.667 -92.667 -50 -122s-84.666 -44 -153.999 -44h-253v207h-165v-207h-173zM569 113h55.999c20 0 35.5 4.83301 46.5 14.5s16.5 22.5 16.5 38.5
c0 17.333 -5.66699 31.333 -17 42s-27.666 16 -48.999 16h-53v-111z" />
    <glyph glyph-name="uni045B" unicode="&#x45b;" horiz-adv-x="627" 
d="M58 0v522h-59v115h59v78h173v-78h163v-115h-163v-99l-2 -44h2c14.667 25.333 36 45.333 64 60s59 22 93 22c123.333 0 185 -64.333 185 -193v-268h-173v236c0 45.333 -19 68 -57 68c-52 0 -86.333 -25.333 -103 -76c-6 -17.333 -9 -39.333 -9 -66v-162h-173z" />
    <glyph glyph-name="uni045C" unicode="&#x45c;" horiz-adv-x="591" 
d="M58 0v515h173v-181h49l102 181h188l-151 -245v-2l172 -268h-197l-109 189h-54v-189h-173zM223 565l81 150h171l-118 -150h-134z" />
    <glyph glyph-name="uni045D" unicode="&#x45d;" horiz-adv-x="618" 
d="M58 0v515.001h163v-227c0 -16.667 -0.666992 -33.667 -2 -51h2c4.66699 10 14 27 28 51l143 227h168v-515h-163v225c0 21.333 0.666992 38.666 2 51.999h-2c-2 -5.33301 -11.333 -22.333 -28 -51l-143 -226h-168zM256 565.001l-118 150h171l81 -150h-134z" />
    <glyph glyph-name="uni045E" unicode="&#x45e;" horiz-adv-x="561" 
d="M283 551c-53.333 0 -98.332 13.667 -134.999 41s-55 64.666 -55 111.999v11h128v-12c0 -19.333 6.16699 -34 18.5 -44s26.833 -15 43.5 -15c16 0 30.333 5 43 15s19 24.667 19 44v12h127v-11c0 -47.333 -18.333 -84.666 -55 -111.999s-81.334 -41 -134.001 -41z
M63.001 -47c18.667 -12.667 36.332 -19.001 52.999 -19.001c41.333 0 69 17.333 83 52l10 24l-219 505h196l76 -237l19 -80h2c6.66699 32.667 12.334 58.334 17.001 77.001l65 240h189l-211 -570c-20 -53.333 -49.5 -92.5 -88.5 -117.5s-81.167 -37.5 -126.5 -37.5
c-20 0 -40 3 -60 9s-35 12 -45 18l-15 9z" />
    <glyph glyph-name="uni045F" unicode="&#x45f;" horiz-adv-x="608" 
d="M58 0v515h173v-370h146v370h173v-515h-169v-120h-154v120h-169z" />
    <glyph glyph-name="uni0462" unicode="&#x462;" horiz-adv-x="717" 
d="M167 0v539.001h-160v130h164v81h171v-81h204v-130h-204v-85h122c69.333 0 125.5 -21.333 168.5 -64s64.5 -97.334 64.5 -164.001s-21.5 -121 -64.5 -163s-99.167 -63 -168.5 -63h-297zM342 150.001l89 0.000976562c28 0 49.667 6.83301 65 20.5s23 32.167 23 55.5
s-7.83301 42.166 -23.5 56.499s-38.167 21.5 -67.5 21.5h-86v-154z" />
    <glyph glyph-name="uni0463" unicode="&#x463;" horiz-adv-x="598" 
d="M117 0v456h-122v121h121v138h173v-138h161v-121h-160v-102h90c69.333 0 120.666 -16 153.999 -48s50 -75.333 50 -130s-16.667 -97.667 -50 -129s-84.666 -47 -153.999 -47h-263zM290 113h57.999c20 0 35.5 6 46.5 18s16.5 27.333 16.5 46s-5.66699 34.167 -17 46.5
s-27.666 18.5 -48.999 18.5h-55v-129z" />
    <glyph glyph-name="uni0472" unicode="&#x472;" horiz-adv-x="820" 
d="M36 362c0 103.333 35.5 190 106.5 260s160.167 105 267.5 105s196.5 -35 267.5 -105s106.5 -156.667 106.5 -260c0 -106 -35.5 -194.833 -106.5 -266.5s-160.167 -107.5 -267.5 -107.5s-196.5 35.833 -267.5 107.5s-106.5 160.5 -106.5 266.5zM411 141
c44 0 83.168 13.833 117.501 41.5s57.833 64.167 70.5 109.5h-378c13.333 -45.333 37.166 -81.833 71.499 -109.5s73.833 -41.5 118.5 -41.5zM411.001 572c-45.333 0 -85.498 -13.667 -120.498 -41s-58.5 -63 -70.5 -107h381c-12.667 44 -36.334 79.667 -71.001 107
s-74.334 41 -119.001 41z" />
    <glyph glyph-name="uni0473" unicode="&#x473;" horiz-adv-x="642" 
d="M29 256c0 79.333 28 144.333 84 195s125 76 207 76c82.667 0 152.167 -25.167 208.5 -75.5s84.5 -115.5 84.5 -195.5c0 -79.333 -28 -143.833 -84 -193.5s-125.333 -74.5 -208 -74.5s-152 24.833 -208 74.5s-84 114.167 -84 193.5zM323 111c30.667 0 58 9 82 27
s40 43 48 75h-263c8 -32 24.167 -57 48.5 -75s52.5 -27 84.5 -27zM323 403c-30.667 0 -57.834 -8.49902 -81.501 -25.499s-40.167 -40.5 -49.5 -70.5h258c-8.66699 29.333 -24.667 52.666 -48 69.999s-49.666 26 -78.999 26z" />
    <glyph glyph-name="uni0474" unicode="&#x474;" horiz-adv-x="698" 
d="M247 0l-253.003 715.001h190l126 -407c4 -13.333 8.33301 -29.5 13 -48.5s8.33398 -34.833 11.001 -47.5l3 -19h2c8.66699 46.667 17.667 85 27 115l110 349c7.33301 22 17 37.167 29 45.5s30.333 12.5 55 12.5h125v-150h-25c-13.333 0 -23.166 -2.83301 -29.499 -8.5
s-12.166 -15.834 -17.499 -30.501l-184 -526h-182z" />
    <glyph glyph-name="uni0475" unicode="&#x475;" 
d="M180 0l-177.999 514.999h182l80 -274l19 -89h2c6 36.667 12.333 66.334 19 89.001l52 177c10 36 23.833 61.167 41.5 75.5s43.834 21.5 78.501 21.5h107v-145h-24c-16.667 0 -28.834 -3 -36.501 -9s-14.834 -18.667 -21.501 -38l-110 -323h-211z" />
    <glyph glyph-name="uni048A" unicode="&#x48a;" horiz-adv-x="823" 
d="M75 0v715h175v-334l-8 -122h2c21.333 50 41.333 90.667 60 122l198 334h177v-565h136v-91l-89 -199h-117l33 140h-138v333l8 122h-2c-21.333 -50 -41.333 -90.667 -60 -122l-199 -333h-176zM389 747c-53.333 0 -98.332 13.667 -134.999 41s-55 64.666 -55 111.999v11h128
v-12c0 -19.333 6.16699 -34 18.5 -44s26.833 -15 43.5 -15c16 0 30.333 5 43 15s19 24.667 19 44v12h127v-11c0 -47.333 -18.333 -84.666 -55 -111.999s-81.334 -41 -134.001 -41z" />
    <glyph glyph-name="uni048B" unicode="&#x48b;" horiz-adv-x="697" 
d="M58 0v515.001h163v-227c0 -16.667 -0.666992 -33.667 -2 -51h2c4.66699 10 14 27 28 51l143 227h168v-370h125v-86l-79 -179h-111l28 120h-126v225c0 21.333 0.666992 38.666 2 51.999h-2c-2 -5.33301 -11.333 -22.333 -28 -51l-143 -226h-168zM316 551.001
c-53.333 0 -98.332 13.667 -134.999 41s-55 64.666 -55 111.999v11h128v-12c0 -19.333 6.16699 -34 18.5 -44s26.833 -15 43.5 -15c16 0 30.333 5 43 15s19 24.667 19 44v12h127v-11c0 -47.333 -18.333 -84.666 -55 -111.999s-81.334 -41 -134.001 -41z" />
    <glyph glyph-name="uni048C" unicode="&#x48c;" horiz-adv-x="716" 
d="M166 0v547.001h-160v130h164v73h171v-73h204v-130h-204v-93h122c69.333 0 125.5 -21.333 168.5 -64s64.5 -97.334 64.5 -164.001s-21.5 -121 -64.5 -163s-99.167 -63 -168.5 -63h-297zM341 150.001l89 0.000976562c28 0 49.667 6.83301 65 20.5s23 32.167 23 55.5
s-7.83301 42.166 -23.5 56.499s-38.167 21.5 -67.5 21.5h-86v-154z" />
    <glyph glyph-name="uni048D" unicode="&#x48d;" horiz-adv-x="598" 
d="M117 0v456h-122v121h121v138h173v-138h161v-121h-160v-102h90c69.333 0 120.666 -16 153.999 -48s50 -75.333 50 -130s-16.667 -97.667 -50 -129s-84.666 -47 -153.999 -47h-263zM290 113h57.999c20 0 35.5 6 46.5 18s16.5 27.333 16.5 46s-5.66699 34.167 -17 46.5
s-27.666 18.5 -48.999 18.5h-55v-129z" />
    <glyph glyph-name="uni048E" unicode="&#x48e;" horiz-adv-x="640" 
d="M75 0v715.001h297c69.333 0 125.5 -23 168.5 -69s64.5 -105 64.5 -177c0 -74.667 -22.667 -135.334 -68 -182.001l54 -64l-77 -65l-64 75c-24 -8 -50 -12 -78 -12h-122v-221h-175zM296 417.001l76.999 65l62 -74c6 14.667 9 31.667 9 51
c0 32.667 -8.16699 58.5 -24.5 77.5s-40.166 28.5 -71.499 28.5h-98v-213h95h5z" />
    <glyph glyph-name="uni048F" unicode="&#x48f;" horiz-adv-x="638" 
d="M58 -200l0.000976562 715.003h156v-26l-2 -33h2c1.33301 2 3.33301 4.5 6 7.5s8.66699 8.66699 18 17s19.333 15.666 30 21.999s25.167 12 43.5 17s37.833 7.5 58.5 7.5c70 0 126.167 -24.833 168.5 -74.5s63.5 -114.834 63.5 -195.501
c0 -78.667 -21.667 -142.334 -65 -191.001l52 -62l-77 -63l-55 66c-30.667 -12.667 -62.334 -19 -95.001 -19c-24.667 0 -48 4 -70 12s-37.667 16 -47 24l-14 13h-2c1.33301 -12 2 -26.667 2 -44v-193h-173zM297.001 198.003l77.001 63l59 -71c7.33301 16.667 11 36 11 58
c0 40.667 -9.83301 73 -29.5 97s-46.167 36 -79.5 36c-32.667 0 -59 -11 -79 -33s-30 -55.333 -30 -100c0 -34.667 9.33301 -64.167 28 -88.5s45.667 -36.5 81 -36.5c5.33301 0 12.666 0.666992 21.999 2z" />
    <glyph glyph-name="uni0490" unicode="&#x490;" horiz-adv-x="539" 
d="M75 0v715h314v120h140v-270h-279v-565h-175z" />
    <glyph glyph-name="uni0491" unicode="&#x491;" horiz-adv-x="451" 
d="M58 0v515h248v120h131v-265h-206v-370h-173z" />
    <glyph glyph-name="uni0492" unicode="&#x492;" horiz-adv-x="532" 
d="M79 0v281h-56v120h56v314h438v-150h-263v-164h155v-120h-155v-281h-175z" />
    <glyph glyph-name="uni0493" unicode="&#x493;" horiz-adv-x="448" 
d="M66 0v177h-60v105h60v233h363v-145h-190v-88h121v-105h-121v-177h-173z" />
    <glyph glyph-name="uni0494" unicode="&#x494;" horiz-adv-x="650" 
d="M75 0v715h439v-150h-264v-154c33.333 10.667 72 16 116 16c86.667 0 151.667 -27.333 195 -82s65 -125 65 -211c0 -216 -98 -324 -294 -324v140c36.667 0 64 13.167 82 39.5s27 74.5 27 144.5c0 46 -9.16699 81.333 -27.5 106s-49.5 37 -93.5 37
c-22.667 0 -46 -4 -70 -12v-265h-175z" />
    <glyph glyph-name="uni0495" unicode="&#x495;" horiz-adv-x="544" 
d="M58 0v514.999h381v-136h-208v-95c26 10 56.667 15 92 15c64.667 0 114.667 -20.667 150 -62s53 -95 53 -161c0 -119.333 -56.667 -214.666 -170 -285.999l-81 117c22 12.667 41.833 32.167 59.5 58.5s26.5 58.833 26.5 97.5c0 65.333 -27.333 98 -82 98
c-18.667 0 -34.667 -4 -48 -12v-149h-173z" />
    <glyph glyph-name="uni0496" unicode="&#x496;" horiz-adv-x="1042" 
d="M6 0l192 371v2l-177 342h188l132 -276h68v276h175v-276h68l132 276h188l-177 -342v-2l115 -222h115v-289h-155v140h-79l-139 290h-68v-290h-175v290h-68l-139 -290h-196z" />
    <glyph glyph-name="uni0497" unicode="&#x497;" horiz-adv-x="887" 
d="M7 0l145 266v2l-134 247h178l95 -183h46v183h161v-183h47l95 183h178l-134 -247v-2l66 -121h118v-265h-153v120h-73l-92 187h-52v-187h-161v187h-51l-92 -187h-187z" />
    <glyph glyph-name="uni0498" unicode="&#x498;" horiz-adv-x="570" 
d="M15 97l90.998 115.001c48.667 -47.333 99.334 -71 152.001 -71c62.667 0 94 26.667 94 80c0 46.667 -28 70 -84 70h-86v139h70c25.333 0 45.5 7 60.5 21s22.5 31 22.5 51c0 22.667 -7.5 40.834 -22.5 54.501s-35.5 20.5 -61.5 20.5
c-49.333 0 -98.666 -19.667 -147.999 -59l-67 125c67.333 56 150 84 248 84c37.333 0 72.833 -6.83301 106.5 -20.5s62.5 -36.334 86.5 -68.001s36 -69.5 36 -113.5c0 -67.333 -31 -119.333 -93 -156v-2c34.667 -12 62 -31.833 82 -59.5s30 -60.834 30 -99.501
c0 -53.333 -16 -98.333 -48 -135s-74 -61.667 -126 -75v-138h-155v136c-73.333 13.333 -136 47 -188 101z" />
    <glyph glyph-name="uni0499" unicode="&#x499;" horiz-adv-x="474" 
d="M15 64l69 107.999c16.667 -15.333 36.5 -28.166 59.5 -38.499s44.5 -15.5 64.5 -15.5c41.333 0 62 15 62 45c0 14 -3.83301 24.667 -11.5 32s-22.5 11 -44.5 11h-63v114h52c34.667 0 52 13.333 52 40c0 27.333 -18 41 -54 41c-37.333 0 -78 -13 -122 -39l-50 107
c56 38.667 125.333 58 208 58c54.667 0 100 -13 136 -39s54 -60.667 54 -104c0 -54 -21.333 -92.667 -64 -116v-2c53.333 -24.667 80 -62.667 80 -114c0 -40 -11.667 -73.167 -35 -99.5s-55.333 -44.5 -96 -54.5v-118h-150v115c-60 10.667 -109 33.667 -147 69z" />
    <glyph glyph-name="uni049A" unicode="&#x49a;" horiz-adv-x="719" 
d="M75 0v715h175v-276h72l148 276h188l-193 -342v-2l122 -222h114v-289h-155v140h-73l-151 290h-72v-290h-175z" />
    <glyph glyph-name="uni049B" unicode="&#x49b;" horiz-adv-x="635" 
d="M58 0v515h173v-181h49l102 181h188l-151 -245v-2l79 -123h118v-265h-153v120h-69l-109 189h-54v-189h-173z" />
    <glyph glyph-name="uni049C" unicode="&#x49c;" horiz-adv-x="804" 
d="M75 0v715h175v-276h51v106h120v-106h30l148 276h188l-193 -342v-2l204 -371h-196l-151 290h-30v-109h-120v109h-51v-290h-175z" />
    <glyph glyph-name="uni049D" unicode="&#x49d;" horiz-adv-x="691" 
d="M58 0v515h173v-181h33v93h100v-93h16l102 181h188l-151 -245v-2l172 -268h-197l-109 189h-21v-94h-100v94h-33v-189h-173z" />
    <glyph glyph-name="uni049E" unicode="&#x49e;" horiz-adv-x="678" 
d="M30 515v112h48v88h175v-88h70v-112h-70v-76h72l148 276h188l-193 -342v-2l204 -371h-196l-151 290h-72v-290h-175v515h-48z" />
    <glyph glyph-name="uni049F" unicode="&#x49f;" horiz-adv-x="591" 
d="M58 0v527h-60v110h60v78h173v-78h82v-110h-82v-193h49l102 181h188l-151 -245v-2l172 -268h-197l-109 189h-54v-189h-173z" />
    <glyph glyph-name="uni04A0" unicode="&#x4a0;" horiz-adv-x="800" 
d="M200 0v565h-185v150h360v-276h72l148 276h188l-193 -342v-2l204 -371h-196l-151 290h-72v-290h-175z" />
    <glyph glyph-name="uni04A1" unicode="&#x4a1;" horiz-adv-x="670" 
d="M137 0v370h-130v145h303v-181h49l102 181h188l-151 -245v-2l172 -268h-197l-109 189h-54v-189h-173z" />
    <glyph glyph-name="uni04A2" unicode="&#x4a2;" horiz-adv-x="813" 
d="M75 0v715h175v-286h260v286h175v-566h114v-289h-155v140h-134v280h-260v-280h-175z" />
    <glyph glyph-name="uni04A3" unicode="&#x4a3;" horiz-adv-x="679" 
d="M58 0v515h173v-182h159v182h173v-370h98v-265h-153v120h-118v188h-159v-188h-173z" />
    <glyph glyph-name="uni04A4" unicode="&#x4a4;" horiz-adv-x="958" 
d="M75 0v715h175v-286h260v286h438v-150h-263v-565h-175v280h-260v-280h-175z" />
    <glyph glyph-name="uni04A5" unicode="&#x4a5;" horiz-adv-x="760" 
d="M58 0v515h173v-182h159v182h355v-145h-182v-370h-173v188h-159v-188h-173z" />
    <glyph glyph-name="uni04A6" unicode="&#x4a6;" horiz-adv-x="1005" 
d="M75 0l-0.000976562 714.999h534v-294c33.333 10.667 72 16 116 16c86.667 0 151.667 -28.167 195 -84.5s65 -129.166 65 -218.499c0 -110 -23.667 -191.5 -71 -244.5s-121.666 -79.5 -222.999 -79.5v140c36.667 0 64 13.167 82 39.5s27 74.5 27 144.5
c0 52.667 -9.16699 93 -27.5 121s-49.5 42 -93.5 42c-14.667 0 -38 -4 -70 -12v-285h-175v567h-184v-567h-175z" />
    <glyph glyph-name="uni04A7" unicode="&#x4a7;" horiz-adv-x="864" 
d="M58 0l0.000976562 515h475v-190c27.333 12 58.666 18 93.999 18c62 0 114 -21.667 156 -65s63 -103.333 63 -180c0 -64 -15.167 -122.833 -45.5 -176.5s-71.833 -97.5 -124.5 -131.5l-81 117c22.667 14 42.667 36.667 60 68s26 69.333 26 114
c0 75.333 -30.333 113 -91 113c-20.667 0 -39.667 -4.33301 -57 -13v-189h-173v370h-129v-370h-173z" />
    <glyph glyph-name="uni04A8" unicode="&#x4a8;" horiz-adv-x="946" 
d="M37 373c0 48.667 7.00098 93.8311 21.001 135.498s32.5 76.667 55.5 105s45.333 51.333 67 69s44.5 32.834 68.5 45.501l81 -158c-78 -50 -117 -118.333 -117 -205c0 -58.667 18 -109.5 54 -152.5s90 -64.5 162 -64.5c9.33301 0 22.666 0.666992 39.999 2
c-72.667 74.667 -109 163 -109 265c0 86 24.5 157.5 73.5 214.5s114.833 85.5 197.5 85.5s147.834 -28 195.501 -84s71.5 -122.333 71.5 -199c0 -50 -10.833 -100.167 -32.5 -150.5s-51.834 -96.166 -90.501 -137.499c16.667 -2.66699 36 -4 58 -4h57v-140h-60
c-64.667 -0 -129 13.333 -193 40c-67.333 -34.667 -138.333 -52 -213 -52c-110 0 -202 35.167 -276 105.5s-111 163.5 -111 279.5zM541.001 417.997c0 -83.333 26 -149.998 78 -199.998c30.667 27.333 54.667 59.666 72 96.999s26 75.333 26 114
c0 35.333 -7.16699 65.333 -21.5 90s-36.5 37 -66.5 37c-28 0 -49.667 -11.833 -65 -35.5s-23 -57.834 -23 -102.501z" />
    <glyph glyph-name="uni04A9" unicode="&#x4a9;" horiz-adv-x="818" 
d="M29 269c0 66.667 17.8301 121.669 53.4971 165.002s77.167 74.333 124.5 93l62 -137c-25.333 -12.667 -45.333 -30.334 -60 -53.001s-22 -46.667 -22 -72c0 -36 13.5 -69 40.5 -99s66.5 -45 118.5 -45c14.667 0 25.667 0.666992 33 2
c-50.667 49.333 -76 108.666 -76 177.999c0 65.333 21.833 119.333 65.5 162s101.834 64 174.501 64c70.667 0 126.334 -19.667 167.001 -59s61 -86 61 -140c0 -68.667 -31.667 -135.667 -95 -201c8 -0.666992 20.667 -1 38 -1h71v-126h-61
c-62.667 -0 -124.667 10.333 -186 31c-61.333 -28.667 -125.666 -43 -192.999 -43c-92.667 0 -168.5 25.833 -227.5 77.5s-88.5 119.5 -88.5 203.5zM462.997 305.002c0 -53.333 21 -95.668 63 -127.001c56.667 38 85 84 85 138c0 24 -6 43.667 -18 59s-30.333 23 -55 23
c-26 0 -45 -8.66699 -57 -26s-18 -39.666 -18 -66.999z" />
    <glyph glyph-name="uni04AA" unicode="&#x4aa;" horiz-adv-x="714" 
d="M37 359c0 105.333 35.167 193.002 105.5 263.002s160.166 105 269.499 105c50 0 98.667 -8.5 146 -25.5s88 -42.167 122 -75.5l-81 -132c-24 21.333 -52.167 38.833 -84.5 52.5s-63.833 20.5 -94.5 20.5c-66.667 0 -117 -19.833 -151 -59.5s-51 -87.834 -51 -144.501
c0 -58 17.5 -108.333 52.5 -151s84.833 -64 149.5 -64c68 0 131.333 29.333 190 88l90 -128c-64 -66.667 -141.333 -105.334 -232 -116.001v-132h-155v139c-85.333 19.333 -152.666 61.5 -201.999 126.5s-74 142.833 -74 233.5z" />
    <glyph glyph-name="uni04AB" unicode="&#x4ab;" horiz-adv-x="552" 
d="M29 258c0 73.333 25.833 136.496 77.5 189.496s121.5 79.5 209.5 79.5c38.667 0 76.5 -6.5 113.5 -19.5s67.5 -32.5 91.5 -58.5l-73 -116c-34.667 33.333 -75 50 -121 50c-38.667 0 -68.834 -12.167 -90.501 -36.5s-32.5 -53.166 -32.5 -86.499
c0 -34 11.333 -63.833 34 -89.5s54.334 -38.5 95.001 -38.5c46 0 93 20.667 141 62l63 -121c-40 -41.333 -93 -67.666 -159 -78.999v-114h-150v119c-62.667 16.667 -111.5 48.834 -146.5 96.501s-52.5 101.834 -52.5 162.501z" />
    <glyph glyph-name="uni04AC" unicode="&#x4ac;" horiz-adv-x="640" 
d="M228 0v565h-217v150h609v-150h-217v-416h114v-289h-155v140h-134z" />
    <glyph glyph-name="uni04AD" unicode="&#x4ad;" horiz-adv-x="525" 
d="M171 0v370h-156v145h486v-145h-157v-225h98v-265h-153v120h-118z" />
    <glyph glyph-name="uni04AE" unicode="&#x4ae;" horiz-adv-x="613" 
d="M219 0l0.000976562 293l-236 422h199l81 -172l43 -103h2c13.333 36 27.666 70.333 42.999 103l80 172h199l-236 -422v-293h-175z" />
    <glyph glyph-name="uni04AF" unicode="&#x4af;" horiz-adv-x="565" 
d="M197 0l-197 515h182l80 -254l19 -87h2c6 35.333 12.333 64.333 19 87l79 254h183l-195 -515v-200h-172v200z" />
    <glyph glyph-name="uni04B0" unicode="&#x4b0;" horiz-adv-x="614" 
d="M116 189l0.000976562 120h95l-227 406h199l81 -172l43 -103h2c13.333 36 27.666 70.333 42.999 103l80 172h199l-227 -406h107v-120h-116v-189h-175v189h-104z" />
    <glyph glyph-name="uni04B1" unicode="&#x4b1;" horiz-adv-x="564" 
d="M77 0v110h78l-155 405h182l80 -254l19 -87h2c6 35.333 12.333 64.333 19 87l79 254h183l-154 -405h79v-110h-120v-200h-172v200h-120z" />
    <glyph glyph-name="uni04B2" unicode="&#x4b2;" horiz-adv-x="702" 
d="M8 0l217 354.999l-218 360h199l78 -147l44 -92h2c12.667 30.667 27.334 61.334 44.001 92.001l79 147h199l-219 -360l126 -206h123v-289h-155v140h-71l-82 150l-44 89h-2c-12.667 -29.333 -27.334 -59 -44.001 -89l-82 -150h-194z" />
    <glyph glyph-name="uni04B3" unicode="&#x4b3;" horiz-adv-x="589" 
d="M11 0l162 255l-166 260h195l56 -115l16 -34h2l16 34l56 115h195l-165 -260l70 -110h118v-265h-153v120h-63l-62 116l-12 26h-2c-4.66699 -11.333 -8.66699 -20 -12 -26l-61 -116h-190z" />
    <glyph glyph-name="uni04B4" unicode="&#x4b4;" horiz-adv-x="931" 
d="M200 0v565h-185v150h545v-150h-185v-416h264v566h175v-566h98v-289h-155v140h-557z" />
    <glyph glyph-name="uni04B5" unicode="&#x4b5;" horiz-adv-x="765" 
d="M131 0v370h-114v145h402v-145h-115v-225h186v370h173v-370h82v-264h-154v119h-460z" />
    <glyph glyph-name="uni04B6" unicode="&#x4b6;" horiz-adv-x="745" 
d="M262 253c-74 0 -129.833 19.667 -167.5 59s-56.5 94.333 -56.5 165v238h179v-197c0 -70.667 31.667 -106 95 -106c47.333 0 89.333 11 126 33v270h179v-566h114v-289h-155v140h-138v259l2 32h-2c-59.333 -25.333 -118 -38 -176 -38z" />
    <glyph glyph-name="uni04B7" unicode="&#x4b7;" horiz-adv-x="633" 
d="M206 158c-48 0 -89.167 14 -123.5 42s-51.5 73 -51.5 135v180h170v-147c0 -46 22 -69 66 -69c28.667 0 54.667 8.33301 78 25v191h173v-370h97v-265h-153v120h-117v161l1 24h-2c-40 -18 -86 -27 -138 -27z" />
    <glyph glyph-name="uni04B8" unicode="&#x4b8;" horiz-adv-x="730" 
d="M280 261c-80.667 0 -141.5 19.666 -182.5 58.999s-61.5 94.333 -61.5 165v230h179v-197c0 -60 23.667 -94.333 71 -103v130h120v-124c28.667 6.66699 52 14.667 70 24v270h179v-715h-179v267l2 32h-2c-18.667 -7.33301 -42 -14.666 -70 -21.999v-111h-120v95h-6z" />
    <glyph glyph-name="uni04B9" unicode="&#x4b9;" horiz-adv-x="636" 
d="M253 85v77.001h-27c-54 0 -100 13.833 -138 41.5s-57 71.5 -57 131.5v180h170v-147c0 -34 17.333 -55.333 52 -64v113h100v-112c20 4.66699 37.333 11 52 19v191h173v-515h-173v171l1 24h-1c-14.667 -6.66699 -32 -12.334 -52 -17.001v-93h-100z" />
    <glyph glyph-name="uni04BA" unicode="&#x4ba;" horiz-adv-x="657" 
d="M75 0v715h175v-261l-2 -32h2c55.333 22.667 109 34 161 34c70.667 0 123.167 -21.167 157.5 -63.5s51.5 -98.833 51.5 -169.5v-223h-179v197c0 70 -31 105 -93 105c-35.333 0 -68 -8.66699 -98 -26v-276h-175z" />
    <glyph glyph-name="uni04BB" unicode="&#x4bb;" horiz-adv-x="626" 
d="M58 0v714.999h173v-226l-2 -44h2c14.667 25.333 36 45.333 64 60s59 22 93 22c123.333 0 185 -64.333 185 -193v-334h-173v302c0 45.333 -19 68 -57 68c-36 0 -63.667 -12.667 -83 -38s-29 -58.666 -29 -99.999v-232h-173z" />
    <glyph glyph-name="uni04BC" unicode="&#x4bc;" horiz-adv-x="918" 
d="M22 527c0 36 3.00098 66.3311 9.00098 90.998l7 30h155l-8 -32c-5.33301 -23.333 -8 -45.666 -8 -66.999c0 -30 4 -54.5 12 -73.5s23.667 -29.833 47 -32.5c16 90.667 55 160.667 117 210s132.667 74 212 74c100 0 177.5 -32.167 232.5 -96.5
s82.5 -147.166 82.5 -248.499l-6 -72h-461c8.66699 -48 29.834 -87 63.501 -117s76.834 -45 129.501 -45c35.333 0 70.166 7.66699 104.499 23s61.166 32 80.499 50l81 -132c-74.667 -67.333 -171.334 -101 -290.001 -101c-92.667 0 -171.667 30.167 -237 90.5
s-103.333 137.833 -114 232.5c-64.667 1.33301 -115.667 19.5 -153 54.5s-56 88.833 -56 161.5zM413.001 442.998h292c0 39.333 -12.167 71 -36.5 95s-58.833 36 -103.5 36c-43.333 0 -79 -14.167 -107 -42.5s-43 -57.833 -45 -88.5z" />
    <glyph glyph-name="uni04BD" unicode="&#x4bd;" horiz-adv-x="718" 
d="M18 408c0 20.667 2.66504 43.3281 7.99805 67.9951h133c-5.33301 -21.333 -8 -41 -8 -59c0 -45.333 12.667 -72.666 38 -81.999c14.667 58 44.834 104.5 90.501 139.5s101.834 52.5 168.501 52.5c74 0 132.167 -23.167 174.5 -69.5s63.5 -106.166 63.5 -179.499l-4 -54
h-325c6 -30 20.167 -52.833 42.5 -68.5s48.166 -23.5 77.499 -23.5c22 0 44.833 4.33301 68.5 13s41.834 17.334 54.501 26.001l19 13l64 -121c-6 -5.33301 -14.833 -12.166 -26.5 -20.499s-36.667 -19.5 -75 -33.5s-77.833 -21 -118.5 -21c-80.667 0 -146 23 -196 69
s-78.667 102.333 -86 169c-108.667 4.66699 -163 65.334 -163 182.001zM360.998 322.994h151c0 20 -6.33301 37.333 -19 52s-29 22 -49 22c-43.333 0 -71 -24.667 -83 -74z" />
    <glyph glyph-name="uni04BE" unicode="&#x4be;" horiz-adv-x="920" 
d="M23 527c0 36 3 66.332 9 90.999l7 30h155l-8 -32c-5.33301 -23.333 -8 -45.666 -8 -66.999c0 -30 4 -54.5 12 -73.5s23.667 -29.833 47 -32.5c16 90.667 55 160.667 117 210s132.667 74 212 74c100 0 177.5 -32.167 232.5 -96.5s82.5 -147.166 82.5 -248.499l-6 -72h-461
c8.66699 -48 29.834 -87 63.501 -117s76.834 -45 129.501 -45c35.333 0 70.166 7.66699 104.499 23s61.166 32 80.499 50l81 -132c-62.667 -55.333 -139.667 -88 -231 -98v-131h-155v141c-68.667 19.333 -126.167 56.666 -172.5 111.999s-73.833 121.333 -82.5 198
c-64.667 1.33301 -115.667 19.5 -153 54.5s-56 88.833 -56 161.5zM414 442.999h292c0 39.333 -12.167 71 -36.5 95s-58.833 36 -103.5 36c-43.333 0 -79 -14.167 -107 -42.5s-43 -57.833 -45 -88.5z" />
    <glyph glyph-name="uni04BF" unicode="&#x4bf;" horiz-adv-x="718" 
d="M18 408c0 20.667 2.66504 43.3271 7.99805 67.9941h133c-5.33301 -21.333 -8 -41 -8 -59c0 -45.333 12.667 -72.666 38 -81.999c14.667 58 44.834 104.5 90.501 139.5s101.834 52.5 168.501 52.5c74 0 132.167 -23.167 174.5 -69.5s63.5 -106.166 63.5 -179.499l-4 -54
h-325c6 -30 20.167 -52.833 42.5 -68.5s48.166 -23.5 77.499 -23.5c22 0 44.833 4.33301 68.5 13s41.834 17.334 54.501 26.001l19 13l64 -121c-4.66699 -4 -11.5 -9.33301 -20.5 -16s-28.333 -16.5 -58 -29.5s-60.167 -21.833 -91.5 -26.5v-111h-150v123
c-52 16.667 -93.833 45.334 -125.5 86.001s-50.5 86.334 -56.5 137.001c-108.667 4.66699 -163 65.334 -163 182.001zM360.998 322.993h151c0 20 -6.33301 37.333 -19 52s-29 22 -49 22c-43.333 0 -71 -24.667 -83 -74z" />
    <glyph glyph-name="uni04C0" unicode="&#x4c0;" horiz-adv-x="323" 
d="M75 0v715h173v-715h-173z" />
    <glyph glyph-name="uni04C1" unicode="&#x4c1;" horiz-adv-x="993" 
d="M6 0l192 371v2l-177 342h188l132 -276h68v276h175v-276h68l132 276h188l-177 -342v-2l192 -371h-196l-139 290h-68v-290h-175v290h-68l-139 -290h-196zM505 747c-53.333 0 -98.332 13.667 -134.999 41s-55 64.666 -55 111.999v11h128v-12c0 -19.333 6.16699 -34 18.5 -44
s26.833 -15 43.5 -15c16 0 30.333 5 43 15s19 24.667 19 44v12h127v-11c0 -47.333 -18.333 -84.666 -55 -111.999s-81.334 -41 -134.001 -41z" />
    <glyph glyph-name="uni04C2" unicode="&#x4c2;" horiz-adv-x="836" 
d="M7 0l145 266v2l-134 247h178l95 -183h46v183h161v-183h47l95 183h178l-134 -247v-2l145 -266h-187l-92 187h-52v-187h-161v187h-51l-92 -187h-187zM419 551c-53.333 0 -98.332 13.667 -134.999 41s-55 64.666 -55 111.999v11h128v-12c0 -19.333 6.16699 -34 18.5 -44
s26.833 -15 43.5 -15c16 0 30.333 5 43 15s19 24.667 19 44v12h127v-11c0 -47.333 -18.333 -84.666 -55 -111.999s-81.334 -41 -134.001 -41z" />
    </font>
</defs>
</svg>
