<svg width="20" height="20" viewBox="0 0 20 20" fill="none" xmlns="http://www.w3.org/2000/svg">
<path fill-rule="evenodd" clip-rule="evenodd" d="M0.203552 5.6447C0.203552 2.63815 2.64169 0.200012 5.64824 0.200012H14.3598C17.3663 0.200012 19.8044 2.63815 19.8044 5.6447V14.3562C19.8044 17.3628 17.3663 19.8009 14.3598 19.8009H5.64824C2.64169 19.8009 0.203552 17.3628 0.203552 14.3562V5.6447ZM17.6175 3.46669C17.6175 2.8656 17.1297 2.37775 16.5286 2.37775C15.9275 2.37775 15.4396 2.8656 15.4396 3.46669C15.4396 4.06778 15.9275 4.55563 16.5286 4.55563C17.1297 4.55563 17.6175 4.06778 17.6175 3.46669ZM10.0072 4.55581C13.0137 4.55581 15.4518 6.99394 15.4518 10.0005C15.4518 13.0071 13.0137 15.4452 10.0072 15.4452C7.0006 15.4452 4.56246 13.0071 4.56246 10.0005C4.56246 6.99394 7.0006 4.55581 10.0072 4.55581ZM6.73503 9.99931C6.73503 8.1951 8.19764 6.73249 10.0019 6.73249C11.8061 6.73249 13.2687 8.1951 13.2687 9.99931C13.2687 11.8035 11.8061 13.2661 10.0019 13.2661C8.19764 13.2661 6.73503 11.8035 6.73503 9.99931Z" fill="#36BA5F"/>
</svg>
