<svg width="20" height="23" viewBox="0 0 20 23" fill="none" xmlns="http://www.w3.org/2000/svg">
<path d="M19.0541 5.93278C17.8245 5.93278 16.69 5.52543 15.7789 4.83824C14.734 4.05047 13.9833 2.89491 13.7182 1.56302C13.6525 1.23394 13.6172 0.894341 13.6138 0.546326H10.1012V10.1443L10.097 15.4016C10.097 16.8071 9.18176 17.9989 7.913 18.418C7.54478 18.5396 7.14711 18.5973 6.73302 18.5745C6.20448 18.5455 5.70917 18.386 5.27868 18.1285C4.36256 17.5806 3.74143 16.5866 3.7246 15.4496C3.69809 13.6725 5.13476 12.2236 6.91061 12.2236C7.26115 12.2236 7.5978 12.2808 7.913 12.3848V9.76138V8.81833C7.58055 8.76909 7.24221 8.74342 6.90009 8.74342C4.95633 8.74342 3.1384 9.55139 1.83892 11.007C0.85673 12.107 0.267585 13.5104 0.176689 14.982C0.0575975 16.9153 0.764991 18.753 2.13686 20.1088C2.33843 20.3079 2.5501 20.4926 2.77145 20.6631C3.94763 21.5682 5.38557 22.0589 6.90009 22.0589C7.24221 22.0589 7.58055 22.0337 7.913 21.9844C9.32778 21.7749 10.6332 21.1272 11.6633 20.1088C12.9291 18.8578 13.6285 17.1968 13.6361 15.4289L13.618 7.57818C14.2219 8.04402 14.8821 8.42949 15.5908 8.72869C16.6929 9.1937 17.8615 9.42935 19.0642 9.42893V6.87836V5.93194C19.0651 5.93278 19.055 5.93278 19.0541 5.93278V5.93278Z" fill="#36BA5F"/>
</svg>
